<svg width="500" height="1000" xmlns="http://www.w3.org/2000/svg" version="1.1">


<!-- internal style sheet -->
<style type="text/css"><![CDATA[
 rect.background{fill:white}
 rect{fill:none; stroke:rgb(25,25,25); stroke-width:2}
 text{font-family:Helvetica; text-anchor:middle; fill:rgb(25,25,25)}
 line{stroke:rgb(25,25,25); stroke-width:4}
 path{fill:none; stroke:rgb(25,25,25); stroke-width:2}
 circle{fill:white; stroke:black; stroke-width:2}

 path.p0{fill:rgb(0,102,255); stroke:rgb(25,25,25); stroke-width:2}
 path.ps0{fill:rgb(0,77,191); stroke:rgb(20,20,20); stroke-width:2}
 rect.r0{fill:rgb(0,102,255); stroke:rgb(25,25,25); stroke-width:2}
 path.p1{fill:rgb(0,255,178); stroke:rgb(25,25,25); stroke-width:2}
 path.ps1{fill:rgb(0,191,134); stroke:rgb(20,20,20); stroke-width:2}
 rect.r1{fill:rgb(0,255,178); stroke:rgb(25,25,25); stroke-width:2}
 path.p2{fill:rgb(51,255,0); stroke:rgb(25,25,25); stroke-width:2}
 path.ps2{fill:rgb(38,191,0); stroke:rgb(20,20,20); stroke-width:2}
 rect.r2{fill:rgb(51,255,0); stroke:rgb(25,25,25); stroke-width:2}
 path.p3{fill:rgb(255,230,0); stroke:rgb(25,25,25); stroke-width:2}
 path.ps3{fill:rgb(191,173,0); stroke:rgb(20,20,20); stroke-width:2}
 rect.r3{fill:rgb(255,230,0); stroke:rgb(25,25,25); stroke-width:2}
 path.p4{fill:rgb(255,0,0); stroke:rgb(25,25,25); stroke-width:2}
 path.ps4{fill:rgb(191,0,0); stroke:rgb(20,20,20); stroke-width:2}
 rect.r4{fill:rgb(255,0,0); stroke:rgb(25,25,25); stroke-width:2}
]]></style>

 <rect class="background" width="500" height="1000"/>
  <!-- cells -->
  <path class="p4" d="M 40 920 L 61 919 L 60 900 L 40 901 L 40 920"/>
  <line x1="40" y1="920" x2="40" y2="901"/>
  <line x1="40" y1="920" x2="61" y2="919"/>
  <path class="p4" d="M 61 919 L 81 918 L 79 899 L 60 900 L 61 919"/>
  <line x1="61" y1="919" x2="81" y2="918"/>
  <path class="p4" d="M 40 901 L 60 900 L 59 881 L 40 883 L 40 901"/>
  <line x1="40" y1="901" x2="40" y2="883"/>
  <path class="p4" d="M 60 900 L 79 899 L 78 880 L 59 881 L 60 900"/>
  <path class="p4" d="M 81 918 L 102 915 L 99 896 L 79 899 L 81 918"/>
  <line x1="81" y1="918" x2="102" y2="915"/>
  <path class="p4" d="M 102 915 L 122 912 L 119 893 L 99 896 L 102 915"/>
  <line x1="102" y1="915" x2="122" y2="912"/>
  <path class="p4" d="M 79 899 L 99 896 L 97 877 L 78 880 L 79 899"/>
  <path class="p4" d="M 99 896 L 119 893 L 115 875 L 97 877 L 99 896"/>
  <path class="p4" d="M 40 883 L 59 881 L 58 863 L 40 864 L 40 883"/>
  <line x1="40" y1="883" x2="40" y2="864"/>
  <path class="p4" d="M 59 881 L 78 880 L 76 861 L 58 863 L 59 881"/>
  <path class="p4" d="M 40 864 L 58 863 L 57 844 L 40 846 L 40 864"/>
  <line x1="40" y1="864" x2="40" y2="846"/>
  <path class="p4" d="M 58 863 L 76 861 L 74 842 L 57 844 L 58 863"/>
  <path class="p4" d="M 78 880 L 97 877 L 94 859 L 76 861 L 78 880"/>
  <path class="p4" d="M 97 877 L 115 875 L 112 856 L 94 859 L 97 877"/>
  <path class="p4" d="M 76 861 L 94 859 L 92 840 L 74 842 L 76 861"/>
  <path class="p4" d="M 94 859 L 112 856 L 109 838 L 92 840 L 94 859"/>
  <path class="p4" d="M 122 912 L 142 907 L 138 889 L 119 893 L 122 912"/>
  <line x1="122" y1="912" x2="142" y2="907"/>
  <path class="p4" d="M 142 907 L 162 902 L 157 884 L 138 889 L 142 907"/>
  <line x1="142" y1="907" x2="162" y2="902"/>
  <path class="p4" d="M 119 893 L 138 889 L 134 870 L 115 875 L 119 893"/>
  <path class="p4" d="M 138 889 L 157 884 L 152 866 L 134 870 L 138 889"/>
  <path class="p4" d="M 162 902 L 181 895 L 176 878 L 157 884 L 162 902"/>
  <line x1="162" y1="902" x2="181" y2="895"/>
  <path class="p4" d="M 181 895 L 201 888 L 195 871 L 176 878 L 181 895"/>
  <line x1="181" y1="895" x2="201" y2="888"/>
  <path class="p4" d="M 157 884 L 176 878 L 170 860 L 152 866 L 157 884"/>
  <path class="p4" d="M 176 878 L 195 871 L 188 855 L 170 860 L 176 878"/>
  <path class="p4" d="M 115 875 L 134 870 L 130 852 L 112 856 L 115 875"/>
  <path class="p4" d="M 134 870 L 152 866 L 147 848 L 130 852 L 134 870"/>
  <path class="p4" d="M 112 856 L 130 852 L 126 834 L 109 838 L 112 856"/>
  <path class="p4" d="M 130 852 L 147 848 L 142 830 L 126 834 L 130 852"/>
  <path class="p4" d="M 152 866 L 170 860 L 165 843 L 147 848 L 152 866"/>
  <path class="p4" d="M 170 860 L 188 855 L 182 838 L 165 843 L 170 860"/>
  <path class="p4" d="M 147 848 L 165 843 L 159 826 L 142 830 L 147 848"/>
  <path class="p4" d="M 165 843 L 182 838 L 176 822 L 159 826 L 165 843"/>
  <path class="p4" d="M 40 846 L 57 844 L 56 825 L 40 827 L 40 846"/>
  <line x1="40" y1="846" x2="40" y2="827"/>
  <path class="p4" d="M 57 844 L 74 842 L 73 823 L 56 825 L 57 844"/>
  <path class="p4" d="M 40 827 L 56 825 L 56 807 L 40 809 L 40 827"/>
  <line x1="40" y1="827" x2="40" y2="809"/>
  <path class="p4" d="M 56 825 L 73 823 L 71 805 L 56 807 L 56 825"/>
  <path class="p4" d="M 74 842 L 92 840 L 89 821 L 73 823 L 74 842"/>
  <path class="p4" d="M 92 840 L 109 838 L 105 819 L 89 821 L 92 840"/>
  <path class="p4" d="M 73 823 L 89 821 L 87 803 L 71 805 L 73 823"/>
  <path class="p4" d="M 89 821 L 105 819 L 102 801 L 87 803 L 89 821"/>
  <path class="p4" d="M 40 809 L 56 807 L 55 788 L 40 790 L 40 809"/>
  <line x1="40" y1="809" x2="40" y2="790"/>
  <path class="p4" d="M 56 807 L 71 805 L 69 786 L 55 788 L 56 807"/>
  <path class="p4" d="M 40 790 L 55 788 L 54 770 L 40 772 L 40 790"/>
  <line x1="40" y1="790" x2="40" y2="772"/>
  <path class="p4" d="M 55 788 L 69 786 L 68 768 L 54 770 L 55 788"/>
  <path class="p4" d="M 71 805 L 87 803 L 84 784 L 69 786 L 71 805"/>
  <path class="p4" d="M 87 803 L 102 801 L 99 782 L 84 784 L 87 803"/>
  <path class="p4" d="M 69 786 L 84 784 L 82 766 L 68 768 L 69 786"/>
  <path class="p4" d="M 84 784 L 99 782 L 96 764 L 82 766 L 84 784"/>
  <path class="p4" d="M 109 838 L 126 834 L 122 816 L 105 819 L 109 838"/>
  <path class="p4" d="M 126 834 L 142 830 L 138 812 L 122 816 L 126 834"/>
  <path class="p4" d="M 105 819 L 122 816 L 117 798 L 102 801 L 105 819"/>
  <path class="p4" d="M 122 816 L 138 812 L 133 795 L 117 798 L 122 816"/>
  <path class="p4" d="M 142 830 L 159 826 L 154 809 L 138 812 L 142 830"/>
  <path class="p4" d="M 159 826 L 176 822 L 170 805 L 154 809 L 159 826"/>
  <path class="p4" d="M 138 812 L 154 809 L 148 792 L 133 795 L 138 812"/>
  <path class="p4" d="M 154 809 L 170 805 L 164 789 L 148 792 L 154 809"/>
  <path class="p4" d="M 102 801 L 117 798 L 113 780 L 99 782 L 102 801"/>
  <path class="p4" d="M 117 798 L 133 795 L 128 777 L 113 780 L 117 798"/>
  <path class="p4" d="M 99 782 L 113 780 L 109 762 L 96 764 L 99 782"/>
  <path class="p4" d="M 113 780 L 128 777 L 123 760 L 109 762 L 113 780"/>
  <path class="p4" d="M 133 795 L 148 792 L 143 775 L 128 777 L 133 795"/>
  <path class="p4" d="M 148 792 L 164 789 L 157 772 L 143 775 L 148 792"/>
  <path class="p4" d="M 128 777 L 143 775 L 137 758 L 123 760 L 128 777"/>
  <path class="p4" d="M 143 775 L 157 772 L 151 756 L 137 758 L 143 775"/>
  <path class="p4" d="M 201 888 L 220 880 L 212 863 L 195 871 L 201 888"/>
  <line x1="201" y1="888" x2="220" y2="880"/>
  <path class="p4" d="M 220 880 L 238 870 L 230 854 L 212 863 L 220 880"/>
  <line x1="220" y1="880" x2="238" y2="870"/>
  <path class="p4" d="M 195 871 L 212 863 L 205 847 L 188 855 L 195 871"/>
  <path class="p4" d="M 212 863 L 230 854 L 222 838 L 205 847 L 212 863"/>
  <path class="p4" d="M 238 870 L 256 860 L 247 845 L 230 854 L 238 870"/>
  <line x1="238" y1="870" x2="256" y2="860"/>
  <path class="p4" d="M 256 860 L 273 849 L 264 835 L 247 845 L 256 860"/>
  <line x1="256" y1="860" x2="273" y2="849"/>
  <path class="p4" d="M 230 854 L 247 845 L 239 829 L 222 838 L 230 854"/>
  <path class="p4" d="M 247 845 L 264 835 L 255 820 L 239 829 L 247 845"/>
  <path class="p4" d="M 188 855 L 205 847 L 198 830 L 182 838 L 188 855"/>
  <path class="p4" d="M 205 847 L 222 838 L 214 822 L 198 830 L 205 847"/>
  <path class="p4" d="M 182 838 L 198 830 L 191 814 L 176 822 L 182 838"/>
  <path class="p4" d="M 198 830 L 214 822 L 206 806 L 191 814 L 198 830"/>
  <path class="p4" d="M 222 838 L 239 829 L 230 814 L 214 822 L 222 838"/>
  <path class="p4" d="M 239 829 L 255 820 L 246 806 L 230 814 L 239 829"/>
  <path class="p4" d="M 214 822 L 230 814 L 222 799 L 206 806 L 214 822"/>
  <path class="p4" d="M 230 814 L 246 806 L 237 791 L 222 799 L 230 814"/>
  <path class="p4" d="M 273 849 L 290 837 L 280 823 L 264 835 L 273 849"/>
  <line x1="273" y1="849" x2="290" y2="837"/>
  <path class="p4" d="M 290 837 L 306 825 L 296 812 L 280 823 L 290 837"/>
  <line x1="290" y1="837" x2="306" y2="825"/>
  <path class="p4" d="M 264 835 L 280 823 L 270 809 L 255 820 L 264 835"/>
  <path class="p4" d="M 280 823 L 296 812 L 286 798 L 270 809 L 280 823"/>
  <path class="p4" d="M 306 825 L 322 811 L 311 799 L 296 812 L 306 825"/>
  <line x1="306" y1="825" x2="322" y2="811"/>
  <path class="p4" d="M 322 811 L 337 797 L 326 786 L 311 799 L 322 811"/>
  <line x1="322" y1="811" x2="337" y2="797"/>
  <path class="p4" d="M 296 812 L 311 799 L 301 787 L 286 798 L 296 812"/>
  <path class="p4" d="M 311 799 L 326 786 L 315 775 L 301 787 L 311 799"/>
  <path class="p4" d="M 255 820 L 270 809 L 261 795 L 246 806 L 255 820"/>
  <path class="p4" d="M 270 809 L 286 798 L 276 785 L 261 795 L 270 809"/>
  <path class="p4" d="M 246 806 L 261 795 L 251 782 L 237 791 L 246 806"/>
  <path class="p4" d="M 261 795 L 276 785 L 265 772 L 251 782 L 261 795"/>
  <path class="p4" d="M 286 798 L 301 787 L 290 775 L 276 785 L 286 798"/>
  <path class="p4" d="M 301 787 L 315 775 L 304 764 L 290 775 L 301 787"/>
  <path class="p4" d="M 276 785 L 290 775 L 279 763 L 265 772 L 276 785"/>
  <path class="p4" d="M 290 775 L 304 764 L 293 753 L 279 763 L 290 775"/>
  <path class="p4" d="M 176 822 L 191 814 L 184 798 L 170 805 L 176 822"/>
  <path class="p4" d="M 191 814 L 206 806 L 199 791 L 184 798 L 191 814"/>
  <path class="p4" d="M 170 805 L 184 798 L 177 782 L 164 789 L 170 805"/>
  <path class="p4" d="M 184 798 L 199 791 L 191 775 L 177 782 L 184 798"/>
  <path class="p4" d="M 206 806 L 222 799 L 213 784 L 199 791 L 206 806"/>
  <path class="p4" d="M 222 799 L 237 791 L 228 776 L 213 784 L 222 799"/>
  <path class="p4" d="M 199 791 L 213 784 L 205 769 L 191 775 L 199 791"/>
  <path class="p4" d="M 213 784 L 228 776 L 219 762 L 205 769 L 213 784"/>
  <path class="p4" d="M 164 789 L 177 782 L 170 766 L 157 772 L 164 789"/>
  <path class="p4" d="M 177 782 L 191 775 L 183 760 L 170 766 L 177 782"/>
  <path class="p4" d="M 157 772 L 170 766 L 163 750 L 151 756 L 157 772"/>
  <path class="p4" d="M 170 766 L 183 760 L 176 744 L 163 750 L 170 766"/>
  <path class="p4" d="M 191 775 L 205 769 L 197 754 L 183 760 L 191 775"/>
  <path class="p4" d="M 205 769 L 219 762 L 210 747 L 197 754 L 205 769"/>
  <path class="p4" d="M 183 760 L 197 754 L 188 738 L 176 744 L 183 760"/>
  <path class="p4" d="M 197 754 L 210 747 L 201 733 L 188 738 L 197 754"/>
  <path class="p4" d="M 237 791 L 251 782 L 242 768 L 228 776 L 237 791"/>
  <path class="p4" d="M 251 782 L 265 772 L 255 760 L 242 768 L 251 782"/>
  <path class="p4" d="M 228 776 L 242 768 L 232 754 L 219 762 L 228 776"/>
  <path class="p4" d="M 242 768 L 255 760 L 245 747 L 232 754 L 242 768"/>
  <path class="p4" d="M 265 772 L 279 763 L 269 751 L 255 760 L 265 772"/>
  <path class="p4" d="M 279 763 L 293 753 L 283 743 L 269 751 L 279 763"/>
  <path class="p4" d="M 255 760 L 269 751 L 258 739 L 245 747 L 255 760"/>
  <path class="p4" d="M 269 751 L 283 743 L 272 732 L 258 739 L 269 751"/>
  <path class="p4" d="M 219 762 L 232 754 L 222 741 L 210 747 L 219 762"/>
  <path class="p4" d="M 232 754 L 245 747 L 235 734 L 222 741 L 232 754"/>
  <path class="p4" d="M 210 747 L 222 741 L 213 727 L 201 733 L 210 747"/>
  <path class="p4" d="M 222 741 L 235 734 L 225 721 L 213 727 L 222 741"/>
  <path class="p4" d="M 245 747 L 258 739 L 248 727 L 235 734 L 245 747"/>
  <path class="p4" d="M 258 739 L 272 732 L 261 721 L 248 727 L 258 739"/>
  <path class="p4" d="M 235 734 L 248 727 L 238 716 L 225 721 L 235 734"/>
  <path class="p4" d="M 248 727 L 261 721 L 250 710 L 238 716 L 248 727"/>
  <path class="p4" d="M 40 772 L 54 770 L 53 751 L 40 753 L 40 772"/>
  <line x1="40" y1="772" x2="40" y2="753"/>
  <path class="p4" d="M 54 770 L 68 768 L 66 749 L 53 751 L 54 770"/>
  <path class="p4" d="M 40 753 L 53 751 L 52 733 L 40 734 L 40 753"/>
  <line x1="40" y1="753" x2="40" y2="734"/>
  <path class="p4" d="M 53 751 L 66 749 L 65 731 L 52 733 L 53 751"/>
  <path class="p4" d="M 68 768 L 82 766 L 79 748 L 66 749 L 68 768"/>
  <path class="p4" d="M 82 766 L 96 764 L 92 746 L 79 748 L 82 766"/>
  <path class="p4" d="M 66 749 L 79 748 L 77 730 L 65 731 L 66 749"/>
  <path class="p4" d="M 79 748 L 92 746 L 89 728 L 77 730 L 79 748"/>
  <path class="p4" d="M 40 734 L 52 733 L 52 715 L 40 716 L 40 734"/>
  <line x1="40" y1="734" x2="40" y2="716"/>
  <path class="p4" d="M 52 733 L 65 731 L 63 713 L 52 715 L 52 733"/>
  <path class="p4" d="M 40 716 L 52 715 L 51 696 L 40 697 L 40 716"/>
  <line x1="40" y1="716" x2="40" y2="697"/>
  <path class="p4" d="M 52 715 L 63 713 L 62 695 L 51 696 L 52 715"/>
  <path class="p4" d="M 65 731 L 77 730 L 75 712 L 63 713 L 65 731"/>
  <path class="p4" d="M 77 730 L 89 728 L 86 711 L 75 712 L 77 730"/>
  <path class="p4" d="M 63 713 L 75 712 L 72 694 L 62 695 L 63 713"/>
  <path class="p4" d="M 75 712 L 86 711 L 83 693 L 72 694 L 75 712"/>
  <path class="p4" d="M 96 764 L 109 762 L 106 744 L 92 746 L 96 764"/>
  <path class="p4" d="M 109 762 L 123 760 L 119 742 L 106 744 L 109 762"/>
  <path class="p4" d="M 92 746 L 106 744 L 102 727 L 89 728 L 92 746"/>
  <path class="p4" d="M 106 744 L 119 742 L 114 725 L 102 727 L 106 744"/>
  <path class="p4" d="M 123 760 L 137 758 L 132 741 L 119 742 L 123 760"/>
  <path class="p4" d="M 137 758 L 151 756 L 145 739 L 132 741 L 137 758"/>
  <path class="p4" d="M 119 742 L 132 741 L 126 724 L 114 725 L 119 742"/>
  <path class="p4" d="M 132 741 L 145 739 L 139 722 L 126 724 L 132 741"/>
  <path class="p4" d="M 89 728 L 102 727 L 98 710 L 86 711 L 89 728"/>
  <path class="p4" d="M 102 727 L 114 725 L 109 708 L 98 710 L 102 727"/>
  <path class="p4" d="M 86 711 L 98 710 L 94 692 L 83 693 L 86 711"/>
  <path class="p4" d="M 98 710 L 109 708 L 105 691 L 94 692 L 98 710"/>
  <path class="p4" d="M 114 725 L 126 724 L 121 707 L 109 708 L 114 725"/>
  <path class="p4" d="M 126 724 L 139 722 L 133 706 L 121 707 L 126 724"/>
  <path class="p4" d="M 109 708 L 121 707 L 116 690 L 105 691 L 109 708"/>
  <path class="p4" d="M 121 707 L 133 706 L 126 689 L 116 690 L 121 707"/>
  <path class="p4" d="M 40 697 L 51 696 L 50 678 L 40 679 L 40 697"/>
  <line x1="40" y1="697" x2="40" y2="679"/>
  <path class="p4" d="M 51 696 L 62 695 L 60 677 L 50 678 L 51 696"/>
  <path class="p4" d="M 40 679 L 50 678 L 49 660 L 40 660 L 40 679"/>
  <line x1="40" y1="679" x2="40" y2="660"/>
  <path class="p4" d="M 50 678 L 60 677 L 58 659 L 49 660 L 50 678"/>
  <path class="p4" d="M 62 695 L 72 694 L 70 676 L 60 677 L 62 695"/>
  <path class="p4" d="M 72 694 L 83 693 L 80 676 L 70 676 L 72 694"/>
  <path class="p4" d="M 60 677 L 70 676 L 68 659 L 58 659 L 60 677"/>
  <path class="p4" d="M 70 676 L 80 676 L 77 658 L 68 659 L 70 676"/>
  <path class="p4" d="M 40 660 L 49 660 L 48 641 L 40 642 L 40 660"/>
  <line x1="40" y1="660" x2="40" y2="642"/>
  <path class="p4" d="M 49 660 L 58 659 L 57 641 L 48 641 L 49 660"/>
  <path class="p4" d="M 40 642 L 48 641 L 48 623 L 40 623 L 40 642"/>
  <line x1="40" y1="642" x2="40" y2="623"/>
  <path class="p4" d="M 48 641 L 57 641 L 55 623 L 48 623 L 48 641"/>
  <path class="p4" d="M 58 659 L 68 659 L 65 641 L 57 641 L 58 659"/>
  <path class="p4" d="M 68 659 L 77 658 L 74 641 L 65 641 L 68 659"/>
  <path class="p4" d="M 57 641 L 65 641 L 63 623 L 55 623 L 57 641"/>
  <path class="p4" d="M 65 641 L 74 641 L 71 623 L 63 623 L 65 641"/>
  <path class="p4" d="M 83 693 L 94 692 L 90 675 L 80 676 L 83 693"/>
  <path class="p4" d="M 94 692 L 105 691 L 100 674 L 90 675 L 94 692"/>
  <path class="p4" d="M 80 676 L 90 675 L 86 658 L 77 658 L 80 676"/>
  <path class="p4" d="M 90 675 L 100 674 L 95 657 L 86 658 L 90 675"/>
  <path class="p4" d="M 105 691 L 116 690 L 110 673 L 100 674 L 105 691"/>
  <path class="p4" d="M 116 690 L 126 689 L 120 673 L 110 673 L 116 690"/>
  <path class="p4" d="M 100 674 L 110 673 L 105 657 L 95 657 L 100 674"/>
  <path class="p4" d="M 110 673 L 120 673 L 114 656 L 105 657 L 110 673"/>
  <path class="p4" d="M 77 658 L 86 658 L 82 640 L 74 641 L 77 658"/>
  <path class="p4" d="M 86 658 L 95 657 L 91 640 L 82 640 L 86 658"/>
  <path class="p4" d="M 74 641 L 82 640 L 78 623 L 71 623 L 74 641"/>
  <path class="p4" d="M 82 640 L 91 640 L 86 623 L 78 623 L 82 640"/>
  <path class="p4" d="M 95 657 L 105 657 L 99 640 L 91 640 L 95 657"/>
  <path class="p4" d="M 105 657 L 114 656 L 108 640 L 99 640 L 105 657"/>
  <path class="p4" d="M 91 640 L 99 640 L 94 623 L 86 623 L 91 640"/>
  <path class="p4" d="M 99 640 L 108 640 L 102 623 L 94 623 L 99 640"/>
  <path class="p4" d="M 151 756 L 163 750 L 157 734 L 145 739 L 151 756"/>
  <path class="p4" d="M 163 750 L 176 744 L 168 729 L 157 734 L 163 750"/>
  <path class="p4" d="M 145 739 L 157 734 L 150 718 L 139 722 L 145 739"/>
  <path class="p4" d="M 157 734 L 168 729 L 161 714 L 150 718 L 157 734"/>
  <path class="p4" d="M 176 744 L 188 738 L 180 724 L 168 729 L 176 744"/>
  <path class="p4" d="M 188 738 L 201 733 L 192 719 L 180 724 L 188 738"/>
  <path class="p4" d="M 168 729 L 180 724 L 172 710 L 161 714 L 168 729"/>
  <path class="p4" d="M 180 724 L 192 719 L 183 705 L 172 710 L 180 724"/>
  <path class="p4" d="M 139 722 L 150 718 L 143 702 L 133 706 L 139 722"/>
  <path class="p4" d="M 150 718 L 161 714 L 154 699 L 143 702 L 150 718"/>
  <path class="p4" d="M 133 706 L 143 702 L 136 686 L 126 689 L 133 706"/>
  <path class="p4" d="M 143 702 L 154 699 L 146 684 L 136 686 L 143 702"/>
  <path class="p4" d="M 161 714 L 172 710 L 164 695 L 154 699 L 161 714"/>
  <path class="p4" d="M 172 710 L 183 705 L 175 692 L 164 695 L 172 710"/>
  <path class="p4" d="M 154 699 L 164 695 L 156 681 L 146 684 L 154 699"/>
  <path class="p4" d="M 164 695 L 175 692 L 166 678 L 156 681 L 164 695"/>
  <path class="p4" d="M 201 733 L 213 727 L 204 714 L 192 719 L 201 733"/>
  <path class="p4" d="M 213 727 L 225 721 L 216 709 L 204 714 L 213 727"/>
  <path class="p4" d="M 192 719 L 204 714 L 195 701 L 183 705 L 192 719"/>
  <path class="p4" d="M 204 714 L 216 709 L 206 697 L 195 701 L 204 714"/>
  <path class="p4" d="M 225 721 L 238 716 L 227 704 L 216 709 L 225 721"/>
  <path class="p4" d="M 238 716 L 250 710 L 239 699 L 227 704 L 238 716"/>
  <path class="p4" d="M 216 709 L 227 704 L 217 693 L 206 697 L 216 709"/>
  <path class="p4" d="M 227 704 L 239 699 L 228 688 L 217 693 L 227 704"/>
  <path class="p4" d="M 183 705 L 195 701 L 186 688 L 175 692 L 183 705"/>
  <path class="p4" d="M 195 701 L 206 697 L 196 684 L 186 688 L 195 701"/>
  <path class="p4" d="M 175 692 L 186 688 L 176 675 L 166 678 L 175 692"/>
  <path class="p4" d="M 186 688 L 196 684 L 186 672 L 176 675 L 186 688"/>
  <path class="p4" d="M 206 697 L 217 693 L 207 681 L 196 684 L 206 697"/>
  <path class="p4" d="M 217 693 L 228 688 L 217 677 L 207 681 L 217 693"/>
  <path class="p4" d="M 196 684 L 207 681 L 196 669 L 186 672 L 196 684"/>
  <path class="p4" d="M 207 681 L 217 677 L 207 667 L 196 669 L 207 681"/>
  <path class="p4" d="M 126 689 L 136 686 L 130 671 L 120 673 L 126 689"/>
  <path class="p4" d="M 136 686 L 146 684 L 139 668 L 130 671 L 136 686"/>
  <path class="p4" d="M 120 673 L 130 671 L 123 655 L 114 656 L 120 673"/>
  <path class="p4" d="M 130 671 L 139 668 L 132 653 L 123 655 L 130 671"/>
  <path class="p4" d="M 146 684 L 156 681 L 148 666 L 139 668 L 146 684"/>
  <path class="p4" d="M 156 681 L 166 678 L 158 664 L 148 666 L 156 681"/>
  <path class="p4" d="M 139 668 L 148 666 L 140 652 L 132 653 L 139 668"/>
  <path class="p4" d="M 148 666 L 158 664 L 149 650 L 140 652 L 148 666"/>
  <path class="p4" d="M 114 656 L 123 655 L 116 639 L 108 640 L 114 656"/>
  <path class="p4" d="M 123 655 L 132 653 L 124 638 L 116 639 L 123 655"/>
  <path class="p4" d="M 108 640 L 116 639 L 109 623 L 102 623 L 108 640"/>
  <path class="p4" d="M 116 639 L 124 638 L 117 623 L 109 623 L 116 639"/>
  <path class="p4" d="M 132 653 L 140 652 L 133 637 L 124 638 L 132 653"/>
  <path class="p4" d="M 140 652 L 149 650 L 141 637 L 133 637 L 140 652"/>
  <path class="p4" d="M 124 638 L 133 637 L 125 623 L 117 623 L 124 638"/>
  <path class="p4" d="M 133 637 L 141 637 L 132 623 L 125 623 L 133 637"/>
  <path class="p4" d="M 166 678 L 176 675 L 167 662 L 158 664 L 166 678"/>
  <path class="p4" d="M 176 675 L 186 672 L 177 660 L 167 662 L 176 675"/>
  <path class="p4" d="M 158 664 L 167 662 L 158 649 L 149 650 L 158 664"/>
  <path class="p4" d="M 167 662 L 177 660 L 167 648 L 158 649 L 167 662"/>
  <path class="p4" d="M 186 672 L 196 669 L 186 658 L 177 660 L 186 672"/>
  <path class="p4" d="M 196 669 L 207 667 L 196 656 L 186 658 L 196 669"/>
  <path class="p4" d="M 177 660 L 186 658 L 176 646 L 167 648 L 177 660"/>
  <path class="p4" d="M 186 658 L 196 656 L 185 645 L 176 646 L 186 658"/>
  <path class="p4" d="M 149 650 L 158 649 L 149 636 L 141 637 L 149 650"/>
  <path class="p4" d="M 158 649 L 167 648 L 157 635 L 149 636 L 158 649"/>
  <path class="p4" d="M 141 637 L 149 636 L 140 623 L 132 623 L 141 637"/>
  <path class="p4" d="M 149 636 L 157 635 L 148 623 L 140 623 L 149 636"/>
  <path class="p4" d="M 167 648 L 176 646 L 166 635 L 157 635 L 167 648"/>
  <path class="p4" d="M 176 646 L 185 645 L 174 634 L 166 635 L 176 646"/>
  <path class="p4" d="M 157 635 L 166 635 L 155 623 L 148 623 L 157 635"/>
  <path class="p4" d="M 166 635 L 174 634 L 163 623 L 155 623 L 166 635"/>
  <path class="p4" d="M 40 623 L 48 623 L 48 608 L 40 608 L 40 623"/>
  <line x1="40" y1="623" x2="40" y2="608"/>
  <path class="p4" d="M 48 623 L 55 623 L 55 608 L 48 608 L 48 623"/>
  <path class="p4" d="M 40 608 L 48 608 L 48 592 L 40 592 L 40 608"/>
  <line x1="40" y1="608" x2="40" y2="592"/>
  <path class="p4" d="M 48 608 L 55 608 L 55 592 L 48 592 L 48 608"/>
  <path class="p4" d="M 55 623 L 63 623 L 63 608 L 55 608 L 55 623"/>
  <path class="p4" d="M 63 623 L 71 623 L 71 608 L 63 608 L 63 623"/>
  <path class="p4" d="M 55 608 L 63 608 L 63 592 L 55 592 L 55 608"/>
  <path class="p4" d="M 63 608 L 71 608 L 71 592 L 63 592 L 63 608"/>
  <path class="p4" d="M 40 592 L 48 592 L 48 577 L 40 577 L 40 592"/>
  <line x1="40" y1="592" x2="40" y2="577"/>
  <path class="p4" d="M 48 592 L 55 592 L 55 577 L 48 577 L 48 592"/>
  <path class="p4" d="M 40 577 L 48 577 L 48 562 L 40 562 L 40 577"/>
  <line x1="40" y1="577" x2="40" y2="562"/>
  <path class="p4" d="M 48 577 L 55 577 L 55 562 L 48 562 L 48 577"/>
  <path class="p4" d="M 55 592 L 63 592 L 63 577 L 55 577 L 55 592"/>
  <path class="p4" d="M 63 592 L 71 592 L 71 577 L 63 577 L 63 592"/>
  <path class="p4" d="M 55 577 L 63 577 L 63 562 L 55 562 L 55 577"/>
  <path class="p4" d="M 63 577 L 71 577 L 71 562 L 63 562 L 63 577"/>
  <path class="p4" d="M 71 623 L 78 623 L 78 608 L 71 608 L 71 623"/>
  <path class="p4" d="M 78 623 L 86 623 L 86 608 L 78 608 L 78 623"/>
  <path class="p4" d="M 71 608 L 78 608 L 78 592 L 71 592 L 71 608"/>
  <path class="p4" d="M 78 608 L 86 608 L 86 592 L 78 592 L 78 608"/>
  <path class="p4" d="M 86 623 L 94 623 L 94 608 L 86 608 L 86 623"/>
  <path class="p4" d="M 94 623 L 102 623 L 102 608 L 94 608 L 94 623"/>
  <path class="p4" d="M 86 608 L 94 608 L 94 592 L 86 592 L 86 608"/>
  <path class="p4" d="M 94 608 L 102 608 L 102 592 L 94 592 L 94 608"/>
  <path class="p4" d="M 71 592 L 78 592 L 78 577 L 71 577 L 71 592"/>
  <path class="p4" d="M 78 592 L 86 592 L 86 577 L 78 577 L 78 592"/>
  <path class="p4" d="M 71 577 L 78 577 L 78 562 L 71 562 L 71 577"/>
  <path class="p4" d="M 78 577 L 86 577 L 86 562 L 78 562 L 78 577"/>
  <path class="p4" d="M 86 592 L 94 592 L 94 577 L 86 577 L 86 592"/>
  <path class="p4" d="M 94 592 L 102 592 L 102 577 L 94 577 L 94 592"/>
  <path class="p4" d="M 86 577 L 94 577 L 94 562 L 86 562 L 86 577"/>
  <path class="p4" d="M 94 577 L 102 577 L 102 562 L 94 562 L 94 577"/>
  <path class="p4" d="M 40 562 L 48 562 L 48 546 L 40 546 L 40 562"/>
  <line x1="40" y1="562" x2="40" y2="546"/>
  <path class="p4" d="M 48 562 L 55 562 L 55 546 L 48 546 L 48 562"/>
  <path class="p4" d="M 40 546 L 48 546 L 48 531 L 40 531 L 40 546"/>
  <line x1="40" y1="546" x2="40" y2="531"/>
  <path class="p4" d="M 48 546 L 55 546 L 55 531 L 48 531 L 48 546"/>
  <path class="p4" d="M 55 562 L 63 562 L 63 546 L 55 546 L 55 562"/>
  <path class="p4" d="M 63 562 L 71 562 L 71 546 L 63 546 L 63 562"/>
  <path class="p4" d="M 55 546 L 63 546 L 63 531 L 55 531 L 55 546"/>
  <path class="p4" d="M 63 546 L 71 546 L 71 531 L 63 531 L 63 546"/>
  <path class="p4" d="M 40 531 L 48 531 L 48 515 L 40 515 L 40 531"/>
  <line x1="40" y1="531" x2="40" y2="515"/>
  <path class="p4" d="M 48 531 L 55 531 L 55 515 L 48 515 L 48 531"/>
  <path class="p4" d="M 40 515 L 48 515 L 48 500 L 40 500 L 40 515"/>
  <line x1="40" y1="515" x2="40" y2="500"/>
  <path class="p4" d="M 48 515 L 55 515 L 55 500 L 48 500 L 48 515"/>
  <path class="p4" d="M 55 531 L 63 531 L 63 515 L 55 515 L 55 531"/>
  <path class="p4" d="M 63 531 L 71 531 L 71 515 L 63 515 L 63 531"/>
  <path class="p4" d="M 55 515 L 63 515 L 63 500 L 55 500 L 55 515"/>
  <path class="p4" d="M 63 515 L 71 515 L 71 500 L 63 500 L 63 515"/>
  <path class="p4" d="M 71 562 L 78 562 L 78 546 L 71 546 L 71 562"/>
  <path class="p4" d="M 78 562 L 86 562 L 86 546 L 78 546 L 78 562"/>
  <path class="p4" d="M 71 546 L 78 546 L 78 531 L 71 531 L 71 546"/>
  <path class="p4" d="M 78 546 L 86 546 L 86 531 L 78 531 L 78 546"/>
  <path class="p4" d="M 86 562 L 94 562 L 94 546 L 86 546 L 86 562"/>
  <path class="p4" d="M 94 562 L 102 562 L 102 546 L 94 546 L 94 562"/>
  <path class="p4" d="M 86 546 L 94 546 L 94 531 L 86 531 L 86 546"/>
  <path class="p4" d="M 94 546 L 102 546 L 102 531 L 94 531 L 94 546"/>
  <path class="p4" d="M 71 531 L 78 531 L 78 515 L 71 515 L 71 531"/>
  <path class="p4" d="M 78 531 L 86 531 L 86 515 L 78 515 L 78 531"/>
  <path class="p4" d="M 71 515 L 78 515 L 78 500 L 71 500 L 71 515"/>
  <path class="p4" d="M 78 515 L 86 515 L 86 500 L 78 500 L 78 515"/>
  <path class="p4" d="M 86 531 L 94 531 L 94 515 L 86 515 L 86 531"/>
  <path class="p4" d="M 94 531 L 102 531 L 102 515 L 94 515 L 94 531"/>
  <path class="p4" d="M 86 515 L 94 515 L 94 500 L 86 500 L 86 515"/>
  <path class="p4" d="M 94 515 L 102 515 L 102 500 L 94 500 L 94 515"/>
  <path class="p4" d="M 102 623 L 109 623 L 109 608 L 102 608 L 102 623"/>
  <path class="p4" d="M 109 623 L 117 623 L 117 608 L 109 608 L 109 623"/>
  <path class="p4" d="M 102 608 L 109 608 L 109 592 L 102 592 L 102 608"/>
  <path class="p4" d="M 109 608 L 117 608 L 117 592 L 109 592 L 109 608"/>
  <path class="p4" d="M 117 623 L 125 623 L 125 608 L 117 608 L 117 623"/>
  <path class="p4" d="M 125 623 L 132 623 L 132 608 L 125 608 L 125 623"/>
  <path class="p4" d="M 117 608 L 125 608 L 125 592 L 117 592 L 117 608"/>
  <path class="p4" d="M 125 608 L 132 608 L 132 592 L 125 592 L 125 608"/>
  <path class="p4" d="M 102 592 L 109 592 L 109 577 L 102 577 L 102 592"/>
  <path class="p4" d="M 109 592 L 117 592 L 117 577 L 109 577 L 109 592"/>
  <path class="p4" d="M 102 577 L 109 577 L 109 562 L 102 562 L 102 577"/>
  <path class="p4" d="M 109 577 L 117 577 L 117 562 L 109 562 L 109 577"/>
  <path class="p4" d="M 117 592 L 125 592 L 125 577 L 117 577 L 117 592"/>
  <path class="p4" d="M 125 592 L 132 592 L 132 577 L 125 577 L 125 592"/>
  <path class="p4" d="M 117 577 L 125 577 L 125 562 L 117 562 L 117 577"/>
  <path class="p4" d="M 125 577 L 132 577 L 132 562 L 125 562 L 125 577"/>
  <path class="p4" d="M 132 623 L 140 623 L 140 608 L 132 608 L 132 623"/>
  <path class="p4" d="M 140 623 L 148 623 L 148 608 L 140 608 L 140 623"/>
  <path class="p4" d="M 132 608 L 140 608 L 140 592 L 132 592 L 132 608"/>
  <path class="p4" d="M 140 608 L 148 608 L 148 592 L 140 592 L 140 608"/>
  <path class="p4" d="M 148 623 L 155 623 L 155 608 L 148 608 L 148 623"/>
  <path class="p4" d="M 155 623 L 163 623 L 163 608 L 155 608 L 155 623"/>
  <path class="p4" d="M 148 608 L 155 608 L 155 592 L 148 592 L 148 608"/>
  <path class="p4" d="M 155 608 L 163 608 L 163 592 L 155 592 L 155 608"/>
  <path class="p4" d="M 132 592 L 140 592 L 140 577 L 132 577 L 132 592"/>
  <path class="p4" d="M 140 592 L 148 592 L 148 577 L 140 577 L 140 592"/>
  <path class="p4" d="M 132 577 L 140 577 L 140 562 L 132 562 L 132 577"/>
  <path class="p4" d="M 140 577 L 148 577 L 148 562 L 140 562 L 140 577"/>
  <path class="p4" d="M 148 592 L 155 592 L 155 577 L 148 577 L 148 592"/>
  <path class="p4" d="M 155 592 L 163 592 L 163 577 L 155 577 L 155 592"/>
  <path class="p4" d="M 148 577 L 155 577 L 155 562 L 148 562 L 148 577"/>
  <path class="p4" d="M 155 577 L 163 577 L 163 562 L 155 562 L 155 577"/>
  <path class="p4" d="M 102 562 L 109 562 L 109 546 L 102 546 L 102 562"/>
  <path class="p4" d="M 109 562 L 117 562 L 117 546 L 109 546 L 109 562"/>
  <path class="p4" d="M 102 546 L 109 546 L 109 531 L 102 531 L 102 546"/>
  <path class="p4" d="M 109 546 L 117 546 L 117 531 L 109 531 L 109 546"/>
  <path class="p4" d="M 117 562 L 125 562 L 125 546 L 117 546 L 117 562"/>
  <path class="p4" d="M 125 562 L 132 562 L 132 546 L 125 546 L 125 562"/>
  <path class="p4" d="M 117 546 L 125 546 L 125 531 L 117 531 L 117 546"/>
  <path class="p4" d="M 125 546 L 132 546 L 132 531 L 125 531 L 125 546"/>
  <path class="p4" d="M 102 531 L 109 531 L 109 515 L 102 515 L 102 531"/>
  <path class="p4" d="M 109 531 L 117 531 L 117 515 L 109 515 L 109 531"/>
  <path class="p4" d="M 102 515 L 109 515 L 109 500 L 102 500 L 102 515"/>
  <path class="p4" d="M 109 515 L 117 515 L 117 500 L 109 500 L 109 515"/>
  <path class="p4" d="M 117 531 L 125 531 L 125 515 L 117 515 L 117 531"/>
  <path class="p4" d="M 125 531 L 132 531 L 132 515 L 125 515 L 125 531"/>
  <path class="p4" d="M 117 515 L 125 515 L 125 500 L 117 500 L 117 515"/>
  <path class="p4" d="M 125 515 L 132 515 L 132 500 L 125 500 L 125 515"/>
  <path class="p4" d="M 132 562 L 140 562 L 140 546 L 132 546 L 132 562"/>
  <path class="p4" d="M 140 562 L 148 562 L 148 546 L 140 546 L 140 562"/>
  <path class="p4" d="M 132 546 L 140 546 L 140 531 L 132 531 L 132 546"/>
  <path class="p4" d="M 140 546 L 148 546 L 148 531 L 140 531 L 140 546"/>
  <path class="p4" d="M 148 562 L 155 562 L 155 546 L 148 546 L 148 562"/>
  <path class="p4" d="M 155 562 L 163 562 L 163 546 L 155 546 L 155 562"/>
  <path class="p4" d="M 148 546 L 155 546 L 155 531 L 148 531 L 148 546"/>
  <path class="p4" d="M 155 546 L 163 546 L 163 531 L 155 531 L 155 546"/>
  <path class="p4" d="M 132 531 L 140 531 L 140 515 L 132 515 L 132 531"/>
  <path class="p4" d="M 140 531 L 148 531 L 148 515 L 140 515 L 140 531"/>
  <path class="p4" d="M 132 515 L 140 515 L 140 500 L 132 500 L 132 515"/>
  <path class="p4" d="M 140 515 L 148 515 L 148 500 L 140 500 L 140 515"/>
  <path class="p4" d="M 148 531 L 155 531 L 155 515 L 148 515 L 148 531"/>
  <path class="p4" d="M 155 531 L 163 531 L 163 515 L 155 515 L 155 531"/>
  <path class="p4" d="M 148 515 L 155 515 L 155 500 L 148 500 L 148 515"/>
  <path class="p4" d="M 155 515 L 163 515 L 163 500 L 155 500 L 155 515"/>
  <path class="p4" d="M 40 500 L 48 500 L 48 485 L 40 485 L 40 500"/>
  <line x1="40" y1="500" x2="40" y2="485"/>
  <path class="p4" d="M 48 500 L 55 500 L 55 485 L 48 485 L 48 500"/>
  <path class="p4" d="M 40 485 L 48 485 L 48 469 L 40 469 L 40 485"/>
  <line x1="40" y1="485" x2="40" y2="469"/>
  <path class="p4" d="M 48 485 L 55 485 L 55 469 L 48 469 L 48 485"/>
  <path class="p4" d="M 55 500 L 63 500 L 63 485 L 55 485 L 55 500"/>
  <path class="p4" d="M 63 500 L 71 500 L 71 485 L 63 485 L 63 500"/>
  <path class="p4" d="M 55 485 L 63 485 L 63 469 L 55 469 L 55 485"/>
  <path class="p4" d="M 63 485 L 71 485 L 71 469 L 63 469 L 63 485"/>
  <path class="p4" d="M 40 469 L 48 469 L 48 454 L 40 454 L 40 469"/>
  <line x1="40" y1="469" x2="40" y2="454"/>
  <path class="p4" d="M 48 469 L 55 469 L 55 454 L 48 454 L 48 469"/>
  <path class="p4" d="M 40 454 L 48 454 L 48 438 L 40 438 L 40 454"/>
  <line x1="40" y1="454" x2="40" y2="438"/>
  <path class="p4" d="M 48 454 L 55 454 L 55 438 L 48 438 L 48 454"/>
  <path class="p4" d="M 55 469 L 63 469 L 63 454 L 55 454 L 55 469"/>
  <path class="p4" d="M 63 469 L 71 469 L 71 454 L 63 454 L 63 469"/>
  <path class="p4" d="M 55 454 L 63 454 L 63 438 L 55 438 L 55 454"/>
  <path class="p4" d="M 63 454 L 71 454 L 71 438 L 63 438 L 63 454"/>
  <path class="p4" d="M 71 500 L 78 500 L 78 485 L 71 485 L 71 500"/>
  <path class="p4" d="M 78 500 L 86 500 L 86 485 L 78 485 L 78 500"/>
  <path class="p4" d="M 71 485 L 78 485 L 78 469 L 71 469 L 71 485"/>
  <path class="p4" d="M 78 485 L 86 485 L 86 469 L 78 469 L 78 485"/>
  <path class="p4" d="M 86 500 L 94 500 L 94 485 L 86 485 L 86 500"/>
  <path class="p4" d="M 94 500 L 102 500 L 102 485 L 94 485 L 94 500"/>
  <path class="p4" d="M 86 485 L 94 485 L 94 469 L 86 469 L 86 485"/>
  <path class="p4" d="M 94 485 L 102 485 L 102 469 L 94 469 L 94 485"/>
  <path class="p4" d="M 71 469 L 78 469 L 78 454 L 71 454 L 71 469"/>
  <path class="p4" d="M 78 469 L 86 469 L 86 454 L 78 454 L 78 469"/>
  <path class="p4" d="M 71 454 L 78 454 L 78 438 L 71 438 L 71 454"/>
  <path class="p4" d="M 78 454 L 86 454 L 86 438 L 78 438 L 78 454"/>
  <path class="p4" d="M 86 469 L 94 469 L 94 454 L 86 454 L 86 469"/>
  <path class="p4" d="M 94 469 L 102 469 L 102 454 L 94 454 L 94 469"/>
  <path class="p4" d="M 86 454 L 94 454 L 94 438 L 86 438 L 86 454"/>
  <path class="p4" d="M 94 454 L 102 454 L 102 438 L 94 438 L 94 454"/>
  <path class="p4" d="M 40 438 L 48 438 L 48 423 L 40 423 L 40 438"/>
  <line x1="40" y1="438" x2="40" y2="423"/>
  <path class="p4" d="M 48 438 L 55 438 L 55 423 L 48 423 L 48 438"/>
  <path class="p4" d="M 40 423 L 48 423 L 48 408 L 40 408 L 40 423"/>
  <line x1="40" y1="423" x2="40" y2="408"/>
  <path class="p4" d="M 48 423 L 55 423 L 55 408 L 48 408 L 48 423"/>
  <path class="p4" d="M 55 438 L 63 438 L 63 423 L 55 423 L 55 438"/>
  <path class="p4" d="M 63 438 L 71 438 L 71 423 L 63 423 L 63 438"/>
  <path class="p4" d="M 55 423 L 63 423 L 63 408 L 55 408 L 55 423"/>
  <path class="p4" d="M 63 423 L 71 423 L 71 408 L 63 408 L 63 423"/>
  <path class="p4" d="M 40 408 L 48 408 L 48 392 L 40 392 L 40 408"/>
  <line x1="40" y1="408" x2="40" y2="392"/>
  <path class="p4" d="M 48 408 L 55 408 L 55 392 L 48 392 L 48 408"/>
  <path class="p4" d="M 40 392 L 48 392 L 48 377 L 40 377 L 40 392"/>
  <line x1="40" y1="392" x2="40" y2="377"/>
  <path class="p4" d="M 48 392 L 55 392 L 55 377 L 48 377 L 48 392"/>
  <path class="p4" d="M 55 408 L 63 408 L 63 392 L 55 392 L 55 408"/>
  <path class="p4" d="M 63 408 L 71 408 L 71 392 L 63 392 L 63 408"/>
  <path class="p4" d="M 55 392 L 63 392 L 63 377 L 55 377 L 55 392"/>
  <path class="p4" d="M 63 392 L 71 392 L 71 377 L 63 377 L 63 392"/>
  <path class="p4" d="M 71 438 L 78 438 L 78 423 L 71 423 L 71 438"/>
  <path class="p4" d="M 78 438 L 86 438 L 86 423 L 78 423 L 78 438"/>
  <path class="p4" d="M 71 423 L 78 423 L 78 408 L 71 408 L 71 423"/>
  <path class="p4" d="M 78 423 L 86 423 L 86 408 L 78 408 L 78 423"/>
  <path class="p4" d="M 86 438 L 94 438 L 94 423 L 86 423 L 86 438"/>
  <path class="p4" d="M 94 438 L 102 438 L 102 423 L 94 423 L 94 438"/>
  <path class="p4" d="M 86 423 L 94 423 L 94 408 L 86 408 L 86 423"/>
  <path class="p4" d="M 94 423 L 102 423 L 102 408 L 94 408 L 94 423"/>
  <path class="p4" d="M 71 408 L 78 408 L 78 392 L 71 392 L 71 408"/>
  <path class="p4" d="M 78 408 L 86 408 L 86 392 L 78 392 L 78 408"/>
  <path class="p4" d="M 71 392 L 78 392 L 78 377 L 71 377 L 71 392"/>
  <path class="p4" d="M 78 392 L 86 392 L 86 377 L 78 377 L 78 392"/>
  <path class="p4" d="M 86 408 L 94 408 L 94 392 L 86 392 L 86 408"/>
  <path class="p4" d="M 94 408 L 102 408 L 102 392 L 94 392 L 94 408"/>
  <path class="p4" d="M 86 392 L 94 392 L 94 377 L 86 377 L 86 392"/>
  <path class="p4" d="M 94 392 L 102 392 L 102 377 L 94 377 L 94 392"/>
  <path class="p4" d="M 102 500 L 109 500 L 109 485 L 102 485 L 102 500"/>
  <path class="p4" d="M 109 500 L 117 500 L 117 485 L 109 485 L 109 500"/>
  <path class="p4" d="M 102 485 L 109 485 L 109 469 L 102 469 L 102 485"/>
  <path class="p4" d="M 109 485 L 117 485 L 117 469 L 109 469 L 109 485"/>
  <path class="p4" d="M 117 500 L 125 500 L 125 485 L 117 485 L 117 500"/>
  <path class="p4" d="M 125 500 L 132 500 L 132 485 L 125 485 L 125 500"/>
  <path class="p4" d="M 117 485 L 125 485 L 125 469 L 117 469 L 117 485"/>
  <path class="p4" d="M 125 485 L 132 485 L 132 469 L 125 469 L 125 485"/>
  <path class="p4" d="M 102 469 L 109 469 L 109 454 L 102 454 L 102 469"/>
  <path class="p4" d="M 109 469 L 117 469 L 117 454 L 109 454 L 109 469"/>
  <path class="p4" d="M 102 454 L 109 454 L 109 438 L 102 438 L 102 454"/>
  <path class="p4" d="M 109 454 L 117 454 L 117 438 L 109 438 L 109 454"/>
  <path class="p4" d="M 117 469 L 125 469 L 125 454 L 117 454 L 117 469"/>
  <path class="p4" d="M 125 469 L 132 469 L 132 454 L 125 454 L 125 469"/>
  <path class="p4" d="M 117 454 L 125 454 L 125 438 L 117 438 L 117 454"/>
  <path class="p4" d="M 125 454 L 132 454 L 132 438 L 125 438 L 125 454"/>
  <path class="p4" d="M 132 500 L 140 500 L 140 485 L 132 485 L 132 500"/>
  <path class="p4" d="M 140 500 L 148 500 L 148 485 L 140 485 L 140 500"/>
  <path class="p4" d="M 132 485 L 140 485 L 140 469 L 132 469 L 132 485"/>
  <path class="p4" d="M 140 485 L 148 485 L 148 469 L 140 469 L 140 485"/>
  <path class="p4" d="M 148 500 L 155 500 L 155 485 L 148 485 L 148 500"/>
  <path class="p4" d="M 155 500 L 163 500 L 163 485 L 155 485 L 155 500"/>
  <path class="p4" d="M 148 485 L 155 485 L 155 469 L 148 469 L 148 485"/>
  <path class="p4" d="M 155 485 L 163 485 L 163 469 L 155 469 L 155 485"/>
  <path class="p4" d="M 132 469 L 140 469 L 140 454 L 132 454 L 132 469"/>
  <path class="p4" d="M 140 469 L 148 469 L 148 454 L 140 454 L 140 469"/>
  <path class="p4" d="M 132 454 L 140 454 L 140 438 L 132 438 L 132 454"/>
  <path class="p4" d="M 140 454 L 148 454 L 148 438 L 140 438 L 140 454"/>
  <path class="p4" d="M 148 469 L 155 469 L 155 454 L 148 454 L 148 469"/>
  <path class="p4" d="M 155 469 L 163 469 L 163 454 L 155 454 L 155 469"/>
  <path class="p4" d="M 148 454 L 155 454 L 155 438 L 148 438 L 148 454"/>
  <path class="p4" d="M 155 454 L 163 454 L 163 438 L 155 438 L 155 454"/>
  <path class="p4" d="M 102 438 L 109 438 L 109 423 L 102 423 L 102 438"/>
  <path class="p4" d="M 109 438 L 117 438 L 117 423 L 109 423 L 109 438"/>
  <path class="p4" d="M 102 423 L 109 423 L 109 408 L 102 408 L 102 423"/>
  <path class="p4" d="M 109 423 L 117 423 L 117 408 L 109 408 L 109 423"/>
  <path class="p4" d="M 117 438 L 125 438 L 125 423 L 117 423 L 117 438"/>
  <path class="p4" d="M 125 438 L 132 438 L 132 423 L 125 423 L 125 438"/>
  <path class="p4" d="M 117 423 L 125 423 L 125 408 L 117 408 L 117 423"/>
  <path class="p4" d="M 125 423 L 132 423 L 132 408 L 125 408 L 125 423"/>
  <path class="p4" d="M 102 408 L 109 408 L 109 392 L 102 392 L 102 408"/>
  <path class="p4" d="M 109 408 L 117 408 L 117 392 L 109 392 L 109 408"/>
  <path class="p4" d="M 102 392 L 109 392 L 109 377 L 102 377 L 102 392"/>
  <path class="p4" d="M 109 392 L 117 392 L 117 377 L 109 377 L 109 392"/>
  <path class="p4" d="M 117 408 L 125 408 L 125 392 L 117 392 L 117 408"/>
  <path class="p4" d="M 125 408 L 132 408 L 132 392 L 125 392 L 125 408"/>
  <path class="p4" d="M 117 392 L 125 392 L 125 377 L 117 377 L 117 392"/>
  <path class="p4" d="M 125 392 L 132 392 L 132 377 L 125 377 L 125 392"/>
  <path class="p4" d="M 132 438 L 140 438 L 140 423 L 132 423 L 132 438"/>
  <path class="p4" d="M 140 438 L 148 438 L 148 423 L 140 423 L 140 438"/>
  <path class="p4" d="M 132 423 L 140 423 L 140 408 L 132 408 L 132 423"/>
  <path class="p4" d="M 140 423 L 148 423 L 148 408 L 140 408 L 140 423"/>
  <path class="p4" d="M 148 438 L 155 438 L 155 423 L 148 423 L 148 438"/>
  <path class="p4" d="M 155 438 L 163 438 L 163 423 L 155 423 L 155 438"/>
  <path class="p4" d="M 148 423 L 155 423 L 155 408 L 148 408 L 148 423"/>
  <path class="p4" d="M 155 423 L 163 423 L 163 408 L 155 408 L 155 423"/>
  <path class="p4" d="M 132 408 L 140 408 L 140 392 L 132 392 L 132 408"/>
  <path class="p4" d="M 140 408 L 148 408 L 148 392 L 140 392 L 140 408"/>
  <path class="p4" d="M 132 392 L 140 392 L 140 377 L 132 377 L 132 392"/>
  <path class="p4" d="M 140 392 L 148 392 L 148 377 L 140 377 L 140 392"/>
  <path class="p4" d="M 148 408 L 155 408 L 155 392 L 148 392 L 148 408"/>
  <path class="p4" d="M 155 408 L 163 408 L 163 392 L 155 392 L 155 408"/>
  <path class="p4" d="M 148 392 L 155 392 L 155 377 L 148 377 L 148 392"/>
  <path class="p4" d="M 155 392 L 163 392 L 163 377 L 155 377 L 155 392"/>
  <path class="p4" d="M 337 797 L 365 766 L 350 755 L 326 786 L 337 797"/>
  <line x1="337" y1="797" x2="365" y2="766"/>
  <path class="p4" d="M 365 766 L 389 733 L 373 723 L 350 755 L 365 766"/>
  <line x1="365" y1="766" x2="389" y2="733"/>
  <path class="p4" d="M 326 786 L 350 755 L 336 744 L 315 775 L 326 786"/>
  <path class="p4" d="M 350 755 L 373 723 L 357 713 L 336 744 L 350 755"/>
  <path class="p4" d="M 389 733 L 410 698 L 392 689 L 373 723 L 389 733"/>
  <line x1="389" y1="733" x2="410" y2="698"/>
  <path class="p4" d="M 410 698 L 428 661 L 410 654 L 392 689 L 410 698"/>
  <line x1="410" y1="698" x2="428" y2="661"/>
  <path class="p4" d="M 373 723 L 392 689 L 374 680 L 357 713 L 373 723"/>
  <path class="p4" d="M 392 689 L 410 654 L 391 647 L 374 680 L 392 689"/>
  <path class="p4" d="M 315 775 L 336 744 L 322 734 L 304 764 L 315 775"/>
  <path class="p4" d="M 336 744 L 357 713 L 340 703 L 322 734 L 336 744"/>
  <path class="p4" d="M 304 764 L 322 734 L 309 723 L 293 753 L 304 764"/>
  <path class="p4" d="M 322 734 L 340 703 L 324 693 L 309 723 L 322 734"/>
  <path class="p4" d="M 357 713 L 374 680 L 357 672 L 340 703 L 357 713"/>
  <path class="p4" d="M 374 680 L 391 647 L 373 640 L 357 672 L 374 680"/>
  <path class="p4" d="M 340 703 L 357 672 L 339 663 L 324 693 L 340 703"/>
  <path class="p4" d="M 357 672 L 373 640 L 354 633 L 339 663 L 357 672"/>
  <path class="p4" d="M 428 661 L 442 622 L 422 616 L 410 654 L 428 661"/>
  <line x1="428" y1="661" x2="442" y2="622"/>
  <path class="p4" d="M 442 622 L 452 582 L 431 578 L 422 616 L 442 622"/>
  <line x1="442" y1="622" x2="452" y2="582"/>
  <path class="p4" d="M 410 654 L 422 616 L 401 610 L 391 647 L 410 654"/>
  <path class="p4" d="M 422 616 L 431 578 L 411 574 L 401 610 L 422 616"/>
  <path class="p4" d="M 452 582 L 458 541 L 437 539 L 431 578 L 452 582"/>
  <line x1="452" y1="582" x2="458" y2="541"/>
  <path class="p4" d="M 458 541 L 460 500 L 441 500 L 437 539 L 458 541"/>
  <line x1="458" y1="541" x2="460" y2="500"/>
  <path class="p4" d="M 431 578 L 437 539 L 417 537 L 411 574 L 431 578"/>
  <path class="p4" d="M 437 539 L 441 500 L 423 500 L 417 537 L 437 539"/>
  <path class="p4" d="M 391 647 L 401 610 L 382 605 L 373 640 L 391 647"/>
  <path class="p4" d="M 401 610 L 411 574 L 391 570 L 382 605 L 401 610"/>
  <path class="p4" d="M 373 640 L 382 605 L 362 600 L 354 633 L 373 640"/>
  <path class="p4" d="M 382 605 L 391 570 L 370 566 L 362 600 L 382 605"/>
  <path class="p4" d="M 411 574 L 417 537 L 397 535 L 391 570 L 411 574"/>
  <path class="p4" d="M 417 537 L 423 500 L 404 500 L 397 535 L 417 537"/>
  <path class="p4" d="M 391 570 L 397 535 L 378 533 L 370 566 L 391 570"/>
  <path class="p4" d="M 397 535 L 404 500 L 386 500 L 378 533 L 397 535"/>
  <path class="p4" d="M 293 753 L 309 723 L 296 713 L 283 743 L 293 753"/>
  <path class="p4" d="M 309 723 L 324 693 L 309 684 L 296 713 L 309 723"/>
  <path class="p4" d="M 283 743 L 296 713 L 283 704 L 272 732 L 283 743"/>
  <path class="p4" d="M 296 713 L 309 684 L 295 675 L 283 704 L 296 713"/>
  <path class="p4" d="M 324 693 L 339 663 L 323 655 L 309 684 L 324 693"/>
  <path class="p4" d="M 339 663 L 354 633 L 336 626 L 323 655 L 339 663"/>
  <path class="p4" d="M 309 684 L 323 655 L 306 647 L 295 675 L 309 684"/>
  <path class="p4" d="M 323 655 L 336 626 L 318 619 L 306 647 L 323 655"/>
  <path class="p4" d="M 272 732 L 283 704 L 270 694 L 261 721 L 272 732"/>
  <path class="p4" d="M 283 704 L 295 675 L 280 666 L 270 694 L 283 704"/>
  <path class="p4" d="M 261 721 L 270 694 L 258 684 L 250 710 L 261 721"/>
  <path class="p4" d="M 270 694 L 280 666 L 265 658 L 258 684 L 270 694"/>
  <path class="p4" d="M 295 675 L 306 647 L 290 639 L 280 666 L 295 675"/>
  <path class="p4" d="M 306 647 L 318 619 L 299 612 L 290 639 L 306 647"/>
  <path class="p4" d="M 280 666 L 290 639 L 273 631 L 265 658 L 280 666"/>
  <path class="p4" d="M 290 639 L 299 612 L 281 605 L 273 631 L 290 639"/>
  <path class="p4" d="M 354 633 L 362 600 L 344 594 L 336 626 L 354 633"/>
  <path class="p4" d="M 362 600 L 370 566 L 352 563 L 344 594 L 362 600"/>
  <path class="p4" d="M 336 626 L 344 594 L 325 589 L 318 619 L 336 626"/>
  <path class="p4" d="M 344 594 L 352 563 L 333 559 L 325 589 L 344 594"/>
  <path class="p4" d="M 370 566 L 378 533 L 359 531 L 352 563 L 370 566"/>
  <path class="p4" d="M 378 533 L 386 500 L 367 500 L 359 531 L 378 533"/>
  <path class="p4" d="M 352 563 L 359 531 L 341 530 L 333 559 L 352 563"/>
  <path class="p4" d="M 359 531 L 367 500 L 349 500 L 341 530 L 359 531"/>
  <path class="p4" d="M 318 619 L 325 589 L 307 584 L 299 612 L 318 619"/>
  <path class="p4" d="M 325 589 L 333 559 L 315 556 L 307 584 L 325 589"/>
  <path class="p4" d="M 299 612 L 307 584 L 288 579 L 281 605 L 299 612"/>
  <path class="p4" d="M 307 584 L 315 556 L 296 553 L 288 579 L 307 584"/>
  <path class="p4" d="M 333 559 L 341 530 L 322 528 L 315 556 L 333 559"/>
  <path class="p4" d="M 341 530 L 349 500 L 330 500 L 322 528 L 341 530"/>
  <path class="p4" d="M 315 556 L 322 528 L 304 526 L 296 553 L 315 556"/>
  <path class="p4" d="M 322 528 L 330 500 L 312 500 L 304 526 L 322 528"/>
  <path class="p4" d="M 460 500 L 458 459 L 437 461 L 441 500 L 460 500"/>
  <line x1="460" y1="500" x2="458" y2="459"/>
  <path class="p4" d="M 458 459 L 452 418 L 431 422 L 437 461 L 458 459"/>
  <line x1="458" y1="459" x2="452" y2="418"/>
  <path class="p4" d="M 441 500 L 437 461 L 417 463 L 423 500 L 441 500"/>
  <path class="p4" d="M 437 461 L 431 422 L 411 426 L 417 463 L 437 461"/>
  <path class="p4" d="M 452 418 L 442 378 L 422 384 L 431 422 L 452 418"/>
  <line x1="452" y1="418" x2="442" y2="378"/>
  <path class="p4" d="M 442 378 L 428 339 L 410 346 L 422 384 L 442 378"/>
  <line x1="442" y1="378" x2="428" y2="339"/>
  <path class="p4" d="M 431 422 L 422 384 L 401 390 L 411 426 L 431 422"/>
  <path class="p4" d="M 422 384 L 410 346 L 391 353 L 401 390 L 422 384"/>
  <path class="p4" d="M 423 500 L 417 463 L 397 465 L 404 500 L 423 500"/>
  <path class="p4" d="M 417 463 L 411 426 L 391 430 L 397 465 L 417 463"/>
  <path class="p4" d="M 404 500 L 397 465 L 378 467 L 386 500 L 404 500"/>
  <path class="p4" d="M 397 465 L 391 430 L 370 434 L 378 467 L 397 465"/>
  <path class="p4" d="M 411 426 L 401 390 L 382 395 L 391 430 L 411 426"/>
  <path class="p4" d="M 401 390 L 391 353 L 373 360 L 382 395 L 401 390"/>
  <path class="p4" d="M 391 430 L 382 395 L 362 400 L 370 434 L 391 430"/>
  <path class="p4" d="M 382 395 L 373 360 L 354 367 L 362 400 L 382 395"/>
  <path class="p4" d="M 428 339 L 410 302 L 392 311 L 410 346 L 428 339"/>
  <line x1="428" y1="339" x2="410" y2="302"/>
  <path class="p4" d="M 410 302 L 389 267 L 373 277 L 392 311 L 410 302"/>
  <line x1="410" y1="302" x2="389" y2="267"/>
  <path class="p4" d="M 410 346 L 392 311 L 374 320 L 391 353 L 410 346"/>
  <path class="p4" d="M 392 311 L 373 277 L 357 287 L 374 320 L 392 311"/>
  <path class="p4" d="M 389 267 L 365 234 L 350 245 L 373 277 L 389 267"/>
  <line x1="389" y1="267" x2="365" y2="234"/>
  <path class="p4" d="M 365 234 L 337 203 L 326 214 L 350 245 L 365 234"/>
  <line x1="365" y1="234" x2="337" y2="203"/>
  <path class="p4" d="M 373 277 L 350 245 L 336 256 L 357 287 L 373 277"/>
  <path class="p4" d="M 350 245 L 326 214 L 315 225 L 336 256 L 350 245"/>
  <path class="p4" d="M 391 353 L 374 320 L 357 328 L 373 360 L 391 353"/>
  <path class="p4" d="M 374 320 L 357 287 L 340 297 L 357 328 L 374 320"/>
  <path class="p4" d="M 373 360 L 357 328 L 339 337 L 354 367 L 373 360"/>
  <path class="p4" d="M 357 328 L 340 297 L 324 307 L 339 337 L 357 328"/>
  <path class="p4" d="M 357 287 L 336 256 L 322 266 L 340 297 L 357 287"/>
  <path class="p4" d="M 336 256 L 315 225 L 304 236 L 322 266 L 336 256"/>
  <path class="p4" d="M 340 297 L 322 266 L 309 277 L 324 307 L 340 297"/>
  <path class="p4" d="M 322 266 L 304 236 L 293 247 L 309 277 L 322 266"/>
  <path class="p4" d="M 386 500 L 378 467 L 359 469 L 367 500 L 386 500"/>
  <path class="p4" d="M 378 467 L 370 434 L 352 437 L 359 469 L 378 467"/>
  <path class="p4" d="M 367 500 L 359 469 L 341 470 L 349 500 L 367 500"/>
  <path class="p4" d="M 359 469 L 352 437 L 333 441 L 341 470 L 359 469"/>
  <path class="p4" d="M 370 434 L 362 400 L 344 406 L 352 437 L 370 434"/>
  <path class="p4" d="M 362 400 L 354 367 L 336 374 L 344 406 L 362 400"/>
  <path class="p4" d="M 352 437 L 344 406 L 325 411 L 333 441 L 352 437"/>
  <path class="p4" d="M 344 406 L 336 374 L 318 381 L 325 411 L 344 406"/>
  <path class="p4" d="M 349 500 L 341 470 L 322 472 L 330 500 L 349 500"/>
  <path class="p4" d="M 341 470 L 333 441 L 315 444 L 322 472 L 341 470"/>
  <path class="p4" d="M 330 500 L 322 472 L 304 474 L 312 500 L 330 500"/>
  <path class="p4" d="M 322 472 L 315 444 L 296 448 L 304 474 L 322 472"/>
  <path class="p4" d="M 333 441 L 325 411 L 307 416 L 315 444 L 333 441"/>
  <path class="p4" d="M 325 411 L 318 381 L 299 388 L 307 416 L 325 411"/>
  <path class="p4" d="M 315 444 L 307 416 L 288 421 L 296 448 L 315 444"/>
  <path class="p4" d="M 307 416 L 299 388 L 281 395 L 288 421 L 307 416"/>
  <path class="p4" d="M 354 367 L 339 337 L 323 345 L 336 374 L 354 367"/>
  <path class="p4" d="M 339 337 L 324 307 L 309 316 L 323 345 L 339 337"/>
  <path class="p4" d="M 336 374 L 323 345 L 306 353 L 318 381 L 336 374"/>
  <path class="p4" d="M 323 345 L 309 316 L 295 325 L 306 353 L 323 345"/>
  <path class="p4" d="M 324 307 L 309 277 L 296 287 L 309 316 L 324 307"/>
  <path class="p4" d="M 309 277 L 293 247 L 283 257 L 296 287 L 309 277"/>
  <path class="p4" d="M 309 316 L 296 287 L 283 296 L 295 325 L 309 316"/>
  <path class="p4" d="M 296 287 L 283 257 L 272 268 L 283 296 L 296 287"/>
  <path class="p4" d="M 318 381 L 306 353 L 290 361 L 299 388 L 318 381"/>
  <path class="p4" d="M 306 353 L 295 325 L 280 334 L 290 361 L 306 353"/>
  <path class="p4" d="M 299 388 L 290 361 L 273 369 L 281 395 L 299 388"/>
  <path class="p4" d="M 290 361 L 280 334 L 265 343 L 273 369 L 290 361"/>
  <path class="p4" d="M 295 325 L 283 296 L 270 306 L 280 334 L 295 325"/>
  <path class="p4" d="M 283 296 L 272 268 L 261 279 L 270 306 L 283 296"/>
  <path class="p4" d="M 280 334 L 270 306 L 258 316 L 265 343 L 280 334"/>
  <path class="p4" d="M 270 306 L 261 279 L 250 290 L 258 316 L 270 306"/>
  <path class="p4" d="M 250 710 L 258 684 L 246 674 L 239 699 L 250 710"/>
  <path class="p4" d="M 258 684 L 265 658 L 253 649 L 246 674 L 258 684"/>
  <path class="p4" d="M 239 699 L 246 674 L 234 665 L 228 688 L 239 699"/>
  <path class="p4" d="M 246 674 L 253 649 L 240 641 L 234 665 L 246 674"/>
  <path class="p4" d="M 265 658 L 273 631 L 259 624 L 253 649 L 265 658"/>
  <path class="p4" d="M 273 631 L 281 605 L 266 600 L 259 624 L 273 631"/>
  <path class="p4" d="M 253 649 L 259 624 L 246 618 L 240 641 L 253 649"/>
  <path class="p4" d="M 259 624 L 266 600 L 251 594 L 246 618 L 259 624"/>
  <path class="p4" d="M 228 688 L 234 665 L 222 655 L 217 677 L 228 688"/>
  <path class="p4" d="M 234 665 L 240 641 L 227 633 L 222 655 L 234 665"/>
  <path class="p4" d="M 217 677 L 222 655 L 210 646 L 207 667 L 217 677"/>
  <path class="p4" d="M 222 655 L 227 633 L 214 625 L 210 646 L 222 655"/>
  <path class="p4" d="M 240 641 L 246 618 L 232 611 L 227 633 L 240 641"/>
  <path class="p4" d="M 246 618 L 251 594 L 237 589 L 232 611 L 246 618"/>
  <path class="p4" d="M 227 633 L 232 611 L 218 604 L 214 625 L 227 633"/>
  <path class="p4" d="M 232 611 L 237 589 L 222 583 L 218 604 L 232 611"/>
  <path class="p4" d="M 281 605 L 288 579 L 273 575 L 266 600 L 281 605"/>
  <path class="p4" d="M 288 579 L 296 553 L 279 550 L 273 575 L 288 579"/>
  <path class="p4" d="M 266 600 L 273 575 L 257 571 L 251 594 L 266 600"/>
  <path class="p4" d="M 273 575 L 279 550 L 263 547 L 257 571 L 273 575"/>
  <path class="p4" d="M 296 553 L 304 526 L 286 525 L 279 550 L 296 553"/>
  <path class="p4" d="M 304 526 L 312 500 L 293 500 L 286 525 L 304 526"/>
  <path class="p4" d="M 279 550 L 286 525 L 269 524 L 263 547 L 279 550"/>
  <path class="p4" d="M 286 525 L 293 500 L 274 500 L 269 524 L 286 525"/>
  <path class="p4" d="M 251 594 L 257 571 L 241 567 L 237 589 L 251 594"/>
  <path class="p4" d="M 257 571 L 263 547 L 246 544 L 241 567 L 257 571"/>
  <path class="p4" d="M 237 589 L 241 567 L 226 562 L 222 583 L 237 589"/>
  <path class="p4" d="M 241 567 L 246 544 L 230 542 L 226 562 L 241 567"/>
  <path class="p4" d="M 263 547 L 269 524 L 251 522 L 246 544 L 263 547"/>
  <path class="p4" d="M 269 524 L 274 500 L 256 500 L 251 522 L 269 524"/>
  <path class="p4" d="M 246 544 L 251 522 L 233 521 L 230 542 L 246 544"/>
  <path class="p4" d="M 251 522 L 256 500 L 237 500 L 233 521 L 251 522"/>
  <path class="p4" d="M 207 667 L 210 646 L 199 636 L 196 656 L 207 667"/>
  <path class="p4" d="M 210 646 L 214 625 L 201 617 L 199 636 L 210 646"/>
  <path class="p4" d="M 196 656 L 199 636 L 187 627 L 185 645 L 196 656"/>
  <path class="p4" d="M 199 636 L 201 617 L 189 609 L 187 627 L 199 636"/>
  <path class="p4" d="M 214 625 L 218 604 L 204 597 L 201 617 L 214 625"/>
  <path class="p4" d="M 218 604 L 222 583 L 207 578 L 204 597 L 218 604"/>
  <path class="p4" d="M 201 617 L 204 597 L 191 590 L 189 609 L 201 617"/>
  <path class="p4" d="M 204 597 L 207 578 L 192 572 L 191 590 L 204 597"/>
  <path class="p4" d="M 185 645 L 187 627 L 175 617 L 174 634 L 185 645"/>
  <path class="p4" d="M 187 627 L 189 609 L 176 600 L 175 617 L 187 627"/>
  <path class="p4" d="M 174 634 L 175 617 L 163 608 L 163 623 L 174 634"/>
  <path class="p4" d="M 175 617 L 176 600 L 163 592 L 163 608 L 175 617"/>
  <path class="p4" d="M 189 609 L 191 590 L 177 584 L 176 600 L 189 609"/>
  <path class="p4" d="M 191 590 L 192 572 L 178 567 L 177 584 L 191 590"/>
  <path class="p4" d="M 176 600 L 177 584 L 163 577 L 163 592 L 176 600"/>
  <path class="p4" d="M 177 584 L 178 567 L 163 562 L 163 577 L 177 584"/>
  <path class="p4" d="M 222 583 L 226 562 L 210 558 L 207 578 L 222 583"/>
  <path class="p4" d="M 226 562 L 230 542 L 213 539 L 210 558 L 226 562"/>
  <path class="p4" d="M 207 578 L 210 558 L 194 554 L 192 572 L 207 578"/>
  <path class="p4" d="M 210 558 L 213 539 L 196 536 L 194 554 L 210 558"/>
  <path class="p4" d="M 230 542 L 233 521 L 216 519 L 213 539 L 230 542"/>
  <path class="p4" d="M 233 521 L 237 500 L 219 500 L 216 519 L 233 521"/>
  <path class="p4" d="M 213 539 L 216 519 L 198 518 L 196 536 L 213 539"/>
  <path class="p4" d="M 216 519 L 219 500 L 200 500 L 198 518 L 216 519"/>
  <path class="p4" d="M 192 572 L 194 554 L 179 550 L 178 567 L 192 572"/>
  <path class="p4" d="M 194 554 L 196 536 L 180 533 L 179 550 L 194 554"/>
  <path class="p4" d="M 178 567 L 179 550 L 163 546 L 163 562 L 178 567"/>
  <path class="p4" d="M 179 550 L 180 533 L 163 531 L 163 546 L 179 550"/>
  <path class="p4" d="M 196 536 L 198 518 L 181 517 L 180 533 L 196 536"/>
  <path class="p4" d="M 198 518 L 200 500 L 182 500 L 181 517 L 198 518"/>
  <path class="p4" d="M 180 533 L 181 517 L 163 515 L 163 531 L 180 533"/>
  <path class="p4" d="M 181 517 L 182 500 L 163 500 L 163 515 L 181 517"/>
  <path class="p4" d="M 312 500 L 304 474 L 286 475 L 293 500 L 312 500"/>
  <path class="p4" d="M 304 474 L 296 448 L 279 450 L 286 475 L 304 474"/>
  <path class="p4" d="M 293 500 L 286 475 L 269 476 L 274 500 L 293 500"/>
  <path class="p4" d="M 286 475 L 279 450 L 263 453 L 269 476 L 286 475"/>
  <path class="p4" d="M 296 448 L 288 421 L 273 425 L 279 450 L 296 448"/>
  <path class="p4" d="M 288 421 L 281 395 L 266 400 L 273 425 L 288 421"/>
  <path class="p4" d="M 279 450 L 273 425 L 257 429 L 263 453 L 279 450"/>
  <path class="p4" d="M 273 425 L 266 400 L 251 406 L 257 429 L 273 425"/>
  <path class="p4" d="M 274 500 L 269 476 L 251 478 L 256 500 L 274 500"/>
  <path class="p4" d="M 269 476 L 263 453 L 246 456 L 251 478 L 269 476"/>
  <path class="p4" d="M 256 500 L 251 478 L 233 479 L 237 500 L 256 500"/>
  <path class="p4" d="M 251 478 L 246 456 L 230 458 L 233 479 L 251 478"/>
  <path class="p4" d="M 263 453 L 257 429 L 241 433 L 246 456 L 263 453"/>
  <path class="p4" d="M 257 429 L 251 406 L 237 411 L 241 433 L 257 429"/>
  <path class="p4" d="M 246 456 L 241 433 L 226 438 L 230 458 L 246 456"/>
  <path class="p4" d="M 241 433 L 237 411 L 222 417 L 226 438 L 241 433"/>
  <path class="p4" d="M 281 395 L 273 369 L 259 376 L 266 400 L 281 395"/>
  <path class="p4" d="M 273 369 L 265 343 L 253 351 L 259 376 L 273 369"/>
  <path class="p4" d="M 266 400 L 259 376 L 246 382 L 251 406 L 266 400"/>
  <path class="p4" d="M 259 376 L 253 351 L 240 359 L 246 382 L 259 376"/>
  <path class="p4" d="M 265 343 L 258 316 L 246 326 L 253 351 L 265 343"/>
  <path class="p4" d="M 258 316 L 250 290 L 239 301 L 246 326 L 258 316"/>
  <path class="p4" d="M 253 351 L 246 326 L 234 335 L 240 359 L 253 351"/>
  <path class="p4" d="M 246 326 L 239 301 L 228 312 L 234 335 L 246 326"/>
  <path class="p4" d="M 251 406 L 246 382 L 232 389 L 237 411 L 251 406"/>
  <path class="p4" d="M 246 382 L 240 359 L 227 367 L 232 389 L 246 382"/>
  <path class="p4" d="M 237 411 L 232 389 L 218 396 L 222 417 L 237 411"/>
  <path class="p4" d="M 232 389 L 227 367 L 214 375 L 218 396 L 232 389"/>
  <path class="p4" d="M 240 359 L 234 335 L 222 345 L 227 367 L 240 359"/>
  <path class="p4" d="M 234 335 L 228 312 L 217 323 L 222 345 L 234 335"/>
  <path class="p4" d="M 227 367 L 222 345 L 210 354 L 214 375 L 227 367"/>
  <path class="p4" d="M 222 345 L 217 323 L 207 333 L 210 354 L 222 345"/>
  <path class="p4" d="M 237 500 L 233 479 L 216 481 L 219 500 L 237 500"/>
  <path class="p4" d="M 233 479 L 230 458 L 213 461 L 216 481 L 233 479"/>
  <path class="p4" d="M 219 500 L 216 481 L 198 482 L 200 500 L 219 500"/>
  <path class="p4" d="M 216 481 L 213 461 L 196 464 L 198 482 L 216 481"/>
  <path class="p4" d="M 230 458 L 226 438 L 210 442 L 213 461 L 230 458"/>
  <path class="p4" d="M 226 438 L 222 417 L 207 422 L 210 442 L 226 438"/>
  <path class="p4" d="M 213 461 L 210 442 L 194 446 L 196 464 L 213 461"/>
  <path class="p4" d="M 210 442 L 207 422 L 192 428 L 194 446 L 210 442"/>
  <path class="p4" d="M 200 500 L 198 482 L 181 483 L 182 500 L 200 500"/>
  <path class="p4" d="M 198 482 L 196 464 L 180 467 L 181 483 L 198 482"/>
  <path class="p4" d="M 182 500 L 181 483 L 163 485 L 163 500 L 182 500"/>
  <path class="p4" d="M 181 483 L 180 467 L 163 469 L 163 485 L 181 483"/>
  <path class="p4" d="M 196 464 L 194 446 L 179 450 L 180 467 L 196 464"/>
  <path class="p4" d="M 194 446 L 192 428 L 178 433 L 179 450 L 194 446"/>
  <path class="p4" d="M 180 467 L 179 450 L 163 454 L 163 469 L 180 467"/>
  <path class="p4" d="M 179 450 L 178 433 L 163 438 L 163 454 L 179 450"/>
  <path class="p4" d="M 222 417 L 218 396 L 204 403 L 207 422 L 222 417"/>
  <path class="p4" d="M 218 396 L 214 375 L 201 383 L 204 403 L 218 396"/>
  <path class="p4" d="M 207 422 L 204 403 L 191 410 L 192 428 L 207 422"/>
  <path class="p4" d="M 204 403 L 201 383 L 189 391 L 191 410 L 204 403"/>
  <path class="p4" d="M 214 375 L 210 354 L 199 364 L 201 383 L 214 375"/>
  <path class="p4" d="M 210 354 L 207 333 L 196 344 L 199 364 L 210 354"/>
  <path class="p4" d="M 201 383 L 199 364 L 187 373 L 189 391 L 201 383"/>
  <path class="p4" d="M 199 364 L 196 344 L 185 355 L 187 373 L 199 364"/>
  <path class="p4" d="M 192 428 L 191 410 L 177 416 L 178 433 L 192 428"/>
  <path class="p4" d="M 191 410 L 189 391 L 176 400 L 177 416 L 191 410"/>
  <path class="p4" d="M 178 433 L 177 416 L 163 423 L 163 438 L 178 433"/>
  <path class="p4" d="M 177 416 L 176 400 L 163 408 L 163 423 L 177 416"/>
  <path class="p4" d="M 189 391 L 187 373 L 175 383 L 176 400 L 189 391"/>
  <path class="p4" d="M 187 373 L 185 355 L 174 366 L 175 383 L 187 373"/>
  <path class="p4" d="M 176 400 L 175 383 L 163 392 L 163 408 L 176 400"/>
  <path class="p4" d="M 175 383 L 174 366 L 163 377 L 163 392 L 175 383"/>
  <path class="p4" d="M 40 80 L 40 99 L 60 100 L 61 81 L 40 80"/>
  <line x1="40" y1="80" x2="61" y2="81"/>
  <line x1="40" y1="80" x2="40" y2="99"/>
  <path class="p4" d="M 40 99 L 40 117 L 59 119 L 60 100 L 40 99"/>
  <line x1="40" y1="99" x2="40" y2="117"/>
  <path class="p4" d="M 61 81 L 60 100 L 79 101 L 81 82 L 61 81"/>
  <line x1="61" y1="81" x2="81" y2="82"/>
  <path class="p4" d="M 60 100 L 59 119 L 78 120 L 79 101 L 60 100"/>
  <path class="p4" d="M 40 117 L 40 136 L 58 137 L 59 119 L 40 117"/>
  <line x1="40" y1="117" x2="40" y2="136"/>
  <path class="p4" d="M 40 136 L 40 154 L 57 156 L 58 137 L 40 136"/>
  <line x1="40" y1="136" x2="40" y2="154"/>
  <path class="p4" d="M 59 119 L 58 137 L 76 139 L 78 120 L 59 119"/>
  <path class="p4" d="M 58 137 L 57 156 L 74 158 L 76 139 L 58 137"/>
  <path class="p4" d="M 81 82 L 79 101 L 99 104 L 102 85 L 81 82"/>
  <line x1="81" y1="82" x2="102" y2="85"/>
  <path class="p4" d="M 79 101 L 78 120 L 97 123 L 99 104 L 79 101"/>
  <path class="p4" d="M 102 85 L 99 104 L 119 107 L 122 88 L 102 85"/>
  <line x1="102" y1="85" x2="122" y2="88"/>
  <path class="p4" d="M 99 104 L 97 123 L 115 125 L 119 107 L 99 104"/>
  <path class="p4" d="M 78 120 L 76 139 L 94 141 L 97 123 L 78 120"/>
  <path class="p4" d="M 76 139 L 74 158 L 92 160 L 94 141 L 76 139"/>
  <path class="p4" d="M 97 123 L 94 141 L 112 144 L 115 125 L 97 123"/>
  <path class="p4" d="M 94 141 L 92 160 L 109 162 L 112 144 L 94 141"/>
  <path class="p4" d="M 40 154 L 40 173 L 56 175 L 57 156 L 40 154"/>
  <line x1="40" y1="154" x2="40" y2="173"/>
  <path class="p4" d="M 40 173 L 40 191 L 56 193 L 56 175 L 40 173"/>
  <line x1="40" y1="173" x2="40" y2="191"/>
  <path class="p4" d="M 57 156 L 56 175 L 73 177 L 74 158 L 57 156"/>
  <path class="p4" d="M 56 175 L 56 193 L 71 195 L 73 177 L 56 175"/>
  <path class="p4" d="M 40 191 L 40 210 L 55 212 L 56 193 L 40 191"/>
  <line x1="40" y1="191" x2="40" y2="210"/>
  <path class="p4" d="M 40 210 L 40 228 L 54 230 L 55 212 L 40 210"/>
  <line x1="40" y1="210" x2="40" y2="228"/>
  <path class="p4" d="M 56 193 L 55 212 L 69 214 L 71 195 L 56 193"/>
  <path class="p4" d="M 55 212 L 54 230 L 68 232 L 69 214 L 55 212"/>
  <path class="p4" d="M 74 158 L 73 177 L 89 179 L 92 160 L 74 158"/>
  <path class="p4" d="M 73 177 L 71 195 L 87 197 L 89 179 L 73 177"/>
  <path class="p4" d="M 92 160 L 89 179 L 105 181 L 109 162 L 92 160"/>
  <path class="p4" d="M 89 179 L 87 197 L 102 199 L 105 181 L 89 179"/>
  <path class="p4" d="M 71 195 L 69 214 L 84 216 L 87 197 L 71 195"/>
  <path class="p4" d="M 69 214 L 68 232 L 82 234 L 84 216 L 69 214"/>
  <path class="p4" d="M 87 197 L 84 216 L 99 218 L 102 199 L 87 197"/>
  <path class="p4" d="M 84 216 L 82 234 L 96 236 L 99 218 L 84 216"/>
  <path class="p4" d="M 122 88 L 119 107 L 138 111 L 142 93 L 122 88"/>
  <line x1="122" y1="88" x2="142" y2="93"/>
  <path class="p4" d="M 119 107 L 115 125 L 134 130 L 138 111 L 119 107"/>
  <path class="p4" d="M 142 93 L 138 111 L 157 116 L 162 98 L 142 93"/>
  <line x1="142" y1="93" x2="162" y2="98"/>
  <path class="p4" d="M 138 111 L 134 130 L 152 134 L 157 116 L 138 111"/>
  <path class="p4" d="M 115 125 L 112 144 L 130 148 L 134 130 L 115 125"/>
  <path class="p4" d="M 112 144 L 109 162 L 126 166 L 130 148 L 112 144"/>
  <path class="p4" d="M 134 130 L 130 148 L 147 152 L 152 134 L 134 130"/>
  <path class="p4" d="M 130 148 L 126 166 L 142 170 L 147 152 L 130 148"/>
  <path class="p4" d="M 162 98 L 157 116 L 176 122 L 181 105 L 162 98"/>
  <line x1="162" y1="98" x2="181" y2="105"/>
  <path class="p4" d="M 157 116 L 152 134 L 170 140 L 176 122 L 157 116"/>
  <path class="p4" d="M 181 105 L 176 122 L 195 129 L 201 112 L 181 105"/>
  <line x1="181" y1="105" x2="201" y2="112"/>
  <path class="p4" d="M 176 122 L 170 140 L 188 145 L 195 129 L 176 122"/>
  <path class="p4" d="M 152 134 L 147 152 L 165 157 L 170 140 L 152 134"/>
  <path class="p4" d="M 147 152 L 142 170 L 159 174 L 165 157 L 147 152"/>
  <path class="p4" d="M 170 140 L 165 157 L 182 162 L 188 145 L 170 140"/>
  <path class="p4" d="M 165 157 L 159 174 L 176 178 L 182 162 L 165 157"/>
  <path class="p4" d="M 109 162 L 105 181 L 122 184 L 126 166 L 109 162"/>
  <path class="p4" d="M 105 181 L 102 199 L 117 202 L 122 184 L 105 181"/>
  <path class="p4" d="M 126 166 L 122 184 L 138 188 L 142 170 L 126 166"/>
  <path class="p4" d="M 122 184 L 117 202 L 133 205 L 138 188 L 122 184"/>
  <path class="p4" d="M 102 199 L 99 218 L 113 220 L 117 202 L 102 199"/>
  <path class="p4" d="M 99 218 L 96 236 L 109 238 L 113 220 L 99 218"/>
  <path class="p4" d="M 117 202 L 113 220 L 128 223 L 133 205 L 117 202"/>
  <path class="p4" d="M 113 220 L 109 238 L 123 240 L 128 223 L 113 220"/>
  <path class="p4" d="M 142 170 L 138 188 L 154 191 L 159 174 L 142 170"/>
  <path class="p4" d="M 138 188 L 133 205 L 148 208 L 154 191 L 138 188"/>
  <path class="p4" d="M 159 174 L 154 191 L 170 195 L 176 178 L 159 174"/>
  <path class="p4" d="M 154 191 L 148 208 L 164 211 L 170 195 L 154 191"/>
  <path class="p4" d="M 133 205 L 128 223 L 143 225 L 148 208 L 133 205"/>
  <path class="p4" d="M 128 223 L 123 240 L 137 242 L 143 225 L 128 223"/>
  <path class="p4" d="M 148 208 L 143 225 L 157 228 L 164 211 L 148 208"/>
  <path class="p4" d="M 143 225 L 137 242 L 151 244 L 157 228 L 143 225"/>
  <path class="p4" d="M 40 228 L 40 247 L 53 249 L 54 230 L 40 228"/>
  <line x1="40" y1="228" x2="40" y2="247"/>
  <path class="p4" d="M 40 247 L 40 266 L 52 267 L 53 249 L 40 247"/>
  <line x1="40" y1="247" x2="40" y2="266"/>
  <path class="p4" d="M 54 230 L 53 249 L 66 251 L 68 232 L 54 230"/>
  <path class="p4" d="M 53 249 L 52 267 L 65 269 L 66 251 L 53 249"/>
  <path class="p4" d="M 40 266 L 40 284 L 52 285 L 52 267 L 40 266"/>
  <line x1="40" y1="266" x2="40" y2="284"/>
  <path class="p4" d="M 40 284 L 40 303 L 51 304 L 52 285 L 40 284"/>
  <line x1="40" y1="284" x2="40" y2="303"/>
  <path class="p4" d="M 52 267 L 52 285 L 63 287 L 65 269 L 52 267"/>
  <path class="p4" d="M 52 285 L 51 304 L 62 305 L 63 287 L 52 285"/>
  <path class="p4" d="M 68 232 L 66 251 L 79 252 L 82 234 L 68 232"/>
  <path class="p4" d="M 66 251 L 65 269 L 77 270 L 79 252 L 66 251"/>
  <path class="p4" d="M 82 234 L 79 252 L 92 254 L 96 236 L 82 234"/>
  <path class="p4" d="M 79 252 L 77 270 L 89 272 L 92 254 L 79 252"/>
  <path class="p4" d="M 65 269 L 63 287 L 75 288 L 77 270 L 65 269"/>
  <path class="p4" d="M 63 287 L 62 305 L 72 306 L 75 288 L 63 287"/>
  <path class="p4" d="M 77 270 L 75 288 L 86 289 L 89 272 L 77 270"/>
  <path class="p4" d="M 75 288 L 72 306 L 83 307 L 86 289 L 75 288"/>
  <path class="p4" d="M 40 303 L 40 321 L 50 322 L 51 304 L 40 303"/>
  <line x1="40" y1="303" x2="40" y2="321"/>
  <path class="p4" d="M 40 321 L 40 340 L 49 340 L 50 322 L 40 321"/>
  <line x1="40" y1="321" x2="40" y2="340"/>
  <path class="p4" d="M 51 304 L 50 322 L 60 323 L 62 305 L 51 304"/>
  <path class="p4" d="M 50 322 L 49 340 L 58 341 L 60 323 L 50 322"/>
  <path class="p4" d="M 40 340 L 40 358 L 48 359 L 49 340 L 40 340"/>
  <line x1="40" y1="340" x2="40" y2="358"/>
  <path class="p4" d="M 40 358 L 40 377 L 48 377 L 48 359 L 40 358"/>
  <line x1="40" y1="358" x2="40" y2="377"/>
  <path class="p4" d="M 49 340 L 48 359 L 57 359 L 58 341 L 49 340"/>
  <path class="p4" d="M 48 359 L 48 377 L 55 377 L 57 359 L 48 359"/>
  <path class="p4" d="M 62 305 L 60 323 L 70 324 L 72 306 L 62 305"/>
  <path class="p4" d="M 60 323 L 58 341 L 68 341 L 70 324 L 60 323"/>
  <path class="p4" d="M 72 306 L 70 324 L 80 324 L 83 307 L 72 306"/>
  <path class="p4" d="M 70 324 L 68 341 L 77 342 L 80 324 L 70 324"/>
  <path class="p4" d="M 58 341 L 57 359 L 65 359 L 68 341 L 58 341"/>
  <path class="p4" d="M 57 359 L 55 377 L 63 377 L 65 359 L 57 359"/>
  <path class="p4" d="M 68 341 L 65 359 L 74 359 L 77 342 L 68 341"/>
  <path class="p4" d="M 65 359 L 63 377 L 71 377 L 74 359 L 65 359"/>
  <path class="p4" d="M 96 236 L 92 254 L 106 256 L 109 238 L 96 236"/>
  <path class="p4" d="M 92 254 L 89 272 L 102 273 L 106 256 L 92 254"/>
  <path class="p4" d="M 109 238 L 106 256 L 119 258 L 123 240 L 109 238"/>
  <path class="p4" d="M 106 256 L 102 273 L 114 275 L 119 258 L 106 256"/>
  <path class="p4" d="M 89 272 L 86 289 L 98 290 L 102 273 L 89 272"/>
  <path class="p4" d="M 86 289 L 83 307 L 94 308 L 98 290 L 86 289"/>
  <path class="p4" d="M 102 273 L 98 290 L 109 292 L 114 275 L 102 273"/>
  <path class="p4" d="M 98 290 L 94 308 L 105 309 L 109 292 L 98 290"/>
  <path class="p4" d="M 123 240 L 119 258 L 132 259 L 137 242 L 123 240"/>
  <path class="p4" d="M 119 258 L 114 275 L 126 276 L 132 259 L 119 258"/>
  <path class="p4" d="M 137 242 L 132 259 L 145 261 L 151 244 L 137 242"/>
  <path class="p4" d="M 132 259 L 126 276 L 139 278 L 145 261 L 132 259"/>
  <path class="p4" d="M 114 275 L 109 292 L 121 293 L 126 276 L 114 275"/>
  <path class="p4" d="M 109 292 L 105 309 L 116 310 L 121 293 L 109 292"/>
  <path class="p4" d="M 126 276 L 121 293 L 133 294 L 139 278 L 126 276"/>
  <path class="p4" d="M 121 293 L 116 310 L 126 311 L 133 294 L 121 293"/>
  <path class="p4" d="M 83 307 L 80 324 L 90 325 L 94 308 L 83 307"/>
  <path class="p4" d="M 80 324 L 77 342 L 86 342 L 90 325 L 80 324"/>
  <path class="p4" d="M 94 308 L 90 325 L 100 326 L 105 309 L 94 308"/>
  <path class="p4" d="M 90 325 L 86 342 L 95 343 L 100 326 L 90 325"/>
  <path class="p4" d="M 77 342 L 74 359 L 82 360 L 86 342 L 77 342"/>
  <path class="p4" d="M 74 359 L 71 377 L 78 377 L 82 360 L 74 359"/>
  <path class="p4" d="M 86 342 L 82 360 L 91 360 L 95 343 L 86 342"/>
  <path class="p4" d="M 82 360 L 78 377 L 86 377 L 91 360 L 82 360"/>
  <path class="p4" d="M 105 309 L 100 326 L 110 327 L 116 310 L 105 309"/>
  <path class="p4" d="M 100 326 L 95 343 L 105 343 L 110 327 L 100 326"/>
  <path class="p4" d="M 116 310 L 110 327 L 120 327 L 126 311 L 116 310"/>
  <path class="p4" d="M 110 327 L 105 343 L 114 344 L 120 327 L 110 327"/>
  <path class="p4" d="M 95 343 L 91 360 L 99 360 L 105 343 L 95 343"/>
  <path class="p4" d="M 91 360 L 86 377 L 94 377 L 99 360 L 91 360"/>
  <path class="p4" d="M 105 343 L 99 360 L 108 360 L 114 344 L 105 343"/>
  <path class="p4" d="M 99 360 L 94 377 L 102 377 L 108 360 L 99 360"/>
  <path class="p4" d="M 201 112 L 195 129 L 212 137 L 220 120 L 201 112"/>
  <line x1="201" y1="112" x2="220" y2="120"/>
  <path class="p4" d="M 195 129 L 188 145 L 205 153 L 212 137 L 195 129"/>
  <path class="p4" d="M 220 120 L 212 137 L 230 146 L 238 130 L 220 120"/>
  <line x1="220" y1="120" x2="238" y2="130"/>
  <path class="p4" d="M 212 137 L 205 153 L 222 162 L 230 146 L 212 137"/>
  <path class="p4" d="M 188 145 L 182 162 L 198 170 L 205 153 L 188 145"/>
  <path class="p4" d="M 182 162 L 176 178 L 191 186 L 198 170 L 182 162"/>
  <path class="p4" d="M 205 153 L 198 170 L 214 178 L 222 162 L 205 153"/>
  <path class="p4" d="M 198 170 L 191 186 L 206 194 L 214 178 L 198 170"/>
  <path class="p4" d="M 238 130 L 230 146 L 247 155 L 256 140 L 238 130"/>
  <line x1="238" y1="130" x2="256" y2="140"/>
  <path class="p4" d="M 230 146 L 222 162 L 239 171 L 247 155 L 230 146"/>
  <path class="p4" d="M 256 140 L 247 155 L 264 165 L 273 151 L 256 140"/>
  <line x1="256" y1="140" x2="273" y2="151"/>
  <path class="p4" d="M 247 155 L 239 171 L 255 180 L 264 165 L 247 155"/>
  <path class="p4" d="M 222 162 L 214 178 L 230 186 L 239 171 L 222 162"/>
  <path class="p4" d="M 214 178 L 206 194 L 222 201 L 230 186 L 214 178"/>
  <path class="p4" d="M 239 171 L 230 186 L 246 194 L 255 180 L 239 171"/>
  <path class="p4" d="M 230 186 L 222 201 L 237 209 L 246 194 L 230 186"/>
  <path class="p4" d="M 176 178 L 170 195 L 184 202 L 191 186 L 176 178"/>
  <path class="p4" d="M 170 195 L 164 211 L 177 218 L 184 202 L 170 195"/>
  <path class="p4" d="M 191 186 L 184 202 L 199 209 L 206 194 L 191 186"/>
  <path class="p4" d="M 184 202 L 177 218 L 191 225 L 199 209 L 184 202"/>
  <path class="p4" d="M 164 211 L 157 228 L 170 234 L 177 218 L 164 211"/>
  <path class="p4" d="M 157 228 L 151 244 L 163 250 L 170 234 L 157 228"/>
  <path class="p4" d="M 177 218 L 170 234 L 183 240 L 191 225 L 177 218"/>
  <path class="p4" d="M 170 234 L 163 250 L 176 256 L 183 240 L 170 234"/>
  <path class="p4" d="M 206 194 L 199 209 L 213 216 L 222 201 L 206 194"/>
  <path class="p4" d="M 199 209 L 191 225 L 205 231 L 213 216 L 199 209"/>
  <path class="p4" d="M 222 201 L 213 216 L 228 224 L 237 209 L 222 201"/>
  <path class="p4" d="M 213 216 L 205 231 L 219 238 L 228 224 L 213 216"/>
  <path class="p4" d="M 191 225 L 183 240 L 197 246 L 205 231 L 191 225"/>
  <path class="p4" d="M 183 240 L 176 256 L 188 262 L 197 246 L 183 240"/>
  <path class="p4" d="M 205 231 L 197 246 L 210 253 L 219 238 L 205 231"/>
  <path class="p4" d="M 197 246 L 188 262 L 201 267 L 210 253 L 197 246"/>
  <path class="p4" d="M 273 151 L 264 165 L 280 177 L 290 163 L 273 151"/>
  <line x1="273" y1="151" x2="290" y2="163"/>
  <path class="p4" d="M 264 165 L 255 180 L 270 191 L 280 177 L 264 165"/>
  <path class="p4" d="M 290 163 L 280 177 L 296 188 L 306 175 L 290 163"/>
  <line x1="290" y1="163" x2="306" y2="175"/>
  <path class="p4" d="M 280 177 L 270 191 L 286 202 L 296 188 L 280 177"/>
  <path class="p4" d="M 255 180 L 246 194 L 261 205 L 270 191 L 255 180"/>
  <path class="p4" d="M 246 194 L 237 209 L 251 218 L 261 205 L 246 194"/>
  <path class="p4" d="M 270 191 L 261 205 L 276 215 L 286 202 L 270 191"/>
  <path class="p4" d="M 261 205 L 251 218 L 265 228 L 276 215 L 261 205"/>
  <path class="p4" d="M 306 175 L 296 188 L 311 201 L 322 189 L 306 175"/>
  <line x1="306" y1="175" x2="322" y2="189"/>
  <path class="p4" d="M 296 188 L 286 202 L 301 213 L 311 201 L 296 188"/>
  <path class="p4" d="M 322 189 L 311 201 L 326 214 L 337 203 L 322 189"/>
  <line x1="322" y1="189" x2="337" y2="203"/>
  <path class="p4" d="M 311 201 L 301 213 L 315 225 L 326 214 L 311 201"/>
  <path class="p4" d="M 286 202 L 276 215 L 290 225 L 301 213 L 286 202"/>
  <path class="p4" d="M 276 215 L 265 228 L 279 237 L 290 225 L 276 215"/>
  <path class="p4" d="M 301 213 L 290 225 L 304 236 L 315 225 L 301 213"/>
  <path class="p4" d="M 290 225 L 279 237 L 293 247 L 304 236 L 290 225"/>
  <path class="p4" d="M 237 209 L 228 224 L 242 232 L 251 218 L 237 209"/>
  <path class="p4" d="M 228 224 L 219 238 L 232 246 L 242 232 L 228 224"/>
  <path class="p4" d="M 251 218 L 242 232 L 255 240 L 265 228 L 251 218"/>
  <path class="p4" d="M 242 232 L 232 246 L 245 253 L 255 240 L 242 232"/>
  <path class="p4" d="M 219 238 L 210 253 L 222 259 L 232 246 L 219 238"/>
  <path class="p4" d="M 210 253 L 201 267 L 213 273 L 222 259 L 210 253"/>
  <path class="p4" d="M 232 246 L 222 259 L 235 266 L 245 253 L 232 246"/>
  <path class="p4" d="M 222 259 L 213 273 L 225 279 L 235 266 L 222 259"/>
  <path class="p4" d="M 265 228 L 255 240 L 269 249 L 279 237 L 265 228"/>
  <path class="p4" d="M 255 240 L 245 253 L 258 261 L 269 249 L 255 240"/>
  <path class="p4" d="M 279 237 L 269 249 L 283 257 L 293 247 L 279 237"/>
  <path class="p4" d="M 269 249 L 258 261 L 272 268 L 283 257 L 269 249"/>
  <path class="p4" d="M 245 253 L 235 266 L 248 273 L 258 261 L 245 253"/>
  <path class="p4" d="M 235 266 L 225 279 L 238 284 L 248 273 L 235 266"/>
  <path class="p4" d="M 258 261 L 248 273 L 261 279 L 272 268 L 258 261"/>
  <path class="p4" d="M 248 273 L 238 284 L 250 290 L 261 279 L 248 273"/>
  <path class="p4" d="M 151 244 L 145 261 L 157 266 L 163 250 L 151 244"/>
  <path class="p4" d="M 145 261 L 139 278 L 150 282 L 157 266 L 145 261"/>
  <path class="p4" d="M 163 250 L 157 266 L 168 271 L 176 256 L 163 250"/>
  <path class="p4" d="M 157 266 L 150 282 L 161 286 L 168 271 L 157 266"/>
  <path class="p4" d="M 139 278 L 133 294 L 143 298 L 150 282 L 139 278"/>
  <path class="p4" d="M 133 294 L 126 311 L 136 314 L 143 298 L 133 294"/>
  <path class="p4" d="M 150 282 L 143 298 L 154 301 L 161 286 L 150 282"/>
  <path class="p4" d="M 143 298 L 136 314 L 146 316 L 154 301 L 143 298"/>
  <path class="p4" d="M 176 256 L 168 271 L 180 276 L 188 262 L 176 256"/>
  <path class="p4" d="M 168 271 L 161 286 L 172 290 L 180 276 L 168 271"/>
  <path class="p4" d="M 188 262 L 180 276 L 192 281 L 201 267 L 188 262"/>
  <path class="p4" d="M 180 276 L 172 290 L 183 295 L 192 281 L 180 276"/>
  <path class="p4" d="M 161 286 L 154 301 L 164 305 L 172 290 L 161 286"/>
  <path class="p4" d="M 154 301 L 146 316 L 156 319 L 164 305 L 154 301"/>
  <path class="p4" d="M 172 290 L 164 305 L 175 308 L 183 295 L 172 290"/>
  <path class="p4" d="M 164 305 L 156 319 L 166 322 L 175 308 L 164 305"/>
  <path class="p4" d="M 126 311 L 120 327 L 130 329 L 136 314 L 126 311"/>
  <path class="p4" d="M 120 327 L 114 344 L 123 345 L 130 329 L 120 327"/>
  <path class="p4" d="M 136 314 L 130 329 L 139 332 L 146 316 L 136 314"/>
  <path class="p4" d="M 130 329 L 123 345 L 132 347 L 139 332 L 130 329"/>
  <path class="p4" d="M 114 344 L 108 360 L 116 361 L 123 345 L 114 344"/>
  <path class="p4" d="M 108 360 L 102 377 L 109 377 L 116 361 L 108 360"/>
  <path class="p4" d="M 123 345 L 116 361 L 124 362 L 132 347 L 123 345"/>
  <path class="p4" d="M 116 361 L 109 377 L 117 377 L 124 362 L 116 361"/>
  <path class="p4" d="M 146 316 L 139 332 L 148 334 L 156 319 L 146 316"/>
  <path class="p4" d="M 139 332 L 132 347 L 140 348 L 148 334 L 139 332"/>
  <path class="p4" d="M 156 319 L 148 334 L 158 336 L 166 322 L 156 319"/>
  <path class="p4" d="M 148 334 L 140 348 L 149 350 L 158 336 L 148 334"/>
  <path class="p4" d="M 132 347 L 124 362 L 133 363 L 140 348 L 132 347"/>
  <path class="p4" d="M 124 362 L 117 377 L 125 377 L 133 363 L 124 362"/>
  <path class="p4" d="M 140 348 L 133 363 L 141 363 L 149 350 L 140 348"/>
  <path class="p4" d="M 133 363 L 125 377 L 132 377 L 141 363 L 133 363"/>
  <path class="p4" d="M 201 267 L 192 281 L 204 286 L 213 273 L 201 267"/>
  <path class="p4" d="M 192 281 L 183 295 L 195 299 L 204 286 L 192 281"/>
  <path class="p4" d="M 213 273 L 204 286 L 216 291 L 225 279 L 213 273"/>
  <path class="p4" d="M 204 286 L 195 299 L 206 303 L 216 291 L 204 286"/>
  <path class="p4" d="M 183 295 L 175 308 L 186 312 L 195 299 L 183 295"/>
  <path class="p4" d="M 175 308 L 166 322 L 176 325 L 186 312 L 175 308"/>
  <path class="p4" d="M 195 299 L 186 312 L 196 316 L 206 303 L 195 299"/>
  <path class="p4" d="M 186 312 L 176 325 L 186 328 L 196 316 L 186 312"/>
  <path class="p4" d="M 225 279 L 216 291 L 227 296 L 238 284 L 225 279"/>
  <path class="p4" d="M 216 291 L 206 303 L 217 307 L 227 296 L 216 291"/>
  <path class="p4" d="M 238 284 L 227 296 L 239 301 L 250 290 L 238 284"/>
  <path class="p4" d="M 227 296 L 217 307 L 228 312 L 239 301 L 227 296"/>
  <path class="p4" d="M 206 303 L 196 316 L 207 319 L 217 307 L 206 303"/>
  <path class="p4" d="M 196 316 L 186 328 L 196 331 L 207 319 L 196 316"/>
  <path class="p4" d="M 217 307 L 207 319 L 217 323 L 228 312 L 217 307"/>
  <path class="p4" d="M 207 319 L 196 331 L 207 333 L 217 323 L 207 319"/>
  <path class="p4" d="M 166 322 L 158 336 L 167 338 L 176 325 L 166 322"/>
  <path class="p4" d="M 158 336 L 149 350 L 158 351 L 167 338 L 158 336"/>
  <path class="p4" d="M 176 325 L 167 338 L 177 340 L 186 328 L 176 325"/>
  <path class="p4" d="M 167 338 L 158 351 L 167 352 L 177 340 L 167 338"/>
  <path class="p4" d="M 149 350 L 141 363 L 149 364 L 158 351 L 149 350"/>
  <path class="p4" d="M 141 363 L 132 377 L 140 377 L 149 364 L 141 363"/>
  <path class="p4" d="M 158 351 L 149 364 L 157 365 L 167 352 L 158 351"/>
  <path class="p4" d="M 149 364 L 140 377 L 148 377 L 157 365 L 149 364"/>
  <path class="p4" d="M 186 328 L 177 340 L 186 342 L 196 331 L 186 328"/>
  <path class="p4" d="M 177 340 L 167 352 L 176 354 L 186 342 L 177 340"/>
  <path class="p4" d="M 196 331 L 186 342 L 196 344 L 207 333 L 196 331"/>
  <path class="p4" d="M 186 342 L 176 354 L 185 355 L 196 344 L 186 342"/>
  <path class="p4" d="M 167 352 L 157 365 L 166 365 L 176 354 L 167 352"/>
  <path class="p4" d="M 157 365 L 148 377 L 155 377 L 166 365 L 157 365"/>
  <path class="p4" d="M 176 354 L 166 365 L 174 366 L 185 355 L 176 354"/>
  <path class="p4" d="M 166 365 L 155 377 L 163 377 L 174 366 L 166 365"/>

</svg>