<svg width="1000" height="1000" xmlns="http://www.w3.org/2000/svg" version="1.1">


<!-- internal style sheet -->
<style type="text/css"><![CDATA[
 rect.background{fill:white}
 rect{fill:none; stroke:rgb(25,25,25); stroke-width:2}
 text{font-family:Helvetica; text-anchor:middle; fill:rgb(25,25,25)}
 line{stroke:rgb(25,25,25); stroke-width:4}
 path{fill:none; stroke:rgb(25,25,25); stroke-width:2}
 circle{fill:white; stroke:black; stroke-width:2}

 path.p0{fill:rgb(0,102,255); stroke:rgb(25,25,25); stroke-width:2}
 path.ps0{fill:rgb(0,77,191); stroke:rgb(20,20,20); stroke-width:2}
 rect.r0{fill:rgb(0,102,255); stroke:rgb(25,25,25); stroke-width:2}
 path.p1{fill:rgb(0,255,178); stroke:rgb(25,25,25); stroke-width:2}
 path.ps1{fill:rgb(0,191,134); stroke:rgb(20,20,20); stroke-width:2}
 rect.r1{fill:rgb(0,255,178); stroke:rgb(25,25,25); stroke-width:2}
 path.p2{fill:rgb(51,255,0); stroke:rgb(25,25,25); stroke-width:2}
 path.ps2{fill:rgb(38,191,0); stroke:rgb(20,20,20); stroke-width:2}
 rect.r2{fill:rgb(51,255,0); stroke:rgb(25,25,25); stroke-width:2}
 path.p3{fill:rgb(255,230,0); stroke:rgb(25,25,25); stroke-width:2}
 path.ps3{fill:rgb(191,173,0); stroke:rgb(20,20,20); stroke-width:2}
 rect.r3{fill:rgb(255,230,0); stroke:rgb(25,25,25); stroke-width:2}
 path.p4{fill:rgb(255,0,0); stroke:rgb(25,25,25); stroke-width:2}
 path.ps4{fill:rgb(191,0,0); stroke:rgb(20,20,20); stroke-width:2}
 rect.r4{fill:rgb(255,0,0); stroke:rgb(25,25,25); stroke-width:2}
]]></style>

 <rect class="background" width="1000" height="1000"/>
  <!-- cells -->
  <path class="p3" d="M 776 464 L 769 428 L 723 440 L 729 470 L 776 464"/>
  <path class="p3" d="M 769 428 L 757 394 L 713 412 L 723 440 L 769 428"/>
  <path class="p3" d="M 757 394 L 741 361 L 700 385 L 713 412 L 757 394"/>
  <path class="p3" d="M 730 270 L 698 242 L 669 279 L 697 303 L 730 270"/>
  <path class="p3" d="M 669 279 L 639 259 L 616 300 L 641 317 L 669 279"/>
  <path class="p3" d="M 731 500 L 729 470 L 682 476 L 684 500 L 731 500"/>
  <path class="p3" d="M 684 500 L 682 476 L 635 482 L 637 500 L 684 500"/>
  <path class="p3" d="M 682 476 L 677 452 L 632 465 L 635 482 L 682 476"/>
  <path class="p3" d="M 723 440 L 713 412 L 670 430 L 677 452 L 723 440"/>
  <path class="p3" d="M 713 412 L 700 385 L 659 408 L 670 430 L 713 412"/>
  <path class="p3" d="M 670 430 L 659 408 L 618 432 L 626 448 L 670 430"/>
  <path class="p3" d="M 637 500 L 635 482 L 588 488 L 589 500 L 637 500"/>
  <path class="p3" d="M 635 482 L 632 465 L 586 477 L 588 488 L 635 482"/>
  <path class="p3" d="M 589 500 L 588 488 L 542 495 L 542 500 L 589 500"/>
  <line x1="542" y1="500" x2="542" y2="495"/>
  <path class="p3" d="M 588 488 L 586 477 L 541 489 L 542 495 L 588 488"/>
  <line x1="542" y1="495" x2="541" y2="489"/>
  <path class="p3" d="M 632 465 L 626 448 L 582 466 L 586 477 L 632 465"/>
  <path class="p3" d="M 626 448 L 618 432 L 577 455 L 582 466 L 626 448"/>
  <path class="p3" d="M 586 477 L 582 466 L 539 484 L 541 489 L 586 477"/>
  <line x1="541" y1="489" x2="539" y2="484"/>
  <path class="p3" d="M 582 466 L 577 455 L 536 479 L 539 484 L 582 466"/>
  <line x1="539" y1="484" x2="536" y2="479"/>
  <path class="p3" d="M 683 359 L 663 337 L 630 370 L 646 388 L 683 359"/>
  <path class="p3" d="M 659 408 L 646 388 L 608 417 L 618 432 L 659 408"/>
  <path class="p3" d="M 641 317 L 616 300 L 592 341 L 612 354 L 641 317"/>
  <path class="p3" d="M 630 370 L 612 354 L 583 392 L 597 403 L 630 370"/>
  <path class="p3" d="M 577 455 L 571 446 L 533 474 L 536 479 L 577 455"/>
  <line x1="536" y1="479" x2="533" y2="474"/>
  <path class="p3" d="M 583 392 L 568 382 L 545 423 L 554 429 L 583 392"/>
  <path class="p3" d="M 563 437 L 554 429 L 526 467 L 530 470 L 563 437"/>
  <line x1="530" y1="470" x2="526" y2="467"/>
  <path class="p3" d="M 554 429 L 545 423 L 521 464 L 526 467 L 554 429"/>
  <line x1="526" y1="467" x2="521" y2="464"/>
  <path class="p3" d="M 625 199 L 584 186 L 572 231 L 606 243 L 625 199"/>
  <path class="p3" d="M 639 259 L 606 243 L 588 287 L 616 300 L 639 259"/>
  <path class="p3" d="M 606 243 L 572 231 L 560 277 L 588 287 L 606 243"/>
  <path class="p3" d="M 542 177 L 500 175 L 500 222 L 536 224 L 542 177"/>
  <path class="p3" d="M 572 231 L 536 224 L 530 271 L 560 277 L 572 231"/>
  <path class="p3" d="M 451 130 L 404 140 L 416 186 L 458 177 L 451 130"/>
  <path class="p3" d="M 357 156 L 314 177 L 337 218 L 375 199 L 357 156"/>
  <path class="p3" d="M 500 222 L 464 224 L 470 271 L 500 269 L 500 222"/>
  <path class="p3" d="M 375 199 L 337 218 L 361 259 L 394 243 L 375 199"/>
  <path class="p3" d="M 394 243 L 361 259 L 385 300 L 412 287 L 394 243"/>
  <path class="p3" d="M 588 287 L 560 277 L 548 323 L 570 330 L 588 287"/>
  <path class="p3" d="M 592 341 L 570 330 L 552 374 L 568 382 L 592 341"/>
  <path class="p3" d="M 570 330 L 548 323 L 535 368 L 552 374 L 570 330"/>
  <path class="p3" d="M 548 323 L 524 318 L 518 365 L 535 368 L 548 323"/>
  <path class="p3" d="M 524 318 L 500 316 L 500 363 L 518 365 L 524 318"/>
  <path class="p3" d="M 552 374 L 535 368 L 523 414 L 534 418 L 552 374"/>
  <path class="p3" d="M 545 423 L 534 418 L 516 461 L 521 464 L 545 423"/>
  <line x1="521" y1="464" x2="516" y2="461"/>
  <path class="p3" d="M 534 418 L 523 414 L 511 459 L 516 461 L 534 418"/>
  <line x1="516" y1="461" x2="511" y2="459"/>
  <path class="p3" d="M 535 368 L 518 365 L 512 412 L 523 414 L 535 368"/>
  <path class="p3" d="M 518 365 L 500 363 L 500 411 L 512 412 L 518 365"/>
  <path class="p3" d="M 523 414 L 512 412 L 505 458 L 511 459 L 523 414"/>
  <line x1="511" y1="459" x2="505" y2="458"/>
  <path class="p3" d="M 512 412 L 500 411 L 500 458 L 505 458 L 512 412"/>
  <line x1="505" y1="458" x2="500" y2="458"/>
  <path class="p3" d="M 440 277 L 412 287 L 430 330 L 452 323 L 440 277"/>
  <path class="p3" d="M 430 330 L 408 341 L 432 382 L 448 374 L 430 330"/>
  <path class="p3" d="M 500 411 L 488 412 L 495 458 L 500 458 L 500 411"/>
  <line x1="500" y1="458" x2="495" y2="458"/>
  <path class="p3" d="M 488 412 L 477 414 L 489 459 L 495 458 L 488 412"/>
  <line x1="495" y1="458" x2="489" y2="459"/>
  <path class="p3" d="M 465 368 L 448 374 L 466 418 L 477 414 L 465 368"/>
  <path class="p3" d="M 448 374 L 432 382 L 455 423 L 466 418 L 448 374"/>
  <path class="p3" d="M 477 414 L 466 418 L 484 461 L 489 459 L 477 414"/>
  <line x1="489" y1="459" x2="484" y2="461"/>
  <path class="p3" d="M 466 418 L 455 423 L 479 464 L 484 461 L 466 418"/>
  <line x1="484" y1="461" x2="479" y2="464"/>
  <path class="p3" d="M 302 242 L 270 270 L 303 303 L 331 279 L 302 242"/>
  <path class="p3" d="M 331 279 L 303 303 L 337 337 L 359 317 L 331 279"/>
  <path class="p3" d="M 242 302 L 218 337 L 259 361 L 279 331 L 242 302"/>
  <path class="p3" d="M 84 445 L 80 500 L 127 500 L 130 451 L 84 445"/>
  <line x1="84" y1="445" x2="80" y2="500"/>
  <path class="p3" d="M 224 464 L 222 500 L 269 500 L 271 470 L 224 464"/>
  <path class="p3" d="M 385 300 L 359 317 L 388 354 L 408 341 L 385 300"/>
  <path class="p3" d="M 359 317 L 337 337 L 370 370 L 388 354 L 359 317"/>
  <path class="p3" d="M 337 337 L 317 359 L 354 388 L 370 370 L 337 337"/>
  <path class="p3" d="M 370 370 L 354 388 L 392 417 L 403 403 L 370 370"/>
  <path class="p3" d="M 432 382 L 417 392 L 446 429 L 455 423 L 432 382"/>
  <path class="p3" d="M 455 423 L 446 429 L 474 467 L 479 464 L 455 423"/>
  <line x1="479" y1="464" x2="474" y2="467"/>
  <path class="p3" d="M 392 417 L 382 432 L 423 455 L 429 446 L 392 417"/>
  <path class="p3" d="M 437 437 L 429 446 L 467 474 L 470 470 L 437 437"/>
  <line x1="470" y1="470" x2="467" y2="474"/>
  <path class="p3" d="M 429 446 L 423 455 L 464 479 L 467 474 L 429 446"/>
  <line x1="467" y1="474" x2="464" y2="479"/>
  <path class="p3" d="M 341 408 L 330 430 L 374 448 L 382 432 L 341 408"/>
  <path class="p3" d="M 330 430 L 323 452 L 368 465 L 374 448 L 330 430"/>
  <path class="p3" d="M 271 470 L 269 500 L 316 500 L 318 476 L 271 470"/>
  <path class="p3" d="M 323 452 L 318 476 L 365 482 L 368 465 L 323 452"/>
  <path class="p3" d="M 318 476 L 316 500 L 364 500 L 365 482 L 318 476"/>
  <path class="p3" d="M 382 432 L 374 448 L 418 466 L 423 455 L 382 432"/>
  <path class="p3" d="M 423 455 L 418 466 L 461 484 L 464 479 L 423 455"/>
  <line x1="464" y1="479" x2="461" y2="484"/>
  <path class="p3" d="M 418 466 L 414 477 L 459 489 L 461 484 L 418 466"/>
  <line x1="461" y1="484" x2="459" y2="489"/>
  <path class="p3" d="M 368 465 L 365 482 L 412 488 L 414 477 L 368 465"/>
  <path class="p3" d="M 365 482 L 364 500 L 411 500 L 412 488 L 365 482"/>
  <path class="p3" d="M 414 477 L 412 488 L 458 495 L 459 489 L 414 477"/>
  <line x1="459" y1="489" x2="458" y2="495"/>
  <path class="p3" d="M 412 488 L 411 500 L 458 500 L 458 495 L 412 488"/>
  <line x1="458" y1="495" x2="458" y2="500"/>
  <path class="p3" d="M 140 596 L 156 643 L 199 625 L 186 584 L 140 596"/>
  <path class="p3" d="M 156 643 L 177 686 L 218 663 L 199 625 L 156 643"/>
  <path class="p3" d="M 175 500 L 177 542 L 224 536 L 222 500 L 175 500"/>
  <path class="p3" d="M 177 542 L 186 584 L 231 572 L 224 536 L 177 542"/>
  <path class="p3" d="M 222 500 L 224 536 L 271 530 L 269 500 L 222 500"/>
  <path class="p3" d="M 224 536 L 231 572 L 277 560 L 271 530 L 224 536"/>
  <path class="p3" d="M 243 606 L 259 639 L 300 615 L 287 588 L 243 606"/>
  <path class="p3" d="M 279 669 L 303 697 L 337 663 L 317 641 L 279 669"/>
  <path class="p3" d="M 331 721 L 361 741 L 384 700 L 359 683 L 331 721"/>
  <path class="p3" d="M 271 530 L 277 560 L 323 548 L 318 524 L 271 530"/>
  <path class="p3" d="M 316 500 L 318 524 L 365 518 L 364 500 L 316 500"/>
  <path class="p3" d="M 287 588 L 300 615 L 341 592 L 330 570 L 287 588"/>
  <path class="p3" d="M 323 548 L 330 570 L 374 552 L 368 535 L 323 548"/>
  <path class="p3" d="M 330 570 L 341 592 L 382 568 L 374 552 L 330 570"/>
  <path class="p3" d="M 364 500 L 365 518 L 412 512 L 411 500 L 364 500"/>
  <path class="p3" d="M 365 518 L 368 535 L 414 523 L 412 512 L 365 518"/>
  <path class="p3" d="M 411 500 L 412 512 L 458 505 L 458 500 L 411 500"/>
  <line x1="458" y1="500" x2="458" y2="505"/>
  <path class="p3" d="M 368 535 L 374 552 L 418 534 L 414 523 L 368 535"/>
  <path class="p3" d="M 374 552 L 382 568 L 423 545 L 418 534 L 374 552"/>
  <path class="p3" d="M 414 523 L 418 534 L 461 516 L 459 511 L 414 523"/>
  <line x1="459" y1="511" x2="461" y2="516"/>
  <path class="p3" d="M 418 534 L 423 545 L 464 521 L 461 516 L 418 534"/>
  <line x1="461" y1="516" x2="464" y2="521"/>
  <path class="p3" d="M 300 615 L 317 641 L 354 612 L 341 592 L 300 615"/>
  <path class="p3" d="M 341 592 L 354 612 L 392 583 L 382 568 L 341 592"/>
  <path class="p3" d="M 337 663 L 359 683 L 388 646 L 370 630 L 337 663"/>
  <path class="p3" d="M 370 630 L 388 646 L 417 608 L 403 597 L 370 630"/>
  <path class="p3" d="M 382 568 L 392 583 L 429 554 L 423 545 L 382 568"/>
  <path class="p3" d="M 392 583 L 403 597 L 437 563 L 429 554 L 392 583"/>
  <path class="p3" d="M 423 545 L 429 554 L 467 526 L 464 521 L 423 545"/>
  <line x1="464" y1="521" x2="467" y2="526"/>
  <path class="p3" d="M 429 554 L 437 563 L 470 530 L 467 526 L 429 554"/>
  <line x1="467" y1="526" x2="470" y2="530"/>
  <path class="p3" d="M 403 597 L 417 608 L 446 571 L 437 563 L 403 597"/>
  <path class="p3" d="M 437 563 L 446 571 L 474 533 L 470 530 L 437 563"/>
  <line x1="470" y1="530" x2="474" y2="533"/>
  <path class="p3" d="M 446 571 L 455 577 L 479 536 L 474 533 L 446 571"/>
  <line x1="474" y1="533" x2="479" y2="536"/>
  <path class="p3" d="M 394 757 L 428 769 L 440 723 L 412 713 L 394 757"/>
  <path class="p3" d="M 500 826 L 542 823 L 536 776 L 500 778 L 500 826"/>
  <path class="p3" d="M 500 778 L 536 776 L 530 729 L 500 731 L 500 778"/>
  <path class="p3" d="M 572 769 L 606 757 L 588 713 L 560 723 L 572 769"/>
  <path class="p3" d="M 606 757 L 639 741 L 616 700 L 588 713 L 606 757"/>
  <path class="p3" d="M 384 700 L 412 713 L 430 670 L 408 659 L 384 700"/>
  <path class="p3" d="M 412 713 L 440 723 L 452 677 L 430 670 L 412 713"/>
  <path class="p3" d="M 430 670 L 452 677 L 465 632 L 448 626 L 430 670"/>
  <path class="p3" d="M 470 729 L 500 731 L 500 684 L 476 682 L 470 729"/>
  <path class="p3" d="M 452 677 L 476 682 L 482 635 L 465 632 L 452 677"/>
  <path class="p3" d="M 476 682 L 500 684 L 500 637 L 482 635 L 476 682"/>
  <path class="p3" d="M 432 618 L 448 626 L 466 582 L 455 577 L 432 618"/>
  <path class="p3" d="M 455 577 L 466 582 L 484 539 L 479 536 L 455 577"/>
  <line x1="479" y1="536" x2="484" y2="539"/>
  <path class="p3" d="M 466 582 L 477 586 L 489 541 L 484 539 L 466 582"/>
  <line x1="484" y1="539" x2="489" y2="541"/>
  <path class="p3" d="M 465 632 L 482 635 L 488 588 L 477 586 L 465 632"/>
  <path class="p3" d="M 482 635 L 500 637 L 500 589 L 488 588 L 482 635"/>
  <path class="p3" d="M 477 586 L 488 588 L 495 542 L 489 541 L 477 586"/>
  <line x1="489" y1="541" x2="495" y2="542"/>
  <path class="p3" d="M 488 588 L 500 589 L 500 542 L 495 542 L 488 588"/>
  <line x1="495" y1="542" x2="500" y2="542"/>
  <path class="p3" d="M 500 731 L 530 729 L 524 682 L 500 684 L 500 731"/>
  <path class="p3" d="M 530 729 L 560 723 L 548 677 L 524 682 L 530 729"/>
  <path class="p3" d="M 560 723 L 588 713 L 570 670 L 548 677 L 560 723"/>
  <path class="p3" d="M 548 677 L 570 670 L 552 626 L 535 632 L 548 677"/>
  <path class="p3" d="M 570 670 L 592 659 L 568 618 L 552 626 L 570 670"/>
  <path class="p3" d="M 500 637 L 518 635 L 512 588 L 500 589 L 500 637"/>
  <path class="p3" d="M 518 635 L 535 632 L 523 586 L 512 588 L 518 635"/>
  <path class="p3" d="M 500 589 L 512 588 L 505 542 L 500 542 L 500 589"/>
  <line x1="500" y1="542" x2="505" y2="542"/>
  <path class="p3" d="M 512 588 L 523 586 L 511 541 L 505 542 L 512 588"/>
  <line x1="505" y1="542" x2="511" y2="541"/>
  <path class="p3" d="M 535 632 L 552 626 L 534 582 L 523 586 L 535 632"/>
  <path class="p3" d="M 523 586 L 534 582 L 516 539 L 511 541 L 523 586"/>
  <line x1="511" y1="541" x2="516" y2="539"/>
  <path class="p3" d="M 534 582 L 545 577 L 521 536 L 516 539 L 534 582"/>
  <line x1="516" y1="539" x2="521" y2="536"/>
  <path class="p3" d="M 698 758 L 730 730 L 697 697 L 669 721 L 698 758"/>
  <path class="p3" d="M 639 741 L 669 721 L 641 683 L 616 700 L 639 741"/>
  <path class="p3" d="M 669 721 L 697 697 L 663 663 L 641 683 L 669 721"/>
  <path class="p3" d="M 730 730 L 758 698 L 721 669 L 697 697 L 730 730"/>
  <path class="p3" d="M 758 698 L 782 663 L 741 639 L 721 669 L 758 698"/>
  <path class="p3" d="M 823 542 L 826 500 L 778 500 L 776 536 L 823 542"/>
  <path class="p3" d="M 616 700 L 641 683 L 612 646 L 592 659 L 616 700"/>
  <path class="p3" d="M 641 683 L 663 663 L 630 630 L 612 646 L 641 683"/>
  <path class="p3" d="M 592 659 L 612 646 L 583 608 L 568 618 L 592 659"/>
  <path class="p3" d="M 663 663 L 683 641 L 646 612 L 630 630 L 663 663"/>
  <path class="p3" d="M 683 641 L 700 616 L 659 592 L 646 612 L 683 641"/>
  <path class="p3" d="M 630 630 L 646 612 L 608 583 L 597 597 L 630 630"/>
  <path class="p3" d="M 568 618 L 583 608 L 554 571 L 545 577 L 568 618"/>
  <path class="p3" d="M 583 608 L 597 597 L 563 563 L 554 571 L 583 608"/>
  <path class="p3" d="M 545 577 L 554 571 L 526 533 L 521 536 L 545 577"/>
  <line x1="521" y1="536" x2="526" y2="533"/>
  <path class="p3" d="M 554 571 L 563 563 L 530 530 L 526 533 L 554 571"/>
  <line x1="526" y1="533" x2="530" y2="530"/>
  <path class="p3" d="M 608 583 L 618 568 L 577 545 L 571 554 L 608 583"/>
  <path class="p3" d="M 563 563 L 571 554 L 533 526 L 530 530 L 563 563"/>
  <line x1="530" y1="530" x2="533" y2="526"/>
  <path class="p3" d="M 571 554 L 577 545 L 536 521 L 533 526 L 571 554"/>
  <line x1="533" y1="526" x2="536" y2="521"/>
  <path class="p3" d="M 700 616 L 713 588 L 670 570 L 659 592 L 700 616"/>
  <path class="p3" d="M 659 592 L 670 570 L 626 552 L 618 568 L 659 592"/>
  <path class="p3" d="M 677 548 L 682 524 L 635 518 L 632 535 L 677 548"/>
  <path class="p3" d="M 682 524 L 684 500 L 637 500 L 635 518 L 682 524"/>
  <path class="p3" d="M 618 568 L 626 552 L 582 534 L 577 545 L 618 568"/>
  <path class="p3" d="M 577 545 L 582 534 L 539 516 L 536 521 L 577 545"/>
  <line x1="536" y1="521" x2="539" y2="516"/>
  <path class="p3" d="M 582 534 L 586 523 L 541 511 L 539 516 L 582 534"/>
  <line x1="539" y1="516" x2="541" y2="511"/>
  <path class="p3" d="M 635 518 L 637 500 L 589 500 L 588 512 L 635 518"/>
  <path class="p3" d="M 586 523 L 588 512 L 542 505 L 541 511 L 586 523"/>
  <line x1="541" y1="511" x2="542" y2="505"/>
  <path class="p3" d="M 588 512 L 589 500 L 542 500 L 542 505 L 588 512"/>
  <line x1="542" y1="505" x2="542" y2="500"/>
  <path class="p4" d="M 920 500 L 919 473 L 896 474 L 896 500 L 920 500"/>
  <line x1="920" y1="500" x2="919" y2="473"/>
  <path class="p4" d="M 919 473 L 916 445 L 893 448 L 896 474 L 919 473"/>
  <line x1="919" y1="473" x2="916" y2="445"/>
  <path class="p4" d="M 896 500 L 896 474 L 872 476 L 873 500 L 896 500"/>
  <path class="p4" d="M 896 474 L 893 448 L 870 451 L 872 476 L 896 474"/>
  <path class="p4" d="M 916 445 L 912 418 L 889 423 L 893 448 L 916 445"/>
  <line x1="916" y1="445" x2="912" y2="418"/>
  <path class="p4" d="M 912 418 L 906 391 L 883 397 L 889 423 L 912 418"/>
  <line x1="912" y1="418" x2="906" y2="391"/>
  <path class="p4" d="M 893 448 L 889 423 L 866 427 L 870 451 L 893 448"/>
  <path class="p4" d="M 889 423 L 883 397 L 860 404 L 866 427 L 889 423"/>
  <path class="p4" d="M 873 500 L 872 476 L 848 477 L 849 500 L 873 500"/>
  <path class="p4" d="M 872 476 L 870 451 L 846 454 L 848 477 L 872 476"/>
  <path class="p4" d="M 849 500 L 848 477 L 825 479 L 826 500 L 849 500"/>
  <path class="p4" d="M 848 477 L 846 454 L 823 458 L 825 479 L 848 477"/>
  <path class="p4" d="M 870 451 L 866 427 L 842 432 L 846 454 L 870 451"/>
  <path class="p4" d="M 866 427 L 860 404 L 837 410 L 842 432 L 866 427"/>
  <path class="p4" d="M 846 454 L 842 432 L 819 436 L 823 458 L 846 454"/>
  <path class="p4" d="M 842 432 L 837 410 L 814 416 L 819 436 L 842 432"/>
  <path class="p4" d="M 906 391 L 898 365 L 875 373 L 883 397 L 906 391"/>
  <line x1="906" y1="391" x2="898" y2="365"/>
  <path class="p4" d="M 898 365 L 888 339 L 866 348 L 875 373 L 898 365"/>
  <line x1="898" y1="365" x2="888" y2="339"/>
  <path class="p4" d="M 883 397 L 875 373 L 853 380 L 860 404 L 883 397"/>
  <path class="p4" d="M 875 373 L 866 348 L 844 357 L 853 380 L 875 373"/>
  <path class="p4" d="M 888 339 L 877 314 L 855 325 L 866 348 L 888 339"/>
  <line x1="888" y1="339" x2="877" y2="314"/>
  <path class="p4" d="M 877 314 L 864 290 L 843 302 L 855 325 L 877 314"/>
  <line x1="877" y1="314" x2="864" y2="290"/>
  <path class="p4" d="M 866 348 L 855 325 L 834 335 L 844 357 L 866 348"/>
  <path class="p4" d="M 855 325 L 843 302 L 823 314 L 834 335 L 855 325"/>
  <path class="p4" d="M 860 404 L 853 380 L 831 388 L 837 410 L 860 404"/>
  <path class="p4" d="M 853 380 L 844 357 L 823 366 L 831 388 L 853 380"/>
  <path class="p4" d="M 837 410 L 831 388 L 808 395 L 814 416 L 837 410"/>
  <path class="p4" d="M 831 388 L 823 366 L 801 375 L 808 395 L 831 388"/>
  <path class="p4" d="M 844 357 L 834 335 L 813 346 L 823 366 L 844 357"/>
  <path class="p4" d="M 834 335 L 823 314 L 802 325 L 813 346 L 834 335"/>
  <path class="p4" d="M 823 366 L 813 346 L 792 356 L 801 375 L 823 366"/>
  <path class="p4" d="M 813 346 L 802 325 L 782 337 L 792 356 L 813 346"/>
  <path class="p4" d="M 826 500 L 825 479 L 801 480 L 802 500 L 826 500"/>
  <path class="p4" d="M 825 479 L 823 458 L 799 461 L 801 480 L 825 479"/>
  <path class="p4" d="M 802 500 L 801 480 L 778 482 L 778 500 L 802 500"/>
  <path class="p4" d="M 801 480 L 799 461 L 776 464 L 778 482 L 801 480"/>
  <path class="p4" d="M 823 458 L 819 436 L 796 441 L 799 461 L 823 458"/>
  <path class="p4" d="M 819 436 L 814 416 L 792 422 L 796 441 L 819 436"/>
  <path class="p4" d="M 799 461 L 796 441 L 773 446 L 776 464 L 799 461"/>
  <path class="p4" d="M 796 441 L 792 422 L 769 428 L 773 446 L 796 441"/>
  <path class="p4" d="M 778 500 L 778 482 L 754 483 L 755 500 L 778 500"/>
  <path class="p4" d="M 778 482 L 776 464 L 752 467 L 754 483 L 778 482"/>
  <path class="p4" d="M 755 500 L 754 483 L 731 485 L 731 500 L 755 500"/>
  <path class="p4" d="M 754 483 L 752 467 L 729 470 L 731 485 L 754 483"/>
  <path class="p4" d="M 814 416 L 808 395 L 786 403 L 792 422 L 814 416"/>
  <path class="p4" d="M 808 395 L 801 375 L 779 384 L 786 403 L 808 395"/>
  <path class="p4" d="M 792 422 L 786 403 L 763 411 L 769 428 L 792 422"/>
  <path class="p4" d="M 786 403 L 779 384 L 757 394 L 763 411 L 786 403"/>
  <path class="p4" d="M 801 375 L 792 356 L 771 366 L 779 384 L 801 375"/>
  <path class="p4" d="M 792 356 L 782 337 L 761 349 L 771 366 L 792 356"/>
  <path class="p4" d="M 779 384 L 771 366 L 750 377 L 757 394 L 779 384"/>
  <path class="p4" d="M 771 366 L 761 349 L 741 361 L 750 377 L 771 366"/>
  <path class="p4" d="M 864 290 L 849 267 L 830 280 L 843 302 L 864 290"/>
  <line x1="864" y1="290" x2="849" y2="267"/>
  <path class="p4" d="M 849 267 L 833 244 L 814 259 L 830 280 L 849 267"/>
  <line x1="849" y1="267" x2="833" y2="244"/>
  <path class="p4" d="M 843 302 L 830 280 L 810 293 L 823 314 L 843 302"/>
  <path class="p4" d="M 830 280 L 814 259 L 796 273 L 810 293 L 830 280"/>
  <path class="p4" d="M 833 244 L 816 223 L 798 239 L 814 259 L 833 244"/>
  <line x1="833" y1="244" x2="816" y2="223"/>
  <path class="p4" d="M 816 223 L 797 203 L 780 220 L 798 239 L 816 223"/>
  <line x1="816" y1="223" x2="797" y2="203"/>
  <path class="p4" d="M 814 259 L 798 239 L 780 254 L 796 273 L 814 259"/>
  <path class="p4" d="M 798 239 L 780 220 L 764 236 L 780 254 L 798 239"/>
  <path class="p4" d="M 823 314 L 810 293 L 790 306 L 802 325 L 823 314"/>
  <path class="p4" d="M 810 293 L 796 273 L 777 287 L 790 306 L 810 293"/>
  <path class="p4" d="M 802 325 L 790 306 L 771 319 L 782 337 L 802 325"/>
  <path class="p4" d="M 790 306 L 777 287 L 758 302 L 771 319 L 790 306"/>
  <path class="p4" d="M 796 273 L 780 254 L 762 270 L 777 287 L 796 273"/>
  <path class="p4" d="M 780 254 L 764 236 L 747 253 L 762 270 L 780 254"/>
  <path class="p4" d="M 777 287 L 762 270 L 745 285 L 758 302 L 777 287"/>
  <path class="p4" d="M 762 270 L 747 253 L 730 270 L 745 285 L 762 270"/>
  <path class="p4" d="M 797 203 L 777 184 L 761 202 L 780 220 L 797 203"/>
  <line x1="797" y1="203" x2="777" y2="184"/>
  <path class="p4" d="M 777 184 L 756 167 L 741 186 L 761 202 L 777 184"/>
  <line x1="777" y1="184" x2="756" y2="167"/>
  <path class="p4" d="M 780 220 L 761 202 L 746 220 L 764 236 L 780 220"/>
  <path class="p4" d="M 761 202 L 741 186 L 727 204 L 746 220 L 761 202"/>
  <path class="p4" d="M 756 167 L 733 151 L 720 170 L 741 186 L 756 167"/>
  <line x1="756" y1="167" x2="733" y2="151"/>
  <path class="p4" d="M 733 151 L 710 136 L 698 157 L 720 170 L 733 151"/>
  <line x1="733" y1="151" x2="710" y2="136"/>
  <path class="p4" d="M 741 186 L 720 170 L 707 190 L 727 204 L 741 186"/>
  <path class="p4" d="M 720 170 L 698 157 L 686 177 L 707 190 L 720 170"/>
  <path class="p4" d="M 764 236 L 746 220 L 730 238 L 747 253 L 764 236"/>
  <path class="p4" d="M 746 220 L 727 204 L 713 223 L 730 238 L 746 220"/>
  <path class="p4" d="M 747 253 L 730 238 L 715 255 L 730 270 L 747 253"/>
  <path class="p4" d="M 730 238 L 713 223 L 698 242 L 715 255 L 730 238"/>
  <path class="p4" d="M 727 204 L 707 190 L 694 210 L 713 223 L 727 204"/>
  <path class="p4" d="M 707 190 L 686 177 L 675 198 L 694 210 L 707 190"/>
  <path class="p4" d="M 713 223 L 694 210 L 681 229 L 698 242 L 713 223"/>
  <path class="p4" d="M 694 210 L 675 198 L 663 218 L 681 229 L 694 210"/>
  <path class="p4" d="M 782 337 L 771 319 L 751 332 L 761 349 L 782 337"/>
  <path class="p4" d="M 771 319 L 758 302 L 739 316 L 751 332 L 771 319"/>
  <path class="p4" d="M 761 349 L 751 332 L 731 345 L 741 361 L 761 349"/>
  <path class="p4" d="M 751 332 L 739 316 L 721 331 L 731 345 L 751 332"/>
  <path class="p4" d="M 758 302 L 745 285 L 727 301 L 739 316 L 758 302"/>
  <path class="p4" d="M 745 285 L 730 270 L 713 287 L 727 301 L 745 285"/>
  <path class="p4" d="M 739 316 L 727 301 L 709 317 L 721 331 L 739 316"/>
  <path class="p4" d="M 727 301 L 713 287 L 697 303 L 709 317 L 727 301"/>
  <path class="p4" d="M 741 361 L 731 345 L 712 359 L 721 373 L 741 361"/>
  <path class="p4" d="M 731 345 L 721 331 L 702 345 L 712 359 L 731 345"/>
  <path class="p4" d="M 721 373 L 712 359 L 692 372 L 700 385 L 721 373"/>
  <path class="p4" d="M 712 359 L 702 345 L 683 359 L 692 372 L 712 359"/>
  <path class="p4" d="M 721 331 L 709 317 L 691 332 L 702 345 L 721 331"/>
  <path class="p4" d="M 709 317 L 697 303 L 680 320 L 691 332 L 709 317"/>
  <path class="p4" d="M 702 345 L 691 332 L 674 348 L 683 359 L 702 345"/>
  <path class="p4" d="M 691 332 L 680 320 L 663 337 L 674 348 L 691 332"/>
  <path class="p4" d="M 698 242 L 681 229 L 668 249 L 684 261 L 698 242"/>
  <path class="p4" d="M 681 229 L 663 218 L 651 239 L 668 249 L 681 229"/>
  <path class="p4" d="M 684 261 L 668 249 L 655 269 L 669 279 L 684 261"/>
  <path class="p4" d="M 668 249 L 651 239 L 639 259 L 655 269 L 668 249"/>
  <path class="p4" d="M 697 303 L 683 291 L 668 309 L 680 320 L 697 303"/>
  <path class="p4" d="M 683 291 L 669 279 L 655 298 L 668 309 L 683 291"/>
  <path class="p4" d="M 680 320 L 668 309 L 652 326 L 663 337 L 680 320"/>
  <path class="p4" d="M 668 309 L 655 298 L 641 317 L 652 326 L 668 309"/>
  <path class="p4" d="M 729 470 L 727 455 L 703 460 L 706 473 L 729 470"/>
  <path class="p4" d="M 727 455 L 723 440 L 700 446 L 703 460 L 727 455"/>
  <path class="p4" d="M 706 473 L 703 460 L 680 464 L 682 476 L 706 473"/>
  <path class="p4" d="M 703 460 L 700 446 L 677 452 L 680 464 L 703 460"/>
  <path class="p4" d="M 677 452 L 674 441 L 652 449 L 655 459 L 677 452"/>
  <path class="p4" d="M 674 441 L 670 430 L 648 439 L 652 449 L 674 441"/>
  <path class="p4" d="M 655 459 L 652 449 L 629 456 L 632 465 L 655 459"/>
  <path class="p4" d="M 652 449 L 648 439 L 626 448 L 629 456 L 652 449"/>
  <path class="p4" d="M 700 385 L 692 372 L 672 385 L 680 396 L 700 385"/>
  <path class="p4" d="M 692 372 L 683 359 L 665 374 L 672 385 L 692 372"/>
  <path class="p4" d="M 680 396 L 672 385 L 653 398 L 659 408 L 680 396"/>
  <path class="p4" d="M 672 385 L 665 374 L 646 388 L 653 398 L 672 385"/>
  <path class="p4" d="M 646 388 L 638 379 L 620 394 L 627 403 L 646 388"/>
  <path class="p4" d="M 638 379 L 630 370 L 613 387 L 620 394 L 638 379"/>
  <path class="p4" d="M 627 403 L 620 394 L 603 410 L 608 417 L 627 403"/>
  <path class="p4" d="M 620 394 L 613 387 L 597 403 L 603 410 L 620 394"/>
  <path class="p4" d="M 663 337 L 652 326 L 637 344 L 647 353 L 663 337"/>
  <path class="p4" d="M 652 326 L 641 317 L 626 335 L 637 344 L 652 326"/>
  <path class="p4" d="M 647 353 L 637 344 L 621 362 L 630 370 L 647 353"/>
  <path class="p4" d="M 637 344 L 626 335 L 612 354 L 621 362 L 637 344"/>
  <path class="p4" d="M 612 354 L 602 347 L 589 367 L 597 373 L 612 354"/>
  <path class="p4" d="M 602 347 L 592 341 L 580 361 L 589 367 L 602 347"/>
  <path class="p4" d="M 597 373 L 589 367 L 576 387 L 583 392 L 597 373"/>
  <path class="p4" d="M 589 367 L 580 361 L 568 382 L 576 387 L 589 367"/>
  <path class="p4" d="M 618 432 L 613 424 L 594 437 L 598 444 L 618 432"/>
  <path class="p4" d="M 613 424 L 608 417 L 590 431 L 594 437 L 613 424"/>
  <path class="p4" d="M 598 444 L 594 437 L 574 450 L 577 455 L 598 444"/>
  <path class="p4" d="M 594 437 L 590 431 L 571 446 L 574 450 L 594 437"/>
  <path class="p4" d="M 608 417 L 603 410 L 585 426 L 590 431 L 608 417"/>
  <path class="p4" d="M 603 410 L 597 403 L 580 420 L 585 426 L 603 410"/>
  <path class="p4" d="M 590 431 L 585 426 L 567 441 L 571 446 L 590 431"/>
  <path class="p4" d="M 585 426 L 580 420 L 563 437 L 567 441 L 585 426"/>
  <path class="p4" d="M 571 446 L 567 441 L 549 457 L 552 460 L 571 446"/>
  <path class="p4" d="M 567 441 L 563 437 L 546 454 L 549 457 L 567 441"/>
  <path class="p4" d="M 552 460 L 549 457 L 532 472 L 533 474 L 552 460"/>
  <line x1="533" y1="474" x2="532" y2="472"/>
  <path class="p4" d="M 549 457 L 546 454 L 530 470 L 532 472 L 549 457"/>
  <line x1="532" y1="472" x2="530" y2="470"/>
  <path class="p4" d="M 597 403 L 590 397 L 574 415 L 580 420 L 597 403"/>
  <path class="p4" d="M 590 397 L 583 392 L 569 410 L 574 415 L 590 397"/>
  <path class="p4" d="M 580 420 L 574 415 L 559 433 L 563 437 L 580 420"/>
  <path class="p4" d="M 574 415 L 569 410 L 554 429 L 559 433 L 574 415"/>
  <path class="p4" d="M 710 136 L 686 123 L 675 145 L 698 157 L 710 136"/>
  <line x1="710" y1="136" x2="686" y2="123"/>
  <path class="p4" d="M 686 123 L 661 112 L 652 134 L 675 145 L 686 123"/>
  <line x1="686" y1="123" x2="661" y2="112"/>
  <path class="p4" d="M 698 157 L 675 145 L 665 166 L 686 177 L 698 157"/>
  <path class="p4" d="M 675 145 L 652 134 L 643 156 L 665 166 L 675 145"/>
  <path class="p4" d="M 661 112 L 635 102 L 627 125 L 652 134 L 661 112"/>
  <line x1="661" y1="112" x2="635" y2="102"/>
  <path class="p4" d="M 635 102 L 609 94 L 603 117 L 627 125 L 635 102"/>
  <line x1="635" y1="102" x2="609" y2="94"/>
  <path class="p4" d="M 652 134 L 627 125 L 620 147 L 643 156 L 652 134"/>
  <path class="p4" d="M 627 125 L 603 117 L 596 140 L 620 147 L 627 125"/>
  <path class="p4" d="M 686 177 L 665 166 L 654 187 L 675 198 L 686 177"/>
  <path class="p4" d="M 665 166 L 643 156 L 634 177 L 654 187 L 665 166"/>
  <path class="p4" d="M 675 198 L 654 187 L 644 208 L 663 218 L 675 198"/>
  <path class="p4" d="M 654 187 L 634 177 L 625 199 L 644 208 L 654 187"/>
  <path class="p4" d="M 643 156 L 620 147 L 612 169 L 634 177 L 643 156"/>
  <path class="p4" d="M 620 147 L 596 140 L 590 163 L 612 169 L 620 147"/>
  <path class="p4" d="M 634 177 L 612 169 L 605 192 L 625 199 L 634 177"/>
  <path class="p4" d="M 612 169 L 590 163 L 584 186 L 605 192 L 612 169"/>
  <path class="p4" d="M 609 94 L 582 88 L 577 111 L 603 117 L 609 94"/>
  <line x1="609" y1="94" x2="582" y2="88"/>
  <path class="p4" d="M 582 88 L 555 84 L 552 107 L 577 111 L 582 88"/>
  <line x1="582" y1="88" x2="555" y2="84"/>
  <path class="p4" d="M 603 117 L 577 111 L 573 134 L 596 140 L 603 117"/>
  <path class="p4" d="M 577 111 L 552 107 L 549 130 L 573 134 L 577 111"/>
  <path class="p4" d="M 555 84 L 527 81 L 526 104 L 552 107 L 555 84"/>
  <line x1="555" y1="84" x2="527" y2="81"/>
  <path class="p4" d="M 527 81 L 500 80 L 500 104 L 526 104 L 527 81"/>
  <line x1="527" y1="81" x2="500" y2="80"/>
  <path class="p4" d="M 552 107 L 526 104 L 524 128 L 549 130 L 552 107"/>
  <path class="p4" d="M 526 104 L 500 104 L 500 127 L 524 128 L 526 104"/>
  <path class="p4" d="M 596 140 L 573 134 L 568 158 L 590 163 L 596 140"/>
  <path class="p4" d="M 573 134 L 549 130 L 546 154 L 568 158 L 573 134"/>
  <path class="p4" d="M 590 163 L 568 158 L 564 181 L 584 186 L 590 163"/>
  <path class="p4" d="M 568 158 L 546 154 L 542 177 L 564 181 L 568 158"/>
  <path class="p4" d="M 549 130 L 524 128 L 523 152 L 546 154 L 549 130"/>
  <path class="p4" d="M 524 128 L 500 127 L 500 151 L 523 152 L 524 128"/>
  <path class="p4" d="M 546 154 L 523 152 L 521 175 L 542 177 L 546 154"/>
  <path class="p4" d="M 523 152 L 500 151 L 500 175 L 521 175 L 523 152"/>
  <path class="p4" d="M 663 218 L 644 208 L 634 229 L 651 239 L 663 218"/>
  <path class="p4" d="M 644 208 L 625 199 L 616 221 L 634 229 L 644 208"/>
  <path class="p4" d="M 651 239 L 634 229 L 623 250 L 639 259 L 651 239"/>
  <path class="p4" d="M 634 229 L 616 221 L 606 243 L 623 250 L 634 229"/>
  <path class="p4" d="M 584 186 L 564 181 L 559 204 L 578 208 L 584 186"/>
  <path class="p4" d="M 564 181 L 542 177 L 539 201 L 559 204 L 564 181"/>
  <path class="p4" d="M 578 208 L 559 204 L 554 227 L 572 231 L 578 208"/>
  <path class="p4" d="M 559 204 L 539 201 L 536 224 L 554 227 L 559 204"/>
  <path class="p4" d="M 536 224 L 518 222 L 517 246 L 533 248 L 536 224"/>
  <path class="p4" d="M 518 222 L 500 222 L 500 245 L 517 246 L 518 222"/>
  <path class="p4" d="M 533 248 L 517 246 L 515 269 L 530 271 L 533 248"/>
  <path class="p4" d="M 517 246 L 500 245 L 500 269 L 515 269 L 517 246"/>
  <path class="p4" d="M 500 80 L 473 81 L 474 104 L 500 104 L 500 80"/>
  <line x1="500" y1="80" x2="473" y2="81"/>
  <path class="p4" d="M 473 81 L 445 84 L 448 107 L 474 104 L 473 81"/>
  <line x1="473" y1="81" x2="445" y2="84"/>
  <path class="p4" d="M 500 104 L 474 104 L 476 128 L 500 127 L 500 104"/>
  <path class="p4" d="M 474 104 L 448 107 L 451 130 L 476 128 L 474 104"/>
  <path class="p4" d="M 445 84 L 418 88 L 423 111 L 448 107 L 445 84"/>
  <line x1="445" y1="84" x2="418" y2="88"/>
  <path class="p4" d="M 418 88 L 391 94 L 397 117 L 423 111 L 418 88"/>
  <line x1="418" y1="88" x2="391" y2="94"/>
  <path class="p4" d="M 448 107 L 423 111 L 427 134 L 451 130 L 448 107"/>
  <path class="p4" d="M 423 111 L 397 117 L 404 140 L 427 134 L 423 111"/>
  <path class="p4" d="M 500 127 L 476 128 L 477 152 L 500 151 L 500 127"/>
  <path class="p4" d="M 476 128 L 451 130 L 454 154 L 477 152 L 476 128"/>
  <path class="p4" d="M 500 151 L 477 152 L 479 175 L 500 175 L 500 151"/>
  <path class="p4" d="M 477 152 L 454 154 L 458 177 L 479 175 L 477 152"/>
  <path class="p4" d="M 391 94 L 365 102 L 373 125 L 397 117 L 391 94"/>
  <line x1="391" y1="94" x2="365" y2="102"/>
  <path class="p4" d="M 365 102 L 339 112 L 348 134 L 373 125 L 365 102"/>
  <line x1="365" y1="102" x2="339" y2="112"/>
  <path class="p4" d="M 397 117 L 373 125 L 380 147 L 404 140 L 397 117"/>
  <path class="p4" d="M 373 125 L 348 134 L 357 156 L 380 147 L 373 125"/>
  <path class="p4" d="M 339 112 L 314 123 L 325 145 L 348 134 L 339 112"/>
  <line x1="339" y1="112" x2="314" y2="123"/>
  <path class="p4" d="M 314 123 L 290 136 L 302 157 L 325 145 L 314 123"/>
  <line x1="314" y1="123" x2="290" y2="136"/>
  <path class="p4" d="M 348 134 L 325 145 L 335 166 L 357 156 L 348 134"/>
  <path class="p4" d="M 325 145 L 302 157 L 314 177 L 335 166 L 325 145"/>
  <path class="p4" d="M 404 140 L 380 147 L 388 169 L 410 163 L 404 140"/>
  <path class="p4" d="M 380 147 L 357 156 L 366 177 L 388 169 L 380 147"/>
  <path class="p4" d="M 410 163 L 388 169 L 395 192 L 416 186 L 410 163"/>
  <path class="p4" d="M 388 169 L 366 177 L 375 199 L 395 192 L 388 169"/>
  <path class="p4" d="M 500 175 L 479 175 L 480 199 L 500 198 L 500 175"/>
  <path class="p4" d="M 479 175 L 458 177 L 461 201 L 480 199 L 479 175"/>
  <path class="p4" d="M 500 198 L 480 199 L 482 222 L 500 222 L 500 198"/>
  <path class="p4" d="M 480 199 L 461 201 L 464 224 L 482 222 L 480 199"/>
  <path class="p4" d="M 458 177 L 436 181 L 441 204 L 461 201 L 458 177"/>
  <path class="p4" d="M 436 181 L 416 186 L 422 208 L 441 204 L 436 181"/>
  <path class="p4" d="M 461 201 L 441 204 L 446 227 L 464 224 L 461 201"/>
  <path class="p4" d="M 441 204 L 422 208 L 428 231 L 446 227 L 441 204"/>
  <path class="p4" d="M 464 224 L 446 227 L 450 250 L 467 248 L 464 224"/>
  <path class="p4" d="M 446 227 L 428 231 L 434 254 L 450 250 L 446 227"/>
  <path class="p4" d="M 467 248 L 450 250 L 455 273 L 470 271 L 467 248"/>
  <path class="p4" d="M 450 250 L 434 254 L 440 277 L 455 273 L 450 250"/>
  <path class="p4" d="M 416 186 L 395 192 L 403 214 L 422 208 L 416 186"/>
  <path class="p4" d="M 395 192 L 375 199 L 384 221 L 403 214 L 395 192"/>
  <path class="p4" d="M 422 208 L 403 214 L 411 237 L 428 231 L 422 208"/>
  <path class="p4" d="M 403 214 L 384 221 L 394 243 L 411 237 L 403 214"/>
  <path class="p4" d="M 428 231 L 411 237 L 418 259 L 434 254 L 428 231"/>
  <path class="p4" d="M 411 237 L 394 243 L 403 265 L 418 259 L 411 237"/>
  <path class="p4" d="M 434 254 L 418 259 L 426 281 L 440 277 L 434 254"/>
  <path class="p4" d="M 418 259 L 403 265 L 412 287 L 426 281 L 418 259"/>
  <path class="p4" d="M 616 300 L 602 293 L 592 314 L 604 320 L 616 300"/>
  <path class="p4" d="M 602 293 L 588 287 L 579 308 L 592 314 L 602 293"/>
  <path class="p4" d="M 604 320 L 592 314 L 581 335 L 592 341 L 604 320"/>
  <path class="p4" d="M 592 314 L 579 308 L 570 330 L 581 335 L 592 314"/>
  <path class="p4" d="M 560 277 L 545 273 L 540 297 L 554 300 L 560 277"/>
  <path class="p4" d="M 545 273 L 530 271 L 527 294 L 540 297 L 545 273"/>
  <path class="p4" d="M 554 300 L 540 297 L 536 320 L 548 323 L 554 300"/>
  <path class="p4" d="M 540 297 L 527 294 L 524 318 L 536 320 L 540 297"/>
  <path class="p4" d="M 530 271 L 515 269 L 514 293 L 527 294 L 530 271"/>
  <path class="p4" d="M 515 269 L 500 269 L 500 293 L 514 293 L 515 269"/>
  <path class="p4" d="M 527 294 L 514 293 L 512 317 L 524 318 L 527 294"/>
  <path class="p4" d="M 514 293 L 500 293 L 500 316 L 512 317 L 514 293"/>
  <path class="p4" d="M 568 382 L 560 378 L 550 399 L 556 402 L 568 382"/>
  <path class="p4" d="M 560 378 L 552 374 L 543 396 L 550 399 L 560 378"/>
  <path class="p4" d="M 556 402 L 550 399 L 539 420 L 545 423 L 556 402"/>
  <path class="p4" d="M 550 399 L 543 396 L 534 418 L 539 420 L 550 399"/>
  <path class="p4" d="M 500 269 L 485 269 L 486 293 L 500 293 L 500 269"/>
  <path class="p4" d="M 485 269 L 470 271 L 473 294 L 486 293 L 485 269"/>
  <path class="p4" d="M 500 293 L 486 293 L 488 317 L 500 316 L 500 293"/>
  <path class="p4" d="M 486 293 L 473 294 L 476 318 L 488 317 L 486 293"/>
  <path class="p4" d="M 470 271 L 455 273 L 460 297 L 473 294 L 470 271"/>
  <path class="p4" d="M 455 273 L 440 277 L 446 300 L 460 297 L 455 273"/>
  <path class="p4" d="M 473 294 L 460 297 L 464 320 L 476 318 L 473 294"/>
  <path class="p4" d="M 460 297 L 446 300 L 452 323 L 464 320 L 460 297"/>
  <path class="p4" d="M 500 316 L 488 317 L 490 340 L 500 340 L 500 316"/>
  <path class="p4" d="M 488 317 L 476 318 L 479 341 L 490 340 L 488 317"/>
  <path class="p4" d="M 500 340 L 490 340 L 491 364 L 500 363 L 500 340"/>
  <path class="p4" d="M 490 340 L 479 341 L 482 365 L 491 364 L 490 340"/>
  <path class="p4" d="M 476 318 L 464 320 L 469 343 L 479 341 L 476 318"/>
  <path class="p4" d="M 464 320 L 452 323 L 459 345 L 469 343 L 464 320"/>
  <path class="p4" d="M 479 341 L 469 343 L 473 366 L 482 365 L 479 341"/>
  <path class="p4" d="M 469 343 L 459 345 L 465 368 L 473 366 L 469 343"/>
  <path class="p4" d="M 412 287 L 398 293 L 408 314 L 421 308 L 412 287"/>
  <path class="p4" d="M 398 293 L 385 300 L 396 320 L 408 314 L 398 293"/>
  <path class="p4" d="M 421 308 L 408 314 L 419 335 L 430 330 L 421 308"/>
  <path class="p4" d="M 408 314 L 396 320 L 408 341 L 419 335 L 408 314"/>
  <path class="p4" d="M 452 323 L 441 326 L 449 348 L 459 345 L 452 323"/>
  <path class="p4" d="M 441 326 L 430 330 L 439 352 L 449 348 L 441 326"/>
  <path class="p4" d="M 459 345 L 449 348 L 456 371 L 465 368 L 459 345"/>
  <path class="p4" d="M 449 348 L 439 352 L 448 374 L 456 371 L 449 348"/>
  <path class="p4" d="M 500 363 L 491 364 L 493 387 L 500 387 L 500 363"/>
  <path class="p4" d="M 491 364 L 482 365 L 485 388 L 493 387 L 491 364"/>
  <path class="p4" d="M 500 387 L 493 387 L 494 411 L 500 411 L 500 387"/>
  <path class="p4" d="M 493 387 L 485 388 L 488 412 L 494 411 L 493 387"/>
  <path class="p4" d="M 482 365 L 473 366 L 478 389 L 485 388 L 482 365"/>
  <path class="p4" d="M 473 366 L 465 368 L 471 391 L 478 389 L 473 366"/>
  <path class="p4" d="M 485 388 L 478 389 L 483 412 L 488 412 L 485 388"/>
  <path class="p4" d="M 478 389 L 471 391 L 477 414 L 483 412 L 478 389"/>
  <path class="p4" d="M 290 136 L 267 151 L 280 170 L 302 157 L 290 136"/>
  <line x1="290" y1="136" x2="267" y2="151"/>
  <path class="p4" d="M 267 151 L 244 167 L 259 186 L 280 170 L 267 151"/>
  <line x1="267" y1="151" x2="244" y2="167"/>
  <path class="p4" d="M 302 157 L 280 170 L 293 190 L 314 177 L 302 157"/>
  <path class="p4" d="M 280 170 L 259 186 L 273 204 L 293 190 L 280 170"/>
  <path class="p4" d="M 244 167 L 223 184 L 239 202 L 259 186 L 244 167"/>
  <line x1="244" y1="167" x2="223" y2="184"/>
  <path class="p4" d="M 223 184 L 203 203 L 220 220 L 239 202 L 223 184"/>
  <line x1="223" y1="184" x2="203" y2="203"/>
  <path class="p4" d="M 259 186 L 239 202 L 254 220 L 273 204 L 259 186"/>
  <path class="p4" d="M 239 202 L 220 220 L 236 236 L 254 220 L 239 202"/>
  <path class="p4" d="M 314 177 L 293 190 L 306 210 L 325 198 L 314 177"/>
  <path class="p4" d="M 293 190 L 273 204 L 287 223 L 306 210 L 293 190"/>
  <path class="p4" d="M 325 198 L 306 210 L 319 229 L 337 218 L 325 198"/>
  <path class="p4" d="M 306 210 L 287 223 L 302 242 L 319 229 L 306 210"/>
  <path class="p4" d="M 273 204 L 254 220 L 270 238 L 287 223 L 273 204"/>
  <path class="p4" d="M 254 220 L 236 236 L 253 253 L 270 238 L 254 220"/>
  <path class="p4" d="M 287 223 L 270 238 L 285 255 L 302 242 L 287 223"/>
  <path class="p4" d="M 270 238 L 253 253 L 270 270 L 285 255 L 270 238"/>
  <path class="p4" d="M 203 203 L 184 223 L 202 239 L 220 220 L 203 203"/>
  <line x1="203" y1="203" x2="184" y2="223"/>
  <path class="p4" d="M 184 223 L 167 244 L 186 259 L 202 239 L 184 223"/>
  <line x1="184" y1="223" x2="167" y2="244"/>
  <path class="p4" d="M 220 220 L 202 239 L 220 254 L 236 236 L 220 220"/>
  <path class="p4" d="M 202 239 L 186 259 L 204 273 L 220 254 L 202 239"/>
  <path class="p4" d="M 167 244 L 151 267 L 170 280 L 186 259 L 167 244"/>
  <line x1="167" y1="244" x2="151" y2="267"/>
  <path class="p4" d="M 151 267 L 136 290 L 157 302 L 170 280 L 151 267"/>
  <line x1="151" y1="267" x2="136" y2="290"/>
  <path class="p4" d="M 186 259 L 170 280 L 190 293 L 204 273 L 186 259"/>
  <path class="p4" d="M 170 280 L 157 302 L 177 314 L 190 293 L 170 280"/>
  <path class="p4" d="M 236 236 L 220 254 L 238 270 L 253 253 L 236 236"/>
  <path class="p4" d="M 220 254 L 204 273 L 223 287 L 238 270 L 220 254"/>
  <path class="p4" d="M 253 253 L 238 270 L 255 285 L 270 270 L 253 253"/>
  <path class="p4" d="M 238 270 L 223 287 L 242 302 L 255 285 L 238 270"/>
  <path class="p4" d="M 204 273 L 190 293 L 210 306 L 223 287 L 204 273"/>
  <path class="p4" d="M 190 293 L 177 314 L 198 325 L 210 306 L 190 293"/>
  <path class="p4" d="M 223 287 L 210 306 L 229 319 L 242 302 L 223 287"/>
  <path class="p4" d="M 210 306 L 198 325 L 218 337 L 229 319 L 210 306"/>
  <path class="p4" d="M 337 218 L 319 229 L 332 249 L 349 239 L 337 218"/>
  <path class="p4" d="M 319 229 L 302 242 L 316 261 L 332 249 L 319 229"/>
  <path class="p4" d="M 349 239 L 332 249 L 345 269 L 361 259 L 349 239"/>
  <path class="p4" d="M 332 249 L 316 261 L 331 279 L 345 269 L 332 249"/>
  <path class="p4" d="M 361 259 L 345 269 L 359 288 L 373 279 L 361 259"/>
  <path class="p4" d="M 345 269 L 331 279 L 345 298 L 359 288 L 345 269"/>
  <path class="p4" d="M 373 279 L 359 288 L 372 308 L 385 300 L 373 279"/>
  <path class="p4" d="M 359 288 L 345 298 L 359 317 L 372 308 L 359 288"/>
  <path class="p4" d="M 270 270 L 255 285 L 273 301 L 287 287 L 270 270"/>
  <path class="p4" d="M 255 285 L 242 302 L 261 316 L 273 301 L 255 285"/>
  <path class="p4" d="M 287 287 L 273 301 L 291 317 L 303 303 L 287 287"/>
  <path class="p4" d="M 273 301 L 261 316 L 279 331 L 291 317 L 273 301"/>
  <path class="p4" d="M 303 303 L 291 317 L 309 332 L 320 320 L 303 303"/>
  <path class="p4" d="M 291 317 L 279 331 L 298 345 L 309 332 L 291 317"/>
  <path class="p4" d="M 320 320 L 309 332 L 326 348 L 337 337 L 320 320"/>
  <path class="p4" d="M 309 332 L 298 345 L 317 359 L 326 348 L 309 332"/>
  <path class="p4" d="M 279 331 L 269 345 L 288 359 L 298 345 L 279 331"/>
  <path class="p4" d="M 269 345 L 259 361 L 279 373 L 288 359 L 269 345"/>
  <path class="p4" d="M 298 345 L 288 359 L 308 372 L 317 359 L 298 345"/>
  <path class="p4" d="M 288 359 L 279 373 L 300 384 L 308 372 L 288 359"/>
  <path class="p4" d="M 136 290 L 123 314 L 145 325 L 157 302 L 136 290"/>
  <line x1="136" y1="290" x2="123" y2="314"/>
  <path class="p4" d="M 123 314 L 112 339 L 134 348 L 145 325 L 123 314"/>
  <line x1="123" y1="314" x2="112" y2="339"/>
  <path class="p4" d="M 157 302 L 145 325 L 166 335 L 177 314 L 157 302"/>
  <path class="p4" d="M 145 325 L 134 348 L 156 357 L 166 335 L 145 325"/>
  <path class="p4" d="M 112 339 L 102 365 L 125 373 L 134 348 L 112 339"/>
  <line x1="112" y1="339" x2="102" y2="365"/>
  <path class="p4" d="M 102 365 L 94 391 L 117 397 L 125 373 L 102 365"/>
  <line x1="102" y1="365" x2="94" y2="391"/>
  <path class="p4" d="M 134 348 L 125 373 L 147 380 L 156 357 L 134 348"/>
  <path class="p4" d="M 125 373 L 117 397 L 140 404 L 147 380 L 125 373"/>
  <path class="p4" d="M 177 314 L 166 335 L 187 346 L 198 325 L 177 314"/>
  <path class="p4" d="M 166 335 L 156 357 L 177 366 L 187 346 L 166 335"/>
  <path class="p4" d="M 198 325 L 187 346 L 208 356 L 218 337 L 198 325"/>
  <path class="p4" d="M 187 346 L 177 366 L 199 375 L 208 356 L 187 346"/>
  <path class="p4" d="M 156 357 L 147 380 L 169 388 L 177 366 L 156 357"/>
  <path class="p4" d="M 147 380 L 140 404 L 163 410 L 169 388 L 147 380"/>
  <path class="p4" d="M 177 366 L 169 388 L 192 395 L 199 375 L 177 366"/>
  <path class="p4" d="M 169 388 L 163 410 L 186 416 L 192 395 L 169 388"/>
  <path class="p4" d="M 94 391 L 88 418 L 111 423 L 117 397 L 94 391"/>
  <line x1="94" y1="391" x2="88" y2="418"/>
  <path class="p4" d="M 88 418 L 84 445 L 107 448 L 111 423 L 88 418"/>
  <line x1="88" y1="418" x2="84" y2="445"/>
  <path class="p4" d="M 117 397 L 111 423 L 134 427 L 140 404 L 117 397"/>
  <path class="p4" d="M 111 423 L 107 448 L 130 451 L 134 427 L 111 423"/>
  <path class="p4" d="M 140 404 L 134 427 L 158 432 L 163 410 L 140 404"/>
  <path class="p4" d="M 134 427 L 130 451 L 154 454 L 158 432 L 134 427"/>
  <path class="p4" d="M 163 410 L 158 432 L 181 436 L 186 416 L 163 410"/>
  <path class="p4" d="M 158 432 L 154 454 L 177 458 L 181 436 L 158 432"/>
  <path class="p4" d="M 130 451 L 128 476 L 152 477 L 154 454 L 130 451"/>
  <path class="p4" d="M 128 476 L 127 500 L 151 500 L 152 477 L 128 476"/>
  <path class="p4" d="M 154 454 L 152 477 L 175 479 L 177 458 L 154 454"/>
  <path class="p4" d="M 152 477 L 151 500 L 175 500 L 175 479 L 152 477"/>
  <path class="p4" d="M 218 337 L 208 356 L 229 366 L 239 349 L 218 337"/>
  <path class="p4" d="M 208 356 L 199 375 L 221 384 L 229 366 L 208 356"/>
  <path class="p4" d="M 239 349 L 229 366 L 250 377 L 259 361 L 239 349"/>
  <path class="p4" d="M 229 366 L 221 384 L 243 394 L 250 377 L 229 366"/>
  <path class="p4" d="M 199 375 L 192 395 L 214 403 L 221 384 L 199 375"/>
  <path class="p4" d="M 192 395 L 186 416 L 208 422 L 214 403 L 192 395"/>
  <path class="p4" d="M 221 384 L 214 403 L 237 411 L 243 394 L 221 384"/>
  <path class="p4" d="M 214 403 L 208 422 L 231 428 L 237 411 L 214 403"/>
  <path class="p4" d="M 259 361 L 250 377 L 272 387 L 279 373 L 259 361"/>
  <path class="p4" d="M 250 377 L 243 394 L 265 403 L 272 387 L 250 377"/>
  <path class="p4" d="M 279 373 L 272 387 L 293 398 L 300 384 L 279 373"/>
  <path class="p4" d="M 272 387 L 265 403 L 287 412 L 293 398 L 272 387"/>
  <path class="p4" d="M 243 394 L 237 411 L 259 418 L 265 403 L 243 394"/>
  <path class="p4" d="M 237 411 L 231 428 L 254 434 L 259 418 L 237 411"/>
  <path class="p4" d="M 265 403 L 259 418 L 281 426 L 287 412 L 265 403"/>
  <path class="p4" d="M 259 418 L 254 434 L 277 440 L 281 426 L 259 418"/>
  <path class="p4" d="M 186 416 L 181 436 L 204 441 L 208 422 L 186 416"/>
  <path class="p4" d="M 181 436 L 177 458 L 201 461 L 204 441 L 181 436"/>
  <path class="p4" d="M 208 422 L 204 441 L 227 446 L 231 428 L 208 422"/>
  <path class="p4" d="M 204 441 L 201 461 L 224 464 L 227 446 L 204 441"/>
  <path class="p4" d="M 177 458 L 175 479 L 199 480 L 201 461 L 177 458"/>
  <path class="p4" d="M 175 479 L 175 500 L 198 500 L 199 480 L 175 479"/>
  <path class="p4" d="M 201 461 L 199 480 L 222 482 L 224 464 L 201 461"/>
  <path class="p4" d="M 199 480 L 198 500 L 222 500 L 222 482 L 199 480"/>
  <path class="p4" d="M 231 428 L 227 446 L 250 450 L 254 434 L 231 428"/>
  <path class="p4" d="M 227 446 L 224 464 L 248 467 L 250 450 L 227 446"/>
  <path class="p4" d="M 254 434 L 250 450 L 273 455 L 277 440 L 254 434"/>
  <path class="p4" d="M 250 450 L 248 467 L 271 470 L 273 455 L 250 450"/>
  <path class="p4" d="M 408 341 L 398 347 L 411 367 L 420 361 L 408 341"/>
  <path class="p4" d="M 398 347 L 388 354 L 403 373 L 411 367 L 398 347"/>
  <path class="p4" d="M 420 361 L 411 367 L 424 387 L 432 382 L 420 361"/>
  <path class="p4" d="M 411 367 L 403 373 L 417 392 L 424 387 L 411 367"/>
  <path class="p4" d="M 388 354 L 379 362 L 394 380 L 403 373 L 388 354"/>
  <path class="p4" d="M 379 362 L 370 370 L 387 387 L 394 380 L 379 362"/>
  <path class="p4" d="M 403 373 L 394 380 L 410 397 L 417 392 L 403 373"/>
  <path class="p4" d="M 394 380 L 387 387 L 403 403 L 410 397 L 394 380"/>
  <path class="p4" d="M 317 359 L 308 372 L 328 385 L 335 374 L 317 359"/>
  <path class="p4" d="M 308 372 L 300 384 L 320 396 L 328 385 L 308 372"/>
  <path class="p4" d="M 335 374 L 328 385 L 347 398 L 354 388 L 335 374"/>
  <path class="p4" d="M 328 385 L 320 396 L 341 408 L 347 398 L 328 385"/>
  <path class="p4" d="M 354 388 L 347 398 L 367 411 L 373 403 L 354 388"/>
  <path class="p4" d="M 347 398 L 341 408 L 361 420 L 367 411 L 347 398"/>
  <path class="p4" d="M 373 403 L 367 411 L 387 424 L 392 417 L 373 403"/>
  <path class="p4" d="M 367 411 L 361 420 L 382 432 L 387 424 L 367 411"/>
  <path class="p4" d="M 417 392 L 410 397 L 426 415 L 431 410 L 417 392"/>
  <path class="p4" d="M 410 397 L 403 403 L 420 420 L 426 415 L 410 397"/>
  <path class="p4" d="M 431 410 L 426 415 L 441 433 L 446 429 L 431 410"/>
  <path class="p4" d="M 426 415 L 420 420 L 437 437 L 441 433 L 426 415"/>
  <path class="p4" d="M 446 429 L 441 433 L 457 451 L 460 448 L 446 429"/>
  <path class="p4" d="M 441 433 L 437 437 L 454 454 L 457 451 L 441 433"/>
  <path class="p4" d="M 460 448 L 457 451 L 472 468 L 474 467 L 460 448"/>
  <line x1="474" y1="467" x2="472" y2="468"/>
  <path class="p4" d="M 457 451 L 454 454 L 470 470 L 472 468 L 457 451"/>
  <line x1="472" y1="468" x2="470" y2="470"/>
  <path class="p4" d="M 403 403 L 397 410 L 415 426 L 420 420 L 403 403"/>
  <path class="p4" d="M 397 410 L 392 417 L 410 431 L 415 426 L 397 410"/>
  <path class="p4" d="M 420 420 L 415 426 L 433 441 L 437 437 L 420 420"/>
  <path class="p4" d="M 415 426 L 410 431 L 429 446 L 433 441 L 415 426"/>
  <path class="p4" d="M 300 384 L 293 398 L 314 408 L 320 396 L 300 384"/>
  <path class="p4" d="M 293 398 L 287 412 L 308 421 L 314 408 L 293 398"/>
  <path class="p4" d="M 320 396 L 314 408 L 335 419 L 341 408 L 320 396"/>
  <path class="p4" d="M 314 408 L 308 421 L 330 430 L 335 419 L 314 408"/>
  <path class="p4" d="M 287 412 L 281 426 L 304 433 L 308 421 L 287 412"/>
  <path class="p4" d="M 281 426 L 277 440 L 300 446 L 304 433 L 281 426"/>
  <path class="p4" d="M 308 421 L 304 433 L 326 441 L 330 430 L 308 421"/>
  <path class="p4" d="M 304 433 L 300 446 L 323 452 L 326 441 L 304 433"/>
  <path class="p4" d="M 277 440 L 273 455 L 297 460 L 300 446 L 277 440"/>
  <path class="p4" d="M 273 455 L 271 470 L 294 473 L 297 460 L 273 455"/>
  <path class="p4" d="M 300 446 L 297 460 L 320 464 L 323 452 L 300 446"/>
  <path class="p4" d="M 297 460 L 294 473 L 318 476 L 320 464 L 297 460"/>
  <path class="p4" d="M 374 448 L 371 456 L 393 464 L 396 457 L 374 448"/>
  <path class="p4" d="M 371 456 L 368 465 L 391 471 L 393 464 L 371 456"/>
  <path class="p4" d="M 396 457 L 393 464 L 415 471 L 418 466 L 396 457"/>
  <path class="p4" d="M 393 464 L 391 471 L 414 477 L 415 471 L 393 464"/>
  <path class="p4" d="M 80 500 L 81 527 L 104 526 L 104 500 L 80 500"/>
  <line x1="80" y1="500" x2="81" y2="527"/>
  <path class="p4" d="M 81 527 L 84 555 L 107 552 L 104 526 L 81 527"/>
  <line x1="81" y1="527" x2="84" y2="555"/>
  <path class="p4" d="M 104 500 L 104 526 L 128 524 L 127 500 L 104 500"/>
  <path class="p4" d="M 104 526 L 107 552 L 130 549 L 128 524 L 104 526"/>
  <path class="p4" d="M 84 555 L 88 582 L 111 577 L 107 552 L 84 555"/>
  <line x1="84" y1="555" x2="88" y2="582"/>
  <path class="p4" d="M 88 582 L 94 609 L 117 603 L 111 577 L 88 582"/>
  <line x1="88" y1="582" x2="94" y2="609"/>
  <path class="p4" d="M 107 552 L 111 577 L 134 573 L 130 549 L 107 552"/>
  <path class="p4" d="M 111 577 L 117 603 L 140 596 L 134 573 L 111 577"/>
  <path class="p4" d="M 127 500 L 128 524 L 152 523 L 151 500 L 127 500"/>
  <path class="p4" d="M 128 524 L 130 549 L 154 546 L 152 523 L 128 524"/>
  <path class="p4" d="M 151 500 L 152 523 L 175 521 L 175 500 L 151 500"/>
  <path class="p4" d="M 152 523 L 154 546 L 177 542 L 175 521 L 152 523"/>
  <path class="p4" d="M 130 549 L 134 573 L 158 568 L 154 546 L 130 549"/>
  <path class="p4" d="M 134 573 L 140 596 L 163 590 L 158 568 L 134 573"/>
  <path class="p4" d="M 154 546 L 158 568 L 181 564 L 177 542 L 154 546"/>
  <path class="p4" d="M 158 568 L 163 590 L 186 584 L 181 564 L 158 568"/>
  <path class="p4" d="M 94 609 L 102 635 L 125 627 L 117 603 L 94 609"/>
  <line x1="94" y1="609" x2="102" y2="635"/>
  <path class="p4" d="M 102 635 L 112 661 L 134 652 L 125 627 L 102 635"/>
  <line x1="102" y1="635" x2="112" y2="661"/>
  <path class="p4" d="M 117 603 L 125 627 L 147 620 L 140 596 L 117 603"/>
  <path class="p4" d="M 125 627 L 134 652 L 156 643 L 147 620 L 125 627"/>
  <path class="p4" d="M 112 661 L 123 686 L 145 675 L 134 652 L 112 661"/>
  <line x1="112" y1="661" x2="123" y2="686"/>
  <path class="p4" d="M 123 686 L 136 710 L 157 698 L 145 675 L 123 686"/>
  <line x1="123" y1="686" x2="136" y2="710"/>
  <path class="p4" d="M 134 652 L 145 675 L 166 665 L 156 643 L 134 652"/>
  <path class="p4" d="M 145 675 L 157 698 L 177 686 L 166 665 L 145 675"/>
  <path class="p4" d="M 186 584 L 192 605 L 214 597 L 208 578 L 186 584"/>
  <path class="p4" d="M 192 605 L 199 625 L 221 616 L 214 597 L 192 605"/>
  <path class="p4" d="M 208 578 L 214 597 L 237 589 L 231 572 L 208 578"/>
  <path class="p4" d="M 214 597 L 221 616 L 243 606 L 237 589 L 214 597"/>
  <path class="p4" d="M 199 625 L 208 644 L 229 634 L 221 616 L 199 625"/>
  <path class="p4" d="M 208 644 L 218 663 L 239 651 L 229 634 L 208 644"/>
  <path class="p4" d="M 221 616 L 229 634 L 250 623 L 243 606 L 221 616"/>
  <path class="p4" d="M 229 634 L 239 651 L 259 639 L 250 623 L 229 634"/>
  <path class="p4" d="M 231 572 L 237 589 L 259 582 L 254 566 L 231 572"/>
  <path class="p4" d="M 237 589 L 243 606 L 265 597 L 259 582 L 237 589"/>
  <path class="p4" d="M 254 566 L 259 582 L 281 574 L 277 560 L 254 566"/>
  <path class="p4" d="M 259 582 L 265 597 L 287 588 L 281 574 L 259 582"/>
  <path class="p4" d="M 136 710 L 151 733 L 170 720 L 157 698 L 136 710"/>
  <line x1="136" y1="710" x2="151" y2="733"/>
  <path class="p4" d="M 151 733 L 167 756 L 186 741 L 170 720 L 151 733"/>
  <line x1="151" y1="733" x2="167" y2="756"/>
  <path class="p4" d="M 157 698 L 170 720 L 190 707 L 177 686 L 157 698"/>
  <path class="p4" d="M 170 720 L 186 741 L 204 727 L 190 707 L 170 720"/>
  <path class="p4" d="M 167 756 L 184 777 L 202 761 L 186 741 L 167 756"/>
  <line x1="167" y1="756" x2="184" y2="777"/>
  <path class="p4" d="M 184 777 L 203 797 L 220 780 L 202 761 L 184 777"/>
  <line x1="184" y1="777" x2="203" y2="797"/>
  <path class="p4" d="M 186 741 L 202 761 L 220 746 L 204 727 L 186 741"/>
  <path class="p4" d="M 202 761 L 220 780 L 236 764 L 220 746 L 202 761"/>
  <path class="p4" d="M 177 686 L 190 707 L 210 694 L 198 675 L 177 686"/>
  <path class="p4" d="M 190 707 L 204 727 L 223 713 L 210 694 L 190 707"/>
  <path class="p4" d="M 198 675 L 210 694 L 229 681 L 218 663 L 198 675"/>
  <path class="p4" d="M 210 694 L 223 713 L 242 698 L 229 681 L 210 694"/>
  <path class="p4" d="M 204 727 L 220 746 L 238 730 L 223 713 L 204 727"/>
  <path class="p4" d="M 220 746 L 236 764 L 253 747 L 238 730 L 220 746"/>
  <path class="p4" d="M 223 713 L 238 730 L 255 715 L 242 698 L 223 713"/>
  <path class="p4" d="M 238 730 L 253 747 L 270 730 L 255 715 L 238 730"/>
  <path class="p4" d="M 203 797 L 223 816 L 239 798 L 220 780 L 203 797"/>
  <line x1="203" y1="797" x2="223" y2="816"/>
  <path class="p4" d="M 223 816 L 244 833 L 259 814 L 239 798 L 223 816"/>
  <line x1="223" y1="816" x2="244" y2="833"/>
  <path class="p4" d="M 220 780 L 239 798 L 254 780 L 236 764 L 220 780"/>
  <path class="p4" d="M 239 798 L 259 814 L 273 796 L 254 780 L 239 798"/>
  <path class="p4" d="M 244 833 L 267 849 L 280 830 L 259 814 L 244 833"/>
  <line x1="244" y1="833" x2="267" y2="849"/>
  <path class="p4" d="M 267 849 L 290 864 L 302 843 L 280 830 L 267 849"/>
  <line x1="267" y1="849" x2="290" y2="864"/>
  <path class="p4" d="M 259 814 L 280 830 L 293 810 L 273 796 L 259 814"/>
  <path class="p4" d="M 280 830 L 302 843 L 314 823 L 293 810 L 280 830"/>
  <path class="p4" d="M 236 764 L 254 780 L 270 762 L 253 747 L 236 764"/>
  <path class="p4" d="M 254 780 L 273 796 L 287 777 L 270 762 L 254 780"/>
  <path class="p4" d="M 253 747 L 270 762 L 285 745 L 270 730 L 253 747"/>
  <path class="p4" d="M 270 762 L 287 777 L 302 758 L 285 745 L 270 762"/>
  <path class="p4" d="M 273 796 L 293 810 L 306 790 L 287 777 L 273 796"/>
  <path class="p4" d="M 293 810 L 314 823 L 325 802 L 306 790 L 293 810"/>
  <path class="p4" d="M 287 777 L 306 790 L 319 771 L 302 758 L 287 777"/>
  <path class="p4" d="M 306 790 L 325 802 L 337 782 L 319 771 L 306 790"/>
  <path class="p4" d="M 218 663 L 229 681 L 249 668 L 239 651 L 218 663"/>
  <path class="p4" d="M 229 681 L 242 698 L 261 684 L 249 668 L 229 681"/>
  <path class="p4" d="M 239 651 L 249 668 L 269 655 L 259 639 L 239 651"/>
  <path class="p4" d="M 249 668 L 261 684 L 279 669 L 269 655 L 249 668"/>
  <path class="p4" d="M 242 698 L 255 715 L 273 699 L 261 684 L 242 698"/>
  <path class="p4" d="M 255 715 L 270 730 L 287 713 L 273 699 L 255 715"/>
  <path class="p4" d="M 261 684 L 273 699 L 291 683 L 279 669 L 261 684"/>
  <path class="p4" d="M 273 699 L 287 713 L 303 697 L 291 683 L 273 699"/>
  <path class="p4" d="M 259 639 L 269 655 L 288 641 L 279 627 L 259 639"/>
  <path class="p4" d="M 269 655 L 279 669 L 298 655 L 288 641 L 269 655"/>
  <path class="p4" d="M 279 627 L 288 641 L 308 628 L 300 615 L 279 627"/>
  <path class="p4" d="M 288 641 L 298 655 L 317 641 L 308 628 L 288 641"/>
  <path class="p4" d="M 270 730 L 285 745 L 301 727 L 287 713 L 270 730"/>
  <path class="p4" d="M 285 745 L 302 758 L 316 739 L 301 727 L 285 745"/>
  <path class="p4" d="M 287 713 L 301 727 L 317 709 L 303 697 L 287 713"/>
  <path class="p4" d="M 301 727 L 316 739 L 331 721 L 317 709 L 301 727"/>
  <path class="p4" d="M 302 758 L 319 771 L 332 751 L 316 739 L 302 758"/>
  <path class="p4" d="M 319 771 L 337 782 L 349 761 L 332 751 L 319 771"/>
  <path class="p4" d="M 316 739 L 332 751 L 345 731 L 331 721 L 316 739"/>
  <path class="p4" d="M 332 751 L 349 761 L 361 741 L 345 731 L 332 751"/>
  <path class="p4" d="M 303 697 L 317 709 L 332 691 L 320 680 L 303 697"/>
  <path class="p4" d="M 317 709 L 331 721 L 345 702 L 332 691 L 317 709"/>
  <path class="p4" d="M 320 680 L 332 691 L 348 674 L 337 663 L 320 680"/>
  <path class="p4" d="M 332 691 L 345 702 L 359 683 L 348 674 L 332 691"/>
  <path class="p4" d="M 269 500 L 269 515 L 293 514 L 293 500 L 269 500"/>
  <path class="p4" d="M 269 515 L 271 530 L 294 527 L 293 514 L 269 515"/>
  <path class="p4" d="M 293 500 L 293 514 L 317 512 L 316 500 L 293 500"/>
  <path class="p4" d="M 293 514 L 294 527 L 318 524 L 317 512 L 293 514"/>
  <path class="p4" d="M 318 524 L 320 536 L 343 531 L 341 521 L 318 524"/>
  <path class="p4" d="M 320 536 L 323 548 L 345 541 L 343 531 L 320 536"/>
  <path class="p4" d="M 341 521 L 343 531 L 366 527 L 365 518 L 341 521"/>
  <path class="p4" d="M 343 531 L 345 541 L 368 535 L 366 527 L 343 531"/>
  <path class="p4" d="M 277 560 L 281 574 L 304 567 L 300 554 L 277 560"/>
  <path class="p4" d="M 281 574 L 287 588 L 308 579 L 304 567 L 281 574"/>
  <path class="p4" d="M 300 554 L 304 567 L 326 559 L 323 548 L 300 554"/>
  <path class="p4" d="M 304 567 L 308 579 L 330 570 L 326 559 L 304 567"/>
  <path class="p4" d="M 412 512 L 412 517 L 436 513 L 435 509 L 412 512"/>
  <path class="p4" d="M 412 517 L 414 523 L 437 517 L 436 513 L 412 517"/>
  <path class="p4" d="M 435 509 L 436 513 L 459 508 L 458 505 L 435 509"/>
  <line x1="458" y1="505" x2="459" y2="508"/>
  <path class="p4" d="M 436 513 L 437 517 L 459 511 L 459 508 L 436 513"/>
  <line x1="459" y1="508" x2="459" y2="511"/>
  <path class="p4" d="M 317 641 L 326 652 L 344 637 L 335 626 L 317 641"/>
  <path class="p4" d="M 326 652 L 337 663 L 353 647 L 344 637 L 326 652"/>
  <path class="p4" d="M 335 626 L 344 637 L 362 621 L 354 612 L 335 626"/>
  <path class="p4" d="M 344 637 L 353 647 L 370 630 L 362 621 L 344 637"/>
  <path class="p4" d="M 354 612 L 362 621 L 380 606 L 373 597 L 354 612"/>
  <path class="p4" d="M 362 621 L 370 630 L 387 613 L 380 606 L 362 621"/>
  <path class="p4" d="M 373 597 L 380 606 L 397 590 L 392 583 L 373 597"/>
  <path class="p4" d="M 380 606 L 387 613 L 403 597 L 397 590 L 380 606"/>
  <path class="p4" d="M 359 683 L 372 692 L 385 672 L 374 665 L 359 683"/>
  <path class="p4" d="M 372 692 L 384 700 L 396 680 L 385 672 L 372 692"/>
  <path class="p4" d="M 374 665 L 385 672 L 398 653 L 388 646 L 374 665"/>
  <path class="p4" d="M 385 672 L 396 680 L 408 659 L 398 653 L 385 672"/>
  <path class="p4" d="M 388 646 L 398 653 L 411 633 L 403 627 L 388 646"/>
  <path class="p4" d="M 398 653 L 408 659 L 420 639 L 411 633 L 398 653"/>
  <path class="p4" d="M 403 627 L 411 633 L 424 613 L 417 608 L 403 627"/>
  <path class="p4" d="M 411 633 L 420 639 L 432 618 L 424 613 L 411 633"/>
  <path class="p4" d="M 417 608 L 424 613 L 437 594 L 431 590 L 417 608"/>
  <path class="p4" d="M 424 613 L 432 618 L 444 598 L 437 594 L 424 613"/>
  <path class="p4" d="M 431 590 L 437 594 L 450 574 L 446 571 L 431 590"/>
  <path class="p4" d="M 437 594 L 444 598 L 455 577 L 450 574 L 437 594"/>
  <path class="p4" d="M 290 864 L 314 877 L 325 855 L 302 843 L 290 864"/>
  <line x1="290" y1="864" x2="314" y2="877"/>
  <path class="p4" d="M 314 877 L 339 888 L 348 866 L 325 855 L 314 877"/>
  <line x1="314" y1="877" x2="339" y2="888"/>
  <path class="p4" d="M 302 843 L 325 855 L 335 834 L 314 823 L 302 843"/>
  <path class="p4" d="M 325 855 L 348 866 L 357 844 L 335 834 L 325 855"/>
  <path class="p4" d="M 339 888 L 365 898 L 373 875 L 348 866 L 339 888"/>
  <line x1="339" y1="888" x2="365" y2="898"/>
  <path class="p4" d="M 365 898 L 391 906 L 397 883 L 373 875 L 365 898"/>
  <line x1="365" y1="898" x2="391" y2="906"/>
  <path class="p4" d="M 348 866 L 373 875 L 380 853 L 357 844 L 348 866"/>
  <path class="p4" d="M 373 875 L 397 883 L 404 860 L 380 853 L 373 875"/>
  <path class="p4" d="M 314 823 L 335 834 L 346 813 L 325 802 L 314 823"/>
  <path class="p4" d="M 335 834 L 357 844 L 366 823 L 346 813 L 335 834"/>
  <path class="p4" d="M 325 802 L 346 813 L 356 792 L 337 782 L 325 802"/>
  <path class="p4" d="M 346 813 L 366 823 L 375 801 L 356 792 L 346 813"/>
  <path class="p4" d="M 357 844 L 380 853 L 388 831 L 366 823 L 357 844"/>
  <path class="p4" d="M 380 853 L 404 860 L 410 837 L 388 831 L 380 853"/>
  <path class="p4" d="M 366 823 L 388 831 L 395 808 L 375 801 L 366 823"/>
  <path class="p4" d="M 388 831 L 410 837 L 416 814 L 395 808 L 388 831"/>
  <path class="p4" d="M 391 906 L 418 912 L 423 889 L 397 883 L 391 906"/>
  <line x1="391" y1="906" x2="418" y2="912"/>
  <path class="p4" d="M 418 912 L 445 916 L 448 893 L 423 889 L 418 912"/>
  <line x1="418" y1="912" x2="445" y2="916"/>
  <path class="p4" d="M 397 883 L 423 889 L 427 866 L 404 860 L 397 883"/>
  <path class="p4" d="M 423 889 L 448 893 L 451 870 L 427 866 L 423 889"/>
  <path class="p4" d="M 445 916 L 473 919 L 474 896 L 448 893 L 445 916"/>
  <line x1="445" y1="916" x2="473" y2="919"/>
  <path class="p4" d="M 473 919 L 500 920 L 500 896 L 474 896 L 473 919"/>
  <line x1="473" y1="919" x2="500" y2="920"/>
  <path class="p4" d="M 448 893 L 474 896 L 476 872 L 451 870 L 448 893"/>
  <path class="p4" d="M 474 896 L 500 896 L 500 873 L 476 872 L 474 896"/>
  <path class="p4" d="M 404 860 L 427 866 L 432 842 L 410 837 L 404 860"/>
  <path class="p4" d="M 427 866 L 451 870 L 454 846 L 432 842 L 427 866"/>
  <path class="p4" d="M 410 837 L 432 842 L 436 819 L 416 814 L 410 837"/>
  <path class="p4" d="M 432 842 L 454 846 L 458 823 L 436 819 L 432 842"/>
  <path class="p4" d="M 451 870 L 476 872 L 477 848 L 454 846 L 451 870"/>
  <path class="p4" d="M 476 872 L 500 873 L 500 849 L 477 848 L 476 872"/>
  <path class="p4" d="M 454 846 L 477 848 L 479 825 L 458 823 L 454 846"/>
  <path class="p4" d="M 477 848 L 500 849 L 500 826 L 479 825 L 477 848"/>
  <path class="p4" d="M 337 782 L 356 792 L 366 771 L 349 761 L 337 782"/>
  <path class="p4" d="M 356 792 L 375 801 L 384 779 L 366 771 L 356 792"/>
  <path class="p4" d="M 349 761 L 366 771 L 377 750 L 361 741 L 349 761"/>
  <path class="p4" d="M 366 771 L 384 779 L 394 757 L 377 750 L 366 771"/>
  <path class="p4" d="M 375 801 L 395 808 L 403 786 L 384 779 L 375 801"/>
  <path class="p4" d="M 395 808 L 416 814 L 422 792 L 403 786 L 395 808"/>
  <path class="p4" d="M 384 779 L 403 786 L 411 763 L 394 757 L 384 779"/>
  <path class="p4" d="M 403 786 L 422 792 L 428 769 L 411 763 L 403 786"/>
  <path class="p4" d="M 361 741 L 377 750 L 387 728 L 373 721 L 361 741"/>
  <path class="p4" d="M 377 750 L 394 757 L 403 735 L 387 728 L 377 750"/>
  <path class="p4" d="M 373 721 L 387 728 L 398 707 L 384 700 L 373 721"/>
  <path class="p4" d="M 387 728 L 403 735 L 412 713 L 398 707 L 387 728"/>
  <path class="p4" d="M 416 814 L 436 819 L 441 796 L 422 792 L 416 814"/>
  <path class="p4" d="M 436 819 L 458 823 L 461 799 L 441 796 L 436 819"/>
  <path class="p4" d="M 422 792 L 441 796 L 446 773 L 428 769 L 422 792"/>
  <path class="p4" d="M 441 796 L 461 799 L 464 776 L 446 773 L 441 796"/>
  <path class="p4" d="M 458 823 L 479 825 L 480 801 L 461 799 L 458 823"/>
  <path class="p4" d="M 479 825 L 500 826 L 500 802 L 480 801 L 479 825"/>
  <path class="p4" d="M 461 799 L 480 801 L 482 778 L 464 776 L 461 799"/>
  <path class="p4" d="M 480 801 L 500 802 L 500 778 L 482 778 L 480 801"/>
  <path class="p4" d="M 428 769 L 446 773 L 450 750 L 434 746 L 428 769"/>
  <path class="p4" d="M 446 773 L 464 776 L 467 752 L 450 750 L 446 773"/>
  <path class="p4" d="M 434 746 L 450 750 L 455 727 L 440 723 L 434 746"/>
  <path class="p4" d="M 450 750 L 467 752 L 470 729 L 455 727 L 450 750"/>
  <path class="p4" d="M 464 776 L 482 778 L 483 754 L 467 752 L 464 776"/>
  <path class="p4" d="M 482 778 L 500 778 L 500 755 L 483 754 L 482 778"/>
  <path class="p4" d="M 467 752 L 483 754 L 485 731 L 470 729 L 467 752"/>
  <path class="p4" d="M 483 754 L 500 755 L 500 731 L 485 731 L 483 754"/>
  <path class="p4" d="M 500 920 L 527 919 L 526 896 L 500 896 L 500 920"/>
  <line x1="500" y1="920" x2="527" y2="919"/>
  <path class="p4" d="M 527 919 L 555 916 L 552 893 L 526 896 L 527 919"/>
  <line x1="527" y1="919" x2="555" y2="916"/>
  <path class="p4" d="M 500 896 L 526 896 L 524 872 L 500 873 L 500 896"/>
  <path class="p4" d="M 526 896 L 552 893 L 549 870 L 524 872 L 526 896"/>
  <path class="p4" d="M 555 916 L 582 912 L 577 889 L 552 893 L 555 916"/>
  <line x1="555" y1="916" x2="582" y2="912"/>
  <path class="p4" d="M 582 912 L 609 906 L 603 883 L 577 889 L 582 912"/>
  <line x1="582" y1="912" x2="609" y2="906"/>
  <path class="p4" d="M 552 893 L 577 889 L 573 866 L 549 870 L 552 893"/>
  <path class="p4" d="M 577 889 L 603 883 L 596 860 L 573 866 L 577 889"/>
  <path class="p4" d="M 500 873 L 524 872 L 523 848 L 500 849 L 500 873"/>
  <path class="p4" d="M 524 872 L 549 870 L 546 846 L 523 848 L 524 872"/>
  <path class="p4" d="M 500 849 L 523 848 L 521 825 L 500 826 L 500 849"/>
  <path class="p4" d="M 523 848 L 546 846 L 542 823 L 521 825 L 523 848"/>
  <path class="p4" d="M 549 870 L 573 866 L 568 842 L 546 846 L 549 870"/>
  <path class="p4" d="M 573 866 L 596 860 L 590 837 L 568 842 L 573 866"/>
  <path class="p4" d="M 546 846 L 568 842 L 564 819 L 542 823 L 546 846"/>
  <path class="p4" d="M 568 842 L 590 837 L 584 814 L 564 819 L 568 842"/>
  <path class="p4" d="M 609 906 L 635 898 L 627 875 L 603 883 L 609 906"/>
  <line x1="609" y1="906" x2="635" y2="898"/>
  <path class="p4" d="M 635 898 L 661 888 L 652 866 L 627 875 L 635 898"/>
  <line x1="635" y1="898" x2="661" y2="888"/>
  <path class="p4" d="M 603 883 L 627 875 L 620 853 L 596 860 L 603 883"/>
  <path class="p4" d="M 627 875 L 652 866 L 643 844 L 620 853 L 627 875"/>
  <path class="p4" d="M 661 888 L 686 877 L 675 855 L 652 866 L 661 888"/>
  <line x1="661" y1="888" x2="686" y2="877"/>
  <path class="p4" d="M 686 877 L 710 864 L 698 843 L 675 855 L 686 877"/>
  <line x1="686" y1="877" x2="710" y2="864"/>
  <path class="p4" d="M 652 866 L 675 855 L 665 834 L 643 844 L 652 866"/>
  <path class="p4" d="M 675 855 L 698 843 L 686 823 L 665 834 L 675 855"/>
  <path class="p4" d="M 596 860 L 620 853 L 612 831 L 590 837 L 596 860"/>
  <path class="p4" d="M 620 853 L 643 844 L 634 823 L 612 831 L 620 853"/>
  <path class="p4" d="M 590 837 L 612 831 L 605 808 L 584 814 L 590 837"/>
  <path class="p4" d="M 612 831 L 634 823 L 625 801 L 605 808 L 612 831"/>
  <path class="p4" d="M 643 844 L 665 834 L 654 813 L 634 823 L 643 844"/>
  <path class="p4" d="M 665 834 L 686 823 L 675 802 L 654 813 L 665 834"/>
  <path class="p4" d="M 634 823 L 654 813 L 644 792 L 625 801 L 634 823"/>
  <path class="p4" d="M 654 813 L 675 802 L 663 782 L 644 792 L 654 813"/>
  <path class="p4" d="M 542 823 L 564 819 L 559 796 L 539 799 L 542 823"/>
  <path class="p4" d="M 564 819 L 584 814 L 578 792 L 559 796 L 564 819"/>
  <path class="p4" d="M 539 799 L 559 796 L 554 773 L 536 776 L 539 799"/>
  <path class="p4" d="M 559 796 L 578 792 L 572 769 L 554 773 L 559 796"/>
  <path class="p4" d="M 536 776 L 554 773 L 550 750 L 533 752 L 536 776"/>
  <path class="p4" d="M 554 773 L 572 769 L 566 746 L 550 750 L 554 773"/>
  <path class="p4" d="M 533 752 L 550 750 L 545 727 L 530 729 L 533 752"/>
  <path class="p4" d="M 550 750 L 566 746 L 560 723 L 545 727 L 550 750"/>
  <path class="p4" d="M 584 814 L 605 808 L 597 786 L 578 792 L 584 814"/>
  <path class="p4" d="M 605 808 L 625 801 L 616 779 L 597 786 L 605 808"/>
  <path class="p4" d="M 578 792 L 597 786 L 589 763 L 572 769 L 578 792"/>
  <path class="p4" d="M 597 786 L 616 779 L 606 757 L 589 763 L 597 786"/>
  <path class="p4" d="M 625 801 L 644 792 L 634 771 L 616 779 L 625 801"/>
  <path class="p4" d="M 644 792 L 663 782 L 651 761 L 634 771 L 644 792"/>
  <path class="p4" d="M 616 779 L 634 771 L 623 750 L 606 757 L 616 779"/>
  <path class="p4" d="M 634 771 L 651 761 L 639 741 L 623 750 L 634 771"/>
  <path class="p4" d="M 408 659 L 419 665 L 429 644 L 420 639 L 408 659"/>
  <path class="p4" d="M 419 665 L 430 670 L 439 648 L 429 644 L 419 665"/>
  <path class="p4" d="M 420 639 L 429 644 L 440 622 L 432 618 L 420 639"/>
  <path class="p4" d="M 429 644 L 439 648 L 448 626 L 440 622 L 429 644"/>
  <path class="p4" d="M 440 723 L 455 727 L 460 703 L 446 700 L 440 723"/>
  <path class="p4" d="M 455 727 L 470 729 L 473 706 L 460 703 L 455 727"/>
  <path class="p4" d="M 446 700 L 460 703 L 464 680 L 452 677 L 446 700"/>
  <path class="p4" d="M 460 703 L 473 706 L 476 682 L 464 680 L 460 703"/>
  <path class="p4" d="M 448 626 L 456 629 L 464 607 L 457 604 L 448 626"/>
  <path class="p4" d="M 456 629 L 465 632 L 471 609 L 464 607 L 456 629"/>
  <path class="p4" d="M 457 604 L 464 607 L 471 585 L 466 582 L 457 604"/>
  <path class="p4" d="M 464 607 L 471 609 L 477 586 L 471 585 L 464 607"/>
  <path class="p4" d="M 500 684 L 512 683 L 510 660 L 500 660 L 500 684"/>
  <path class="p4" d="M 512 683 L 524 682 L 521 659 L 510 660 L 512 683"/>
  <path class="p4" d="M 500 660 L 510 660 L 509 636 L 500 637 L 500 660"/>
  <path class="p4" d="M 510 660 L 521 659 L 518 635 L 509 636 L 510 660"/>
  <path class="p4" d="M 524 682 L 536 680 L 531 657 L 521 659 L 524 682"/>
  <path class="p4" d="M 536 680 L 548 677 L 541 655 L 531 657 L 536 680"/>
  <path class="p4" d="M 521 659 L 531 657 L 527 634 L 518 635 L 521 659"/>
  <path class="p4" d="M 531 657 L 541 655 L 535 632 L 527 634 L 531 657"/>
  <path class="p4" d="M 588 713 L 602 707 L 592 686 L 579 692 L 588 713"/>
  <path class="p4" d="M 602 707 L 616 700 L 604 680 L 592 686 L 602 707"/>
  <path class="p4" d="M 579 692 L 592 686 L 581 665 L 570 670 L 579 692"/>
  <path class="p4" d="M 592 686 L 604 680 L 592 659 L 581 665 L 592 686"/>
  <path class="p4" d="M 552 626 L 560 622 L 550 601 L 543 604 L 552 626"/>
  <path class="p4" d="M 560 622 L 568 618 L 556 598 L 550 601 L 560 622"/>
  <path class="p4" d="M 543 604 L 550 601 L 539 580 L 534 582 L 543 604"/>
  <path class="p4" d="M 550 601 L 556 598 L 545 577 L 539 580 L 550 601"/>
  <path class="p4" d="M 710 864 L 733 849 L 720 830 L 698 843 L 710 864"/>
  <line x1="710" y1="864" x2="733" y2="849"/>
  <path class="p4" d="M 733 849 L 756 833 L 741 814 L 720 830 L 733 849"/>
  <line x1="733" y1="849" x2="756" y2="833"/>
  <path class="p4" d="M 698 843 L 720 830 L 707 810 L 686 823 L 698 843"/>
  <path class="p4" d="M 720 830 L 741 814 L 727 796 L 707 810 L 720 830"/>
  <path class="p4" d="M 756 833 L 777 816 L 761 798 L 741 814 L 756 833"/>
  <line x1="756" y1="833" x2="777" y2="816"/>
  <path class="p4" d="M 777 816 L 797 797 L 780 780 L 761 798 L 777 816"/>
  <line x1="777" y1="816" x2="797" y2="797"/>
  <path class="p4" d="M 741 814 L 761 798 L 746 780 L 727 796 L 741 814"/>
  <path class="p4" d="M 761 798 L 780 780 L 764 764 L 746 780 L 761 798"/>
  <path class="p4" d="M 686 823 L 707 810 L 694 790 L 675 802 L 686 823"/>
  <path class="p4" d="M 707 810 L 727 796 L 713 777 L 694 790 L 707 810"/>
  <path class="p4" d="M 675 802 L 694 790 L 681 771 L 663 782 L 675 802"/>
  <path class="p4" d="M 694 790 L 713 777 L 698 758 L 681 771 L 694 790"/>
  <path class="p4" d="M 727 796 L 746 780 L 730 762 L 713 777 L 727 796"/>
  <path class="p4" d="M 746 780 L 764 764 L 747 747 L 730 762 L 746 780"/>
  <path class="p4" d="M 713 777 L 730 762 L 715 745 L 698 758 L 713 777"/>
  <path class="p4" d="M 730 762 L 747 747 L 730 730 L 715 745 L 730 762"/>
  <path class="p4" d="M 797 797 L 816 777 L 798 761 L 780 780 L 797 797"/>
  <line x1="797" y1="797" x2="816" y2="777"/>
  <path class="p4" d="M 816 777 L 833 756 L 814 741 L 798 761 L 816 777"/>
  <line x1="816" y1="777" x2="833" y2="756"/>
  <path class="p4" d="M 780 780 L 798 761 L 780 746 L 764 764 L 780 780"/>
  <path class="p4" d="M 798 761 L 814 741 L 796 727 L 780 746 L 798 761"/>
  <path class="p4" d="M 833 756 L 849 733 L 830 720 L 814 741 L 833 756"/>
  <line x1="833" y1="756" x2="849" y2="733"/>
  <path class="p4" d="M 849 733 L 864 710 L 843 698 L 830 720 L 849 733"/>
  <line x1="849" y1="733" x2="864" y2="710"/>
  <path class="p4" d="M 814 741 L 830 720 L 810 707 L 796 727 L 814 741"/>
  <path class="p4" d="M 830 720 L 843 698 L 823 686 L 810 707 L 830 720"/>
  <path class="p4" d="M 764 764 L 780 746 L 762 730 L 747 747 L 764 764"/>
  <path class="p4" d="M 780 746 L 796 727 L 777 713 L 762 730 L 780 746"/>
  <path class="p4" d="M 747 747 L 762 730 L 745 715 L 730 730 L 747 747"/>
  <path class="p4" d="M 762 730 L 777 713 L 758 698 L 745 715 L 762 730"/>
  <path class="p4" d="M 796 727 L 810 707 L 790 694 L 777 713 L 796 727"/>
  <path class="p4" d="M 810 707 L 823 686 L 802 675 L 790 694 L 810 707"/>
  <path class="p4" d="M 777 713 L 790 694 L 771 681 L 758 698 L 777 713"/>
  <path class="p4" d="M 790 694 L 802 675 L 782 663 L 771 681 L 790 694"/>
  <path class="p4" d="M 663 782 L 681 771 L 668 751 L 651 761 L 663 782"/>
  <path class="p4" d="M 681 771 L 698 758 L 684 739 L 668 751 L 681 771"/>
  <path class="p4" d="M 651 761 L 668 751 L 655 731 L 639 741 L 651 761"/>
  <path class="p4" d="M 668 751 L 684 739 L 669 721 L 655 731 L 668 751"/>
  <path class="p4" d="M 697 697 L 709 683 L 691 668 L 680 680 L 697 697"/>
  <path class="p4" d="M 709 683 L 721 669 L 702 655 L 691 668 L 709 683"/>
  <path class="p4" d="M 680 680 L 691 668 L 674 652 L 663 663 L 680 680"/>
  <path class="p4" d="M 691 668 L 702 655 L 683 641 L 674 652 L 691 668"/>
  <path class="p4" d="M 721 669 L 731 655 L 712 641 L 702 655 L 721 669"/>
  <path class="p4" d="M 731 655 L 741 639 L 721 627 L 712 641 L 731 655"/>
  <path class="p4" d="M 702 655 L 712 641 L 692 628 L 683 641 L 702 655"/>
  <path class="p4" d="M 712 641 L 721 627 L 700 616 L 692 628 L 712 641"/>
  <path class="p4" d="M 864 710 L 877 686 L 855 675 L 843 698 L 864 710"/>
  <line x1="864" y1="710" x2="877" y2="686"/>
  <path class="p4" d="M 877 686 L 888 661 L 866 652 L 855 675 L 877 686"/>
  <line x1="877" y1="686" x2="888" y2="661"/>
  <path class="p4" d="M 843 698 L 855 675 L 834 665 L 823 686 L 843 698"/>
  <path class="p4" d="M 855 675 L 866 652 L 844 643 L 834 665 L 855 675"/>
  <path class="p4" d="M 888 661 L 898 635 L 875 627 L 866 652 L 888 661"/>
  <line x1="888" y1="661" x2="898" y2="635"/>
  <path class="p4" d="M 898 635 L 906 609 L 883 603 L 875 627 L 898 635"/>
  <line x1="898" y1="635" x2="906" y2="609"/>
  <path class="p4" d="M 866 652 L 875 627 L 853 620 L 844 643 L 866 652"/>
  <path class="p4" d="M 875 627 L 883 603 L 860 596 L 853 620 L 875 627"/>
  <path class="p4" d="M 823 686 L 834 665 L 813 654 L 802 675 L 823 686"/>
  <path class="p4" d="M 834 665 L 844 643 L 823 634 L 813 654 L 834 665"/>
  <path class="p4" d="M 802 675 L 813 654 L 792 644 L 782 663 L 802 675"/>
  <path class="p4" d="M 813 654 L 823 634 L 801 625 L 792 644 L 813 654"/>
  <path class="p4" d="M 844 643 L 853 620 L 831 612 L 823 634 L 844 643"/>
  <path class="p4" d="M 853 620 L 860 596 L 837 590 L 831 612 L 853 620"/>
  <path class="p4" d="M 823 634 L 831 612 L 808 605 L 801 625 L 823 634"/>
  <path class="p4" d="M 831 612 L 837 590 L 814 584 L 808 605 L 831 612"/>
  <path class="p4" d="M 906 609 L 912 582 L 889 577 L 883 603 L 906 609"/>
  <line x1="906" y1="609" x2="912" y2="582"/>
  <path class="p4" d="M 912 582 L 916 555 L 893 552 L 889 577 L 912 582"/>
  <line x1="912" y1="582" x2="916" y2="555"/>
  <path class="p4" d="M 883 603 L 889 577 L 866 573 L 860 596 L 883 603"/>
  <path class="p4" d="M 889 577 L 893 552 L 870 549 L 866 573 L 889 577"/>
  <path class="p4" d="M 916 555 L 919 527 L 896 526 L 893 552 L 916 555"/>
  <line x1="916" y1="555" x2="919" y2="527"/>
  <path class="p4" d="M 919 527 L 920 500 L 896 500 L 896 526 L 919 527"/>
  <line x1="919" y1="527" x2="920" y2="500"/>
  <path class="p4" d="M 893 552 L 896 526 L 872 524 L 870 549 L 893 552"/>
  <path class="p4" d="M 896 526 L 896 500 L 873 500 L 872 524 L 896 526"/>
  <path class="p4" d="M 860 596 L 866 573 L 842 568 L 837 590 L 860 596"/>
  <path class="p4" d="M 866 573 L 870 549 L 846 546 L 842 568 L 866 573"/>
  <path class="p4" d="M 837 590 L 842 568 L 819 564 L 814 584 L 837 590"/>
  <path class="p4" d="M 842 568 L 846 546 L 823 542 L 819 564 L 842 568"/>
  <path class="p4" d="M 870 549 L 872 524 L 848 523 L 846 546 L 870 549"/>
  <path class="p4" d="M 872 524 L 873 500 L 849 500 L 848 523 L 872 524"/>
  <path class="p4" d="M 846 546 L 848 523 L 825 521 L 823 542 L 846 546"/>
  <path class="p4" d="M 848 523 L 849 500 L 826 500 L 825 521 L 848 523"/>
  <path class="p4" d="M 782 663 L 792 644 L 771 634 L 761 651 L 782 663"/>
  <path class="p4" d="M 792 644 L 801 625 L 779 616 L 771 634 L 792 644"/>
  <path class="p4" d="M 761 651 L 771 634 L 750 623 L 741 639 L 761 651"/>
  <path class="p4" d="M 771 634 L 779 616 L 757 606 L 750 623 L 771 634"/>
  <path class="p4" d="M 801 625 L 808 605 L 786 597 L 779 616 L 801 625"/>
  <path class="p4" d="M 808 605 L 814 584 L 792 578 L 786 597 L 808 605"/>
  <path class="p4" d="M 779 616 L 786 597 L 763 589 L 757 606 L 779 616"/>
  <path class="p4" d="M 786 597 L 792 578 L 769 572 L 763 589 L 786 597"/>
  <path class="p4" d="M 741 639 L 750 623 L 728 613 L 721 627 L 741 639"/>
  <path class="p4" d="M 750 623 L 757 606 L 735 597 L 728 613 L 750 623"/>
  <path class="p4" d="M 721 627 L 728 613 L 707 602 L 700 616 L 721 627"/>
  <path class="p4" d="M 728 613 L 735 597 L 713 588 L 707 602 L 728 613"/>
  <path class="p4" d="M 757 606 L 763 589 L 741 582 L 735 597 L 757 606"/>
  <path class="p4" d="M 763 589 L 769 572 L 746 566 L 741 582 L 763 589"/>
  <path class="p4" d="M 735 597 L 741 582 L 719 574 L 713 588 L 735 597"/>
  <path class="p4" d="M 741 582 L 746 566 L 723 560 L 719 574 L 741 582"/>
  <path class="p4" d="M 814 584 L 819 564 L 796 559 L 792 578 L 814 584"/>
  <path class="p4" d="M 819 564 L 823 542 L 799 539 L 796 559 L 819 564"/>
  <path class="p4" d="M 792 578 L 796 559 L 773 554 L 769 572 L 792 578"/>
  <path class="p4" d="M 796 559 L 799 539 L 776 536 L 773 554 L 796 559"/>
  <path class="p4" d="M 769 572 L 773 554 L 750 550 L 746 566 L 769 572"/>
  <path class="p4" d="M 773 554 L 776 536 L 752 533 L 750 550 L 773 554"/>
  <path class="p4" d="M 746 566 L 750 550 L 727 545 L 723 560 L 746 566"/>
  <path class="p4" d="M 750 550 L 752 533 L 729 530 L 727 545 L 750 550"/>
  <path class="p4" d="M 776 536 L 778 518 L 754 517 L 752 533 L 776 536"/>
  <path class="p4" d="M 778 518 L 778 500 L 755 500 L 754 517 L 778 518"/>
  <path class="p4" d="M 752 533 L 754 517 L 731 515 L 729 530 L 752 533"/>
  <path class="p4" d="M 754 517 L 755 500 L 731 500 L 731 515 L 754 517"/>
  <path class="p4" d="M 612 646 L 621 638 L 606 620 L 597 627 L 612 646"/>
  <path class="p4" d="M 621 638 L 630 630 L 613 613 L 606 620 L 621 638"/>
  <path class="p4" d="M 597 627 L 606 620 L 590 603 L 583 608 L 597 627"/>
  <path class="p4" d="M 606 620 L 613 613 L 597 597 L 590 603 L 606 620"/>
  <path class="p4" d="M 646 612 L 653 602 L 633 589 L 627 597 L 646 612"/>
  <path class="p4" d="M 653 602 L 659 592 L 639 580 L 633 589 L 653 602"/>
  <path class="p4" d="M 627 597 L 633 589 L 613 576 L 608 583 L 627 597"/>
  <path class="p4" d="M 633 589 L 639 580 L 618 568 L 613 576 L 633 589"/>
  <path class="p4" d="M 597 597 L 603 590 L 585 574 L 580 580 L 597 597"/>
  <path class="p4" d="M 603 590 L 608 583 L 590 569 L 585 574 L 603 590"/>
  <path class="p4" d="M 580 580 L 585 574 L 567 559 L 563 563 L 580 580"/>
  <path class="p4" d="M 585 574 L 590 569 L 571 554 L 567 559 L 585 574"/>
  <path class="p4" d="M 713 588 L 719 574 L 696 567 L 692 579 L 713 588"/>
  <path class="p4" d="M 719 574 L 723 560 L 700 554 L 696 567 L 719 574"/>
  <path class="p4" d="M 692 579 L 696 567 L 674 559 L 670 570 L 692 579"/>
  <path class="p4" d="M 696 567 L 700 554 L 677 548 L 674 559 L 696 567"/>
  <path class="p4" d="M 670 570 L 674 559 L 652 551 L 648 561 L 670 570"/>
  <path class="p4" d="M 674 559 L 677 548 L 655 541 L 652 551 L 674 559"/>
  <path class="p4" d="M 648 561 L 652 551 L 629 544 L 626 552 L 648 561"/>
  <path class="p4" d="M 652 551 L 655 541 L 632 535 L 629 544 L 652 551"/>
  <path class="p4" d="M 723 560 L 727 545 L 703 540 L 700 554 L 723 560"/>
  <path class="p4" d="M 727 545 L 729 530 L 706 527 L 703 540 L 727 545"/>
  <path class="p4" d="M 700 554 L 703 540 L 680 536 L 677 548 L 700 554"/>
  <path class="p4" d="M 703 540 L 706 527 L 682 524 L 680 536 L 703 540"/>
  <path class="p4" d="M 729 530 L 731 515 L 707 514 L 706 527 L 729 530"/>
  <path class="p4" d="M 731 515 L 731 500 L 707 500 L 707 514 L 731 515"/>
  <path class="p4" d="M 706 527 L 707 514 L 683 512 L 682 524 L 706 527"/>
  <path class="p4" d="M 707 514 L 707 500 L 684 500 L 683 512 L 707 514"/>
  <path class="p4" d="M 626 552 L 629 544 L 607 536 L 604 543 L 626 552"/>
  <path class="p4" d="M 629 544 L 632 535 L 609 529 L 607 536 L 629 544"/>
  <path class="p4" d="M 604 543 L 607 536 L 585 529 L 582 534 L 604 543"/>
  <path class="p4" d="M 607 536 L 609 529 L 586 523 L 585 529 L 607 536"/>
  <path class="p4" d="M 632 535 L 634 527 L 611 522 L 609 529 L 632 535"/>
  <path class="p4" d="M 634 527 L 635 518 L 612 515 L 611 522 L 634 527"/>
  <path class="p4" d="M 609 529 L 611 522 L 588 517 L 586 523 L 609 529"/>
  <path class="p4" d="M 611 522 L 612 515 L 588 512 L 588 517 L 611 522"/>

</svg>